G04*
G04 #@! TF.GenerationSoftware,Altium Limited,Altium Designer,21.5.1 (32)*
G04*
G04 Layer_Physical_Order=3*
G04 Layer_Color=16440176*
%FSLAX25Y25*%
%MOIN*%
G70*
G04*
G04 #@! TF.SameCoordinates,56779449-03F1-48BB-9336-A885ABDA861C*
G04*
G04*
G04 #@! TF.FilePolarity,Positive*
G04*
G01*
G75*
%ADD15C,0.01181*%
%ADD31O,0.03937X0.02992*%
%ADD32O,0.02992X0.03937*%
%ADD33C,0.01772*%
%ADD34C,0.01181*%
G36*
X187369Y133103D02*
X181147D01*
X180791Y133891D01*
X180959Y134109D01*
X181049Y134327D01*
X181119Y134438D01*
X182691Y138498D01*
X182726Y138512D01*
X183141Y138927D01*
X183366Y139470D01*
Y140058D01*
X183141Y140600D01*
X182726Y141015D01*
X182183Y141240D01*
X181596D01*
X181053Y141015D01*
X180638Y140600D01*
X180413Y140058D01*
Y139470D01*
X180450Y139381D01*
X178886Y135339D01*
X178865Y135331D01*
X178862Y135323D01*
X177472Y135288D01*
X176974Y136016D01*
X176969Y136063D01*
Y136416D01*
X176819Y136778D01*
X176542Y137055D01*
X176180Y137205D01*
X175788D01*
X175427Y137055D01*
X175150Y136778D01*
X175000Y136416D01*
Y136025D01*
X175005Y136013D01*
X174584Y135240D01*
X174549Y135213D01*
X168716Y135065D01*
X168503Y135367D01*
X168307Y135843D01*
X168405Y136080D01*
Y136472D01*
X168256Y136834D01*
X167979Y137110D01*
X167617Y137260D01*
X167226D01*
X166864Y137110D01*
X166587Y136834D01*
X166437Y136472D01*
Y136080D01*
X166554Y135798D01*
X166418Y135413D01*
X166191Y135001D01*
X164466Y134957D01*
X163809Y134969D01*
X163578Y135040D01*
X163064Y135293D01*
X162001Y135980D01*
X161881Y136269D01*
X161466Y136685D01*
X160924Y136909D01*
X160336D01*
X159875Y136718D01*
X159491Y136859D01*
X159088Y137092D01*
Y183432D01*
X187369D01*
Y133103D01*
D02*
G37*
G36*
X149968D02*
X143745D01*
X143389Y133891D01*
X143557Y134109D01*
X143648Y134327D01*
X143718Y134438D01*
X145289Y138498D01*
X145325Y138512D01*
X145740Y138927D01*
X145965Y139470D01*
Y140058D01*
X145740Y140600D01*
X145325Y141015D01*
X144782Y141240D01*
X144194D01*
X143652Y141015D01*
X143237Y140600D01*
X143012Y140058D01*
Y139470D01*
X143049Y139381D01*
X141484Y135339D01*
X141464Y135331D01*
X141461Y135323D01*
X140071Y135288D01*
X139573Y136016D01*
X139567Y136063D01*
Y136416D01*
X139417Y136778D01*
X139140Y137055D01*
X138778Y137205D01*
X138387D01*
X138025Y137055D01*
X137748Y136778D01*
X137598Y136416D01*
Y136025D01*
X137603Y136013D01*
X137183Y135240D01*
X137147Y135213D01*
X131314Y135065D01*
X131102Y135367D01*
X130905Y135843D01*
X131004Y136080D01*
Y136472D01*
X130854Y136834D01*
X130577Y137110D01*
X130216Y137260D01*
X129824D01*
X129462Y137110D01*
X129185Y136834D01*
X129035Y136472D01*
Y136080D01*
X129152Y135798D01*
X129017Y135413D01*
X128789Y135001D01*
X127064Y134957D01*
X126408Y134969D01*
X126176Y135040D01*
X125662Y135293D01*
X124600Y135980D01*
X124480Y136269D01*
X124065Y136685D01*
X123522Y136909D01*
X122935D01*
X122473Y136718D01*
X122090Y136859D01*
X121686Y137092D01*
Y183432D01*
X149968D01*
Y133103D01*
D02*
G37*
G36*
X112566D02*
X106344D01*
X105988Y133891D01*
X106156Y134109D01*
X106246Y134327D01*
X106316Y134438D01*
X107888Y138498D01*
X107923Y138512D01*
X108338Y138927D01*
X108563Y139470D01*
Y140058D01*
X108338Y140600D01*
X107923Y141015D01*
X107380Y141240D01*
X106793D01*
X106250Y141015D01*
X105835Y140600D01*
X105610Y140058D01*
Y139470D01*
X105647Y139381D01*
X104083Y135339D01*
X104062Y135331D01*
X104059Y135323D01*
X102669Y135288D01*
X102171Y136016D01*
X102165Y136063D01*
Y136416D01*
X102015Y136778D01*
X101739Y137055D01*
X101377Y137205D01*
X100985D01*
X100624Y137055D01*
X100347Y136778D01*
X100197Y136416D01*
Y136025D01*
X100202Y136013D01*
X99781Y135240D01*
X99746Y135213D01*
X93913Y135065D01*
X93700Y135367D01*
X93504Y135843D01*
X93602Y136080D01*
Y136472D01*
X93453Y136834D01*
X93176Y137110D01*
X92814Y137260D01*
X92422D01*
X92061Y137110D01*
X91784Y136834D01*
X91634Y136472D01*
Y136080D01*
X91751Y135798D01*
X91615Y135413D01*
X91388Y135001D01*
X89662Y134957D01*
X89006Y134969D01*
X88775Y135040D01*
X88261Y135293D01*
X87198Y135980D01*
X87078Y136269D01*
X86663Y136685D01*
X86120Y136909D01*
X85533D01*
X85072Y136718D01*
X84688Y136859D01*
X84284Y137092D01*
Y183432D01*
X112566D01*
Y133103D01*
D02*
G37*
G36*
X75165D02*
X68942D01*
X68586Y133891D01*
X68754Y134109D01*
X68844Y134327D01*
X68915Y134438D01*
X70486Y138498D01*
X70521Y138512D01*
X70937Y138927D01*
X71161Y139470D01*
Y140058D01*
X70937Y140600D01*
X70521Y141015D01*
X69979Y141240D01*
X69391D01*
X68849Y141015D01*
X68433Y140600D01*
X68209Y140058D01*
Y139470D01*
X68246Y139381D01*
X66681Y135339D01*
X66661Y135331D01*
X66657Y135323D01*
X65268Y135288D01*
X64770Y136016D01*
X64764Y136063D01*
Y136416D01*
X64614Y136778D01*
X64337Y137055D01*
X63975Y137205D01*
X63584D01*
X63222Y137055D01*
X62945Y136778D01*
X62795Y136416D01*
Y136025D01*
X62800Y136013D01*
X62379Y135240D01*
X62344Y135213D01*
X56511Y135065D01*
X56299Y135367D01*
X56102Y135843D01*
X56201Y136080D01*
Y136472D01*
X56051Y136834D01*
X55774Y137110D01*
X55412Y137260D01*
X55021D01*
X54659Y137110D01*
X54382Y136834D01*
X54232Y136472D01*
Y136080D01*
X54349Y135798D01*
X54213Y135413D01*
X53986Y135001D01*
X52261Y134957D01*
X51605Y134969D01*
X51373Y135040D01*
X50859Y135293D01*
X49797Y135980D01*
X49677Y136269D01*
X49262Y136685D01*
X48719Y136909D01*
X48131D01*
X47670Y136718D01*
X47286Y136859D01*
X46883Y137092D01*
Y183432D01*
X75165D01*
Y133103D01*
D02*
G37*
G36*
X37763D02*
X31541D01*
X31185Y133891D01*
X31353Y134109D01*
X31443Y134327D01*
X31513Y134438D01*
X33085Y138498D01*
X33120Y138512D01*
X33535Y138927D01*
X33760Y139470D01*
Y140058D01*
X33535Y140600D01*
X33120Y141015D01*
X32577Y141240D01*
X31990D01*
X31447Y141015D01*
X31032Y140600D01*
X30807Y140058D01*
Y139470D01*
X30844Y139381D01*
X29279Y135339D01*
X29259Y135331D01*
X29256Y135323D01*
X27866Y135288D01*
X27368Y136016D01*
X27362Y136063D01*
Y136416D01*
X27212Y136778D01*
X26935Y137055D01*
X26574Y137205D01*
X26182D01*
X25820Y137055D01*
X25543Y136778D01*
X25394Y136416D01*
Y136025D01*
X25399Y136013D01*
X24978Y135240D01*
X24942Y135213D01*
X19109Y135065D01*
X18897Y135367D01*
X18701Y135843D01*
X18799Y136080D01*
Y136472D01*
X18649Y136834D01*
X18372Y137110D01*
X18011Y137260D01*
X17619D01*
X17257Y137110D01*
X16981Y136834D01*
X16831Y136472D01*
Y136080D01*
X16948Y135798D01*
X16812Y135413D01*
X16585Y135001D01*
X14859Y134957D01*
X14203Y134969D01*
X13972Y135040D01*
X13457Y135293D01*
X12395Y135980D01*
X12275Y136269D01*
X11860Y136685D01*
X11317Y136909D01*
X10730D01*
X10269Y136718D01*
X9885Y136859D01*
X9481Y137092D01*
Y183432D01*
X37763D01*
Y133103D01*
D02*
G37*
G36*
X187369Y73654D02*
X181147D01*
X180791Y74442D01*
X180959Y74661D01*
X181049Y74879D01*
X181119Y74989D01*
X182691Y79049D01*
X182726Y79063D01*
X183141Y79479D01*
X183366Y80021D01*
Y80609D01*
X183141Y81151D01*
X182726Y81567D01*
X182183Y81791D01*
X181596D01*
X181053Y81567D01*
X180638Y81151D01*
X180413Y80609D01*
Y80021D01*
X180450Y79932D01*
X178886Y75890D01*
X178865Y75882D01*
X178862Y75874D01*
X177472Y75839D01*
X176974Y76568D01*
X176969Y76614D01*
Y76967D01*
X176819Y77329D01*
X176542Y77606D01*
X176180Y77756D01*
X175788D01*
X175427Y77606D01*
X175150Y77329D01*
X175000Y76967D01*
Y76576D01*
X175005Y76564D01*
X174584Y75791D01*
X174549Y75765D01*
X168716Y75616D01*
X168503Y75918D01*
X168307Y76394D01*
X168405Y76631D01*
Y77023D01*
X168256Y77385D01*
X167979Y77662D01*
X167617Y77811D01*
X167226D01*
X166864Y77662D01*
X166587Y77385D01*
X166437Y77023D01*
Y76631D01*
X166554Y76349D01*
X166418Y75964D01*
X166191Y75552D01*
X164466Y75508D01*
X163809Y75520D01*
X163578Y75591D01*
X163064Y75845D01*
X162001Y76532D01*
X161881Y76821D01*
X161466Y77236D01*
X160924Y77461D01*
X160336D01*
X159875Y77270D01*
X159491Y77410D01*
X159088Y77643D01*
Y123983D01*
X187369D01*
Y73654D01*
D02*
G37*
G36*
X149968D02*
X143745D01*
X143389Y74442D01*
X143557Y74661D01*
X143648Y74879D01*
X143718Y74989D01*
X145289Y79049D01*
X145325Y79063D01*
X145740Y79479D01*
X145965Y80021D01*
Y80609D01*
X145740Y81151D01*
X145325Y81567D01*
X144782Y81791D01*
X144194D01*
X143652Y81567D01*
X143237Y81151D01*
X143012Y80609D01*
Y80021D01*
X143049Y79932D01*
X141484Y75890D01*
X141464Y75882D01*
X141461Y75874D01*
X140071Y75839D01*
X139573Y76568D01*
X139567Y76614D01*
Y76967D01*
X139417Y77329D01*
X139140Y77606D01*
X138778Y77756D01*
X138387D01*
X138025Y77606D01*
X137748Y77329D01*
X137598Y76967D01*
Y76576D01*
X137603Y76564D01*
X137183Y75791D01*
X137147Y75765D01*
X131314Y75616D01*
X131102Y75918D01*
X130905Y76394D01*
X131004Y76631D01*
Y77023D01*
X130854Y77385D01*
X130577Y77662D01*
X130216Y77811D01*
X129824D01*
X129462Y77662D01*
X129185Y77385D01*
X129035Y77023D01*
Y76631D01*
X129152Y76349D01*
X129017Y75964D01*
X128789Y75552D01*
X127064Y75508D01*
X126408Y75520D01*
X126176Y75591D01*
X125662Y75845D01*
X124600Y76532D01*
X124480Y76821D01*
X124065Y77236D01*
X123522Y77461D01*
X122935D01*
X122473Y77270D01*
X122090Y77410D01*
X121686Y77643D01*
Y123983D01*
X149968D01*
Y73654D01*
D02*
G37*
G36*
X112566D02*
X106344D01*
X105988Y74442D01*
X106156Y74661D01*
X106246Y74879D01*
X106316Y74989D01*
X107888Y79049D01*
X107923Y79063D01*
X108338Y79479D01*
X108563Y80021D01*
Y80609D01*
X108338Y81151D01*
X107923Y81567D01*
X107380Y81791D01*
X106793D01*
X106250Y81567D01*
X105835Y81151D01*
X105610Y80609D01*
Y80021D01*
X105647Y79932D01*
X104083Y75890D01*
X104062Y75882D01*
X104059Y75874D01*
X102669Y75839D01*
X102171Y76568D01*
X102165Y76614D01*
Y76967D01*
X102015Y77329D01*
X101739Y77606D01*
X101377Y77756D01*
X100985D01*
X100624Y77606D01*
X100347Y77329D01*
X100197Y76967D01*
Y76576D01*
X100202Y76564D01*
X99781Y75791D01*
X99746Y75765D01*
X93913Y75616D01*
X93700Y75918D01*
X93504Y76394D01*
X93602Y76631D01*
Y77023D01*
X93453Y77385D01*
X93176Y77662D01*
X92814Y77811D01*
X92422D01*
X92061Y77662D01*
X91784Y77385D01*
X91634Y77023D01*
Y76631D01*
X91751Y76349D01*
X91615Y75964D01*
X91388Y75552D01*
X89662Y75508D01*
X89006Y75520D01*
X88775Y75591D01*
X88261Y75845D01*
X87198Y76532D01*
X87078Y76821D01*
X86663Y77236D01*
X86120Y77461D01*
X85533D01*
X85072Y77270D01*
X84688Y77410D01*
X84284Y77643D01*
Y123983D01*
X112566D01*
Y73654D01*
D02*
G37*
G36*
X75165D02*
X68942D01*
X68586Y74442D01*
X68754Y74661D01*
X68844Y74879D01*
X68915Y74989D01*
X70486Y79049D01*
X70521Y79063D01*
X70937Y79479D01*
X71161Y80021D01*
Y80609D01*
X70937Y81151D01*
X70521Y81567D01*
X69979Y81791D01*
X69391D01*
X68849Y81567D01*
X68433Y81151D01*
X68209Y80609D01*
Y80021D01*
X68246Y79932D01*
X66681Y75890D01*
X66661Y75882D01*
X66657Y75874D01*
X65268Y75839D01*
X64770Y76568D01*
X64764Y76614D01*
Y76967D01*
X64614Y77329D01*
X64337Y77606D01*
X63975Y77756D01*
X63584D01*
X63222Y77606D01*
X62945Y77329D01*
X62795Y76967D01*
Y76576D01*
X62800Y76564D01*
X62379Y75791D01*
X62344Y75765D01*
X56511Y75616D01*
X56299Y75918D01*
X56102Y76394D01*
X56201Y76631D01*
Y77023D01*
X56051Y77385D01*
X55774Y77662D01*
X55412Y77811D01*
X55021D01*
X54659Y77662D01*
X54382Y77385D01*
X54232Y77023D01*
Y76631D01*
X54349Y76349D01*
X54213Y75964D01*
X53986Y75552D01*
X52261Y75508D01*
X51605Y75520D01*
X51373Y75591D01*
X50859Y75845D01*
X49797Y76532D01*
X49677Y76821D01*
X49262Y77236D01*
X48719Y77461D01*
X48131D01*
X47670Y77270D01*
X47286Y77410D01*
X46883Y77643D01*
Y123983D01*
X75165D01*
Y73654D01*
D02*
G37*
G36*
X37763D02*
X31541D01*
X31185Y74442D01*
X31353Y74661D01*
X31443Y74879D01*
X31513Y74989D01*
X33085Y79049D01*
X33120Y79063D01*
X33535Y79479D01*
X33760Y80021D01*
Y80609D01*
X33535Y81151D01*
X33120Y81567D01*
X32577Y81791D01*
X31990D01*
X31447Y81567D01*
X31032Y81151D01*
X30807Y80609D01*
Y80021D01*
X30844Y79932D01*
X29279Y75890D01*
X29259Y75882D01*
X29256Y75874D01*
X27866Y75839D01*
X27368Y76568D01*
X27362Y76614D01*
Y76967D01*
X27212Y77329D01*
X26935Y77606D01*
X26574Y77756D01*
X26182D01*
X25820Y77606D01*
X25543Y77329D01*
X25394Y76967D01*
Y76576D01*
X25399Y76564D01*
X24978Y75791D01*
X24942Y75765D01*
X19109Y75616D01*
X18897Y75918D01*
X18701Y76394D01*
X18799Y76631D01*
Y77023D01*
X18649Y77385D01*
X18372Y77662D01*
X18011Y77811D01*
X17619D01*
X17257Y77662D01*
X16981Y77385D01*
X16831Y77023D01*
Y76631D01*
X16948Y76349D01*
X16812Y75964D01*
X16585Y75552D01*
X14859Y75508D01*
X14203Y75520D01*
X13972Y75591D01*
X13457Y75845D01*
X12395Y76532D01*
X12275Y76821D01*
X11860Y77236D01*
X11317Y77461D01*
X10730D01*
X10269Y77270D01*
X9885Y77410D01*
X9481Y77643D01*
Y123983D01*
X37763D01*
Y73654D01*
D02*
G37*
G36*
X187369Y14206D02*
X181147D01*
X180791Y14993D01*
X180959Y15212D01*
X181049Y15430D01*
X181119Y15540D01*
X182691Y19600D01*
X182726Y19614D01*
X183141Y20030D01*
X183366Y20572D01*
Y21160D01*
X183141Y21702D01*
X182726Y22118D01*
X182183Y22343D01*
X181596D01*
X181053Y22118D01*
X180638Y21702D01*
X180413Y21160D01*
Y20572D01*
X180450Y20483D01*
X178886Y16442D01*
X178865Y16433D01*
X178862Y16425D01*
X177472Y16390D01*
X176974Y17119D01*
X176969Y17165D01*
Y17519D01*
X176819Y17880D01*
X176542Y18157D01*
X176180Y18307D01*
X175788D01*
X175427Y18157D01*
X175150Y17880D01*
X175000Y17519D01*
Y17127D01*
X175005Y17115D01*
X174584Y16342D01*
X174549Y16316D01*
X168716Y16168D01*
X168503Y16469D01*
X168307Y16945D01*
X168405Y17183D01*
Y17574D01*
X168256Y17936D01*
X167979Y18213D01*
X167617Y18363D01*
X167226D01*
X166864Y18213D01*
X166587Y17936D01*
X166437Y17574D01*
Y17183D01*
X166554Y16900D01*
X166418Y16515D01*
X166191Y16103D01*
X164466Y16059D01*
X163809Y16071D01*
X163578Y16142D01*
X163064Y16396D01*
X162001Y17083D01*
X161881Y17372D01*
X161466Y17787D01*
X160924Y18012D01*
X160336D01*
X159875Y17821D01*
X159491Y17962D01*
X159088Y18194D01*
Y64534D01*
X187369D01*
Y14206D01*
D02*
G37*
G36*
X149968D02*
X143745D01*
X143389Y14993D01*
X143557Y15212D01*
X143648Y15430D01*
X143718Y15540D01*
X145289Y19600D01*
X145325Y19614D01*
X145740Y20030D01*
X145965Y20572D01*
Y21160D01*
X145740Y21702D01*
X145325Y22118D01*
X144782Y22343D01*
X144194D01*
X143652Y22118D01*
X143237Y21702D01*
X143012Y21160D01*
Y20572D01*
X143049Y20483D01*
X141484Y16442D01*
X141464Y16433D01*
X141461Y16425D01*
X140071Y16390D01*
X139573Y17119D01*
X139567Y17165D01*
Y17519D01*
X139417Y17880D01*
X139140Y18157D01*
X138778Y18307D01*
X138387D01*
X138025Y18157D01*
X137748Y17880D01*
X137598Y17519D01*
Y17127D01*
X137603Y17115D01*
X137183Y16342D01*
X137147Y16316D01*
X131314Y16168D01*
X131102Y16469D01*
X130905Y16945D01*
X131004Y17183D01*
Y17574D01*
X130854Y17936D01*
X130577Y18213D01*
X130216Y18363D01*
X129824D01*
X129462Y18213D01*
X129185Y17936D01*
X129035Y17574D01*
Y17183D01*
X129152Y16900D01*
X129017Y16515D01*
X128789Y16103D01*
X127064Y16059D01*
X126408Y16071D01*
X126176Y16142D01*
X125662Y16396D01*
X124600Y17083D01*
X124480Y17372D01*
X124065Y17787D01*
X123522Y18012D01*
X122935D01*
X122473Y17821D01*
X122090Y17962D01*
X121686Y18194D01*
Y64534D01*
X149968D01*
Y14206D01*
D02*
G37*
G36*
X112566D02*
X106344D01*
X105988Y14993D01*
X106156Y15212D01*
X106246Y15430D01*
X106316Y15540D01*
X107888Y19600D01*
X107923Y19614D01*
X108338Y20030D01*
X108563Y20572D01*
Y21160D01*
X108338Y21702D01*
X107923Y22118D01*
X107380Y22343D01*
X106793D01*
X106250Y22118D01*
X105835Y21702D01*
X105610Y21160D01*
Y20572D01*
X105647Y20483D01*
X104083Y16442D01*
X104062Y16433D01*
X104059Y16425D01*
X102669Y16390D01*
X102171Y17119D01*
X102165Y17165D01*
Y17519D01*
X102015Y17880D01*
X101739Y18157D01*
X101377Y18307D01*
X100985D01*
X100624Y18157D01*
X100347Y17880D01*
X100197Y17519D01*
Y17127D01*
X100202Y17115D01*
X99781Y16342D01*
X99746Y16316D01*
X93913Y16168D01*
X93700Y16469D01*
X93504Y16945D01*
X93602Y17183D01*
Y17574D01*
X93453Y17936D01*
X93176Y18213D01*
X92814Y18363D01*
X92422D01*
X92061Y18213D01*
X91784Y17936D01*
X91634Y17574D01*
Y17183D01*
X91751Y16900D01*
X91615Y16515D01*
X91388Y16103D01*
X89662Y16059D01*
X89006Y16071D01*
X88775Y16142D01*
X88261Y16396D01*
X87198Y17083D01*
X87078Y17372D01*
X86663Y17787D01*
X86120Y18012D01*
X85533D01*
X85072Y17821D01*
X84688Y17962D01*
X84284Y18194D01*
Y64534D01*
X112566D01*
Y14206D01*
D02*
G37*
G36*
X75165D02*
X68942D01*
X68586Y14993D01*
X68754Y15212D01*
X68844Y15430D01*
X68915Y15540D01*
X70486Y19600D01*
X70521Y19614D01*
X70937Y20030D01*
X71161Y20572D01*
Y21160D01*
X70937Y21702D01*
X70521Y22118D01*
X69979Y22343D01*
X69391D01*
X68849Y22118D01*
X68433Y21702D01*
X68209Y21160D01*
Y20572D01*
X68246Y20483D01*
X66681Y16442D01*
X66661Y16433D01*
X66657Y16425D01*
X65268Y16390D01*
X64770Y17119D01*
X64764Y17165D01*
Y17519D01*
X64614Y17880D01*
X64337Y18157D01*
X63975Y18307D01*
X63584D01*
X63222Y18157D01*
X62945Y17880D01*
X62795Y17519D01*
Y17127D01*
X62800Y17115D01*
X62379Y16342D01*
X62344Y16316D01*
X56511Y16168D01*
X56299Y16469D01*
X56102Y16945D01*
X56201Y17183D01*
Y17574D01*
X56051Y17936D01*
X55774Y18213D01*
X55412Y18363D01*
X55021D01*
X54659Y18213D01*
X54382Y17936D01*
X54232Y17574D01*
Y17183D01*
X54349Y16900D01*
X54213Y16515D01*
X53986Y16103D01*
X52261Y16059D01*
X51605Y16071D01*
X51373Y16142D01*
X50859Y16396D01*
X49797Y17083D01*
X49677Y17372D01*
X49262Y17787D01*
X48719Y18012D01*
X48131D01*
X47670Y17821D01*
X47286Y17962D01*
X46883Y18194D01*
Y64534D01*
X75165D01*
Y14206D01*
D02*
G37*
G36*
X37763D02*
X31541D01*
X31185Y14993D01*
X31353Y15212D01*
X31443Y15430D01*
X31513Y15540D01*
X33085Y19600D01*
X33120Y19614D01*
X33535Y20030D01*
X33760Y20572D01*
Y21160D01*
X33535Y21702D01*
X33120Y22118D01*
X32577Y22343D01*
X31990D01*
X31447Y22118D01*
X31032Y21702D01*
X30807Y21160D01*
Y20572D01*
X30844Y20483D01*
X29279Y16442D01*
X29259Y16433D01*
X29256Y16425D01*
X27866Y16390D01*
X27368Y17119D01*
X27362Y17165D01*
Y17519D01*
X27212Y17880D01*
X26935Y18157D01*
X26574Y18307D01*
X26182D01*
X25820Y18157D01*
X25543Y17880D01*
X25394Y17519D01*
Y17127D01*
X25399Y17115D01*
X24978Y16342D01*
X24942Y16316D01*
X19109Y16168D01*
X18897Y16469D01*
X18701Y16945D01*
X18799Y17183D01*
Y17574D01*
X18649Y17936D01*
X18372Y18213D01*
X18011Y18363D01*
X17619D01*
X17257Y18213D01*
X16981Y17936D01*
X16831Y17574D01*
Y17183D01*
X16948Y16900D01*
X16812Y16515D01*
X16585Y16103D01*
X14859Y16059D01*
X14203Y16071D01*
X13972Y16142D01*
X13457Y16396D01*
X12395Y17083D01*
X12275Y17372D01*
X11860Y17787D01*
X11317Y18012D01*
X10730D01*
X10269Y17821D01*
X9885Y17962D01*
X9481Y18194D01*
Y64534D01*
X37763D01*
Y14206D01*
D02*
G37*
%LPC*%
G36*
X172932Y181261D02*
X172540D01*
X172179Y181111D01*
X171902Y180835D01*
X171752Y180473D01*
Y180241D01*
X171689Y180161D01*
X171337Y179889D01*
X171037Y179750D01*
X170924Y179797D01*
X170533D01*
X170511Y179788D01*
X170288Y179878D01*
X169783Y180288D01*
Y180473D01*
X169634Y180835D01*
X169357Y181111D01*
X168995Y181261D01*
X168603D01*
X168242Y181111D01*
X167965Y180835D01*
X167815Y180473D01*
Y180081D01*
X167965Y179719D01*
X168117Y179567D01*
X167977Y178939D01*
X167887Y178768D01*
X167336Y178540D01*
X166893Y178097D01*
X166654Y177518D01*
Y176892D01*
X166893Y176313D01*
X167336Y175870D01*
X167915Y175630D01*
X168542D01*
X169120Y175870D01*
X169563Y176313D01*
X169803Y176892D01*
Y177317D01*
X170287Y177728D01*
X170526Y177831D01*
X170533Y177828D01*
X170924D01*
X171286Y177978D01*
X171563Y178255D01*
X171713Y178617D01*
Y178848D01*
X171775Y178928D01*
X172128Y179200D01*
X172428Y179339D01*
X172540Y179293D01*
X172932D01*
X173294Y179443D01*
X173571Y179719D01*
X173720Y180081D01*
Y180473D01*
X173571Y180835D01*
X173294Y181111D01*
X172932Y181261D01*
D02*
G37*
G36*
X183542Y178779D02*
X182915D01*
X182336Y178540D01*
X181893Y178097D01*
X181654Y177518D01*
Y176892D01*
X181893Y176313D01*
X182336Y175870D01*
X182915Y175630D01*
X183542D01*
X184120Y175870D01*
X184563Y176313D01*
X184803Y176892D01*
Y177518D01*
X184563Y178097D01*
X184120Y178540D01*
X183542Y178779D01*
D02*
G37*
G36*
X178542D02*
X177915D01*
X177336Y178540D01*
X176893Y178097D01*
X176654Y177518D01*
Y176892D01*
X176893Y176313D01*
X177336Y175870D01*
X177915Y175630D01*
X178542D01*
X179120Y175870D01*
X179563Y176313D01*
X179803Y176892D01*
Y177518D01*
X179563Y178097D01*
X179120Y178540D01*
X178542Y178779D01*
D02*
G37*
G36*
X163542D02*
X162915D01*
X162336Y178540D01*
X161893Y178097D01*
X161654Y177518D01*
Y176892D01*
X161893Y176313D01*
X162336Y175870D01*
X162915Y175630D01*
X163542D01*
X164120Y175870D01*
X164563Y176313D01*
X164803Y176892D01*
Y177518D01*
X164563Y178097D01*
X164120Y178540D01*
X163542Y178779D01*
D02*
G37*
G36*
X168798Y174213D02*
X168407D01*
X168045Y174063D01*
X167768Y173786D01*
X167618Y173424D01*
Y173033D01*
X167768Y172671D01*
X168045Y172394D01*
X168407Y172244D01*
X168798D01*
X169160Y172394D01*
X169437Y172671D01*
X169587Y173033D01*
Y173424D01*
X169437Y173786D01*
X169160Y174063D01*
X168798Y174213D01*
D02*
G37*
G36*
X175491Y173632D02*
X175100D01*
X174738Y173482D01*
X174461Y173205D01*
X174311Y172843D01*
Y172452D01*
X174461Y172090D01*
X174738Y171813D01*
X175100Y171663D01*
X175491D01*
X175853Y171813D01*
X176130Y172090D01*
X176279Y172452D01*
Y172843D01*
X176130Y173205D01*
X175853Y173482D01*
X175491Y173632D01*
D02*
G37*
G36*
X183542Y173779D02*
X182915D01*
X182336Y173540D01*
X181893Y173097D01*
X181654Y172518D01*
Y171891D01*
X181893Y171313D01*
X182336Y170870D01*
X182915Y170630D01*
X183542D01*
X184120Y170870D01*
X184563Y171313D01*
X184803Y171891D01*
Y172518D01*
X184563Y173097D01*
X184120Y173540D01*
X183542Y173779D01*
D02*
G37*
G36*
X163542D02*
X162915D01*
X162336Y173540D01*
X161893Y173097D01*
X161654Y172518D01*
Y171891D01*
X161893Y171313D01*
X162336Y170870D01*
X162915Y170630D01*
X163542D01*
X164120Y170870D01*
X164563Y171313D01*
X164803Y171891D01*
Y172518D01*
X164563Y173097D01*
X164120Y173540D01*
X163542Y173779D01*
D02*
G37*
G36*
X183542Y168780D02*
X182915D01*
X182336Y168540D01*
X181893Y168097D01*
X181654Y167518D01*
Y166892D01*
X181893Y166313D01*
X182336Y165870D01*
X182915Y165630D01*
X183542D01*
X184120Y165870D01*
X184563Y166313D01*
X184803Y166892D01*
Y167518D01*
X184563Y168097D01*
X184120Y168540D01*
X183542Y168780D01*
D02*
G37*
G36*
X163542D02*
X162915D01*
X162336Y168540D01*
X161893Y168097D01*
X161654Y167518D01*
Y166892D01*
X161893Y166313D01*
X162336Y165870D01*
X162915Y165630D01*
X163542D01*
X164120Y165870D01*
X164563Y166313D01*
X164803Y166892D01*
Y167518D01*
X164563Y168097D01*
X164120Y168540D01*
X163542Y168780D01*
D02*
G37*
G36*
X173463Y165135D02*
X173071D01*
X172709Y164985D01*
X172432Y164708D01*
X172283Y164347D01*
Y163955D01*
X172432Y163593D01*
X172709Y163316D01*
X173071Y163166D01*
X173463D01*
X173824Y163316D01*
X174101Y163593D01*
X174251Y163955D01*
Y164347D01*
X174101Y164708D01*
X173824Y164985D01*
X173463Y165135D01*
D02*
G37*
G36*
X183542Y163779D02*
X182915D01*
X182336Y163540D01*
X181893Y163097D01*
X181654Y162518D01*
Y161891D01*
X181893Y161313D01*
X182336Y160870D01*
X182915Y160630D01*
X183542D01*
X184120Y160870D01*
X184563Y161313D01*
X184803Y161891D01*
Y162518D01*
X184563Y163097D01*
X184120Y163540D01*
X183542Y163779D01*
D02*
G37*
G36*
X172440Y162402D02*
X172048D01*
X171687Y162252D01*
X171410Y161975D01*
X171260Y161613D01*
Y161222D01*
X171410Y160860D01*
X171687Y160583D01*
X172048Y160433D01*
X172440D01*
X172802Y160583D01*
X173079Y160860D01*
X173228Y161222D01*
Y161613D01*
X173079Y161975D01*
X172802Y162252D01*
X172440Y162402D01*
D02*
G37*
G36*
X161558Y160363D02*
X161167D01*
X160805Y160213D01*
X160528Y159936D01*
X160378Y159574D01*
Y159183D01*
X160528Y158821D01*
X160805Y158544D01*
X161167Y158394D01*
X161558D01*
X161920Y158544D01*
X162197Y158821D01*
X162347Y159183D01*
Y159574D01*
X162197Y159936D01*
X161920Y160213D01*
X161558Y160363D01*
D02*
G37*
G36*
X166157Y159772D02*
X165765D01*
X165403Y159622D01*
X165126Y159345D01*
X164977Y158983D01*
Y158592D01*
X165126Y158230D01*
X165403Y157953D01*
X165765Y157803D01*
X165897Y157641D01*
X166179Y157025D01*
X166104Y156843D01*
Y156452D01*
X166254Y156090D01*
X166531Y155813D01*
X166892Y155663D01*
X167284D01*
X167646Y155813D01*
X167922Y156090D01*
X168072Y156452D01*
Y156843D01*
X167922Y157205D01*
X167646Y157482D01*
X167284Y157632D01*
X167151Y157794D01*
X166870Y158410D01*
X166945Y158592D01*
Y158983D01*
X166795Y159345D01*
X166518Y159622D01*
X166157Y159772D01*
D02*
G37*
G36*
X176539Y154457D02*
X176148D01*
X175786Y154307D01*
X175509Y154031D01*
X175359Y153669D01*
Y153277D01*
X175509Y152916D01*
X175786Y152639D01*
X176148Y152489D01*
X176539D01*
X176901Y152639D01*
X177178Y152916D01*
X177328Y153277D01*
Y153669D01*
X177178Y154031D01*
X176901Y154307D01*
X176539Y154457D01*
D02*
G37*
G36*
X171699Y153304D02*
X171307D01*
X170946Y153155D01*
X170669Y152878D01*
X170519Y152516D01*
Y152124D01*
X170669Y151763D01*
X170946Y151486D01*
X171307Y151336D01*
X171699D01*
X172061Y151486D01*
X172338Y151763D01*
X172487Y152124D01*
Y152516D01*
X172338Y152878D01*
X172061Y153155D01*
X171699Y153304D01*
D02*
G37*
G36*
X163542Y153779D02*
X162915D01*
X162336Y153540D01*
X161893Y153097D01*
X161654Y152518D01*
Y151892D01*
X161893Y151313D01*
X162336Y150870D01*
X162915Y150630D01*
X163542D01*
X164120Y150870D01*
X164563Y151313D01*
X164803Y151892D01*
Y152518D01*
X164563Y153097D01*
X164120Y153540D01*
X163542Y153779D01*
D02*
G37*
G36*
X173368Y150910D02*
X172976D01*
X172614Y150760D01*
X172338Y150483D01*
X172188Y150122D01*
Y149730D01*
X172338Y149368D01*
X172614Y149091D01*
X172976Y148942D01*
X173368D01*
X173730Y149091D01*
X174006Y149368D01*
X174156Y149730D01*
Y150122D01*
X174006Y150483D01*
X173730Y150760D01*
X173368Y150910D01*
D02*
G37*
G36*
X178389Y149641D02*
X177997D01*
X177635Y149492D01*
X177358Y149215D01*
X177208Y148853D01*
Y148461D01*
X177358Y148100D01*
X177635Y147823D01*
X177997Y147673D01*
X178389D01*
X178750Y147823D01*
X179027Y148100D01*
X179177Y148461D01*
Y148853D01*
X179027Y149215D01*
X178750Y149492D01*
X178389Y149641D01*
D02*
G37*
G36*
X183542Y148779D02*
X182915D01*
X182336Y148540D01*
X181893Y148097D01*
X181654Y147518D01*
Y146891D01*
X181893Y146313D01*
X182336Y145870D01*
X182915Y145630D01*
X183542D01*
X184120Y145870D01*
X184563Y146313D01*
X184803Y146891D01*
Y147518D01*
X184563Y148097D01*
X184120Y148540D01*
X183542Y148779D01*
D02*
G37*
G36*
X170517Y147020D02*
X170126D01*
X169764Y146870D01*
X169487Y146593D01*
X169337Y146231D01*
Y145840D01*
X169487Y145478D01*
X169764Y145201D01*
X170126Y145051D01*
X170517D01*
X170879Y145201D01*
X171156Y145478D01*
X171306Y145840D01*
Y146231D01*
X171156Y146593D01*
X170879Y146870D01*
X170517Y147020D01*
D02*
G37*
G36*
X171721Y138979D02*
X171329D01*
X170968Y138830D01*
X170691Y138553D01*
X170541Y138191D01*
Y137799D01*
X170691Y137438D01*
X170968Y137161D01*
X171329Y137011D01*
X171721D01*
X172083Y137161D01*
X172360Y137438D01*
X172509Y137799D01*
Y138191D01*
X172360Y138553D01*
X172083Y138830D01*
X171721Y138979D01*
D02*
G37*
G36*
X135530Y181261D02*
X135139D01*
X134777Y181111D01*
X134500Y180835D01*
X134350Y180473D01*
Y180241D01*
X134288Y180161D01*
X133935Y179889D01*
X133635Y179750D01*
X133523Y179797D01*
X133131D01*
X133109Y179788D01*
X132887Y179878D01*
X132382Y180288D01*
Y180473D01*
X132232Y180835D01*
X131955Y181111D01*
X131593Y181261D01*
X131202D01*
X130840Y181111D01*
X130563Y180835D01*
X130413Y180473D01*
Y180081D01*
X130563Y179719D01*
X130716Y179567D01*
X130576Y178939D01*
X130486Y178768D01*
X129935Y178540D01*
X129492Y178097D01*
X129252Y177518D01*
Y176892D01*
X129492Y176313D01*
X129935Y175870D01*
X130514Y175630D01*
X131140D01*
X131719Y175870D01*
X132162Y176313D01*
X132402Y176892D01*
Y177317D01*
X132886Y177728D01*
X133124Y177831D01*
X133131Y177828D01*
X133523D01*
X133884Y177978D01*
X134161Y178255D01*
X134311Y178617D01*
Y178848D01*
X134374Y178928D01*
X134726Y179200D01*
X135026Y179339D01*
X135139Y179293D01*
X135530D01*
X135892Y179443D01*
X136169Y179719D01*
X136319Y180081D01*
Y180473D01*
X136169Y180835D01*
X135892Y181111D01*
X135530Y181261D01*
D02*
G37*
G36*
X146140Y178779D02*
X145513D01*
X144935Y178540D01*
X144492Y178097D01*
X144252Y177518D01*
Y176892D01*
X144492Y176313D01*
X144935Y175870D01*
X145513Y175630D01*
X146140D01*
X146719Y175870D01*
X147162Y176313D01*
X147402Y176892D01*
Y177518D01*
X147162Y178097D01*
X146719Y178540D01*
X146140Y178779D01*
D02*
G37*
G36*
X141140D02*
X140514D01*
X139935Y178540D01*
X139492Y178097D01*
X139252Y177518D01*
Y176892D01*
X139492Y176313D01*
X139935Y175870D01*
X140514Y175630D01*
X141140D01*
X141719Y175870D01*
X142162Y176313D01*
X142402Y176892D01*
Y177518D01*
X142162Y178097D01*
X141719Y178540D01*
X141140Y178779D01*
D02*
G37*
G36*
X126140D02*
X125514D01*
X124935Y178540D01*
X124492Y178097D01*
X124252Y177518D01*
Y176892D01*
X124492Y176313D01*
X124935Y175870D01*
X125514Y175630D01*
X126140D01*
X126719Y175870D01*
X127162Y176313D01*
X127402Y176892D01*
Y177518D01*
X127162Y178097D01*
X126719Y178540D01*
X126140Y178779D01*
D02*
G37*
G36*
X131397Y174213D02*
X131005D01*
X130643Y174063D01*
X130366Y173786D01*
X130217Y173424D01*
Y173033D01*
X130366Y172671D01*
X130643Y172394D01*
X131005Y172244D01*
X131397D01*
X131758Y172394D01*
X132035Y172671D01*
X132185Y173033D01*
Y173424D01*
X132035Y173786D01*
X131758Y174063D01*
X131397Y174213D01*
D02*
G37*
G36*
X138090Y173632D02*
X137698D01*
X137336Y173482D01*
X137059Y173205D01*
X136909Y172843D01*
Y172452D01*
X137059Y172090D01*
X137336Y171813D01*
X137698Y171663D01*
X138090D01*
X138451Y171813D01*
X138728Y172090D01*
X138878Y172452D01*
Y172843D01*
X138728Y173205D01*
X138451Y173482D01*
X138090Y173632D01*
D02*
G37*
G36*
X146140Y173779D02*
X145513D01*
X144935Y173540D01*
X144492Y173097D01*
X144252Y172518D01*
Y171891D01*
X144492Y171313D01*
X144935Y170870D01*
X145513Y170630D01*
X146140D01*
X146719Y170870D01*
X147162Y171313D01*
X147402Y171891D01*
Y172518D01*
X147162Y173097D01*
X146719Y173540D01*
X146140Y173779D01*
D02*
G37*
G36*
X126140D02*
X125514D01*
X124935Y173540D01*
X124492Y173097D01*
X124252Y172518D01*
Y171891D01*
X124492Y171313D01*
X124935Y170870D01*
X125514Y170630D01*
X126140D01*
X126719Y170870D01*
X127162Y171313D01*
X127402Y171891D01*
Y172518D01*
X127162Y173097D01*
X126719Y173540D01*
X126140Y173779D01*
D02*
G37*
G36*
X146140Y168780D02*
X145513D01*
X144935Y168540D01*
X144492Y168097D01*
X144252Y167518D01*
Y166892D01*
X144492Y166313D01*
X144935Y165870D01*
X145513Y165630D01*
X146140D01*
X146719Y165870D01*
X147162Y166313D01*
X147402Y166892D01*
Y167518D01*
X147162Y168097D01*
X146719Y168540D01*
X146140Y168780D01*
D02*
G37*
G36*
X126140D02*
X125514D01*
X124935Y168540D01*
X124492Y168097D01*
X124252Y167518D01*
Y166892D01*
X124492Y166313D01*
X124935Y165870D01*
X125514Y165630D01*
X126140D01*
X126719Y165870D01*
X127162Y166313D01*
X127402Y166892D01*
Y167518D01*
X127162Y168097D01*
X126719Y168540D01*
X126140Y168780D01*
D02*
G37*
G36*
X136061Y165135D02*
X135670D01*
X135308Y164985D01*
X135031Y164708D01*
X134881Y164347D01*
Y163955D01*
X135031Y163593D01*
X135308Y163316D01*
X135670Y163166D01*
X136061D01*
X136423Y163316D01*
X136700Y163593D01*
X136850Y163955D01*
Y164347D01*
X136700Y164708D01*
X136423Y164985D01*
X136061Y165135D01*
D02*
G37*
G36*
X146140Y163779D02*
X145513D01*
X144935Y163540D01*
X144492Y163097D01*
X144252Y162518D01*
Y161891D01*
X144492Y161313D01*
X144935Y160870D01*
X145513Y160630D01*
X146140D01*
X146719Y160870D01*
X147162Y161313D01*
X147402Y161891D01*
Y162518D01*
X147162Y163097D01*
X146719Y163540D01*
X146140Y163779D01*
D02*
G37*
G36*
X135038Y162402D02*
X134647D01*
X134285Y162252D01*
X134008Y161975D01*
X133858Y161613D01*
Y161222D01*
X134008Y160860D01*
X134285Y160583D01*
X134647Y160433D01*
X135038D01*
X135400Y160583D01*
X135677Y160860D01*
X135827Y161222D01*
Y161613D01*
X135677Y161975D01*
X135400Y162252D01*
X135038Y162402D01*
D02*
G37*
G36*
X124157Y160363D02*
X123765D01*
X123403Y160213D01*
X123126Y159936D01*
X122977Y159574D01*
Y159183D01*
X123126Y158821D01*
X123403Y158544D01*
X123765Y158394D01*
X124157D01*
X124518Y158544D01*
X124795Y158821D01*
X124945Y159183D01*
Y159574D01*
X124795Y159936D01*
X124518Y160213D01*
X124157Y160363D01*
D02*
G37*
G36*
X128755Y159772D02*
X128363D01*
X128002Y159622D01*
X127725Y159345D01*
X127575Y158983D01*
Y158592D01*
X127725Y158230D01*
X128002Y157953D01*
X128363Y157803D01*
X128496Y157641D01*
X128778Y157025D01*
X128702Y156843D01*
Y156452D01*
X128852Y156090D01*
X129129Y155813D01*
X129491Y155663D01*
X129882D01*
X130244Y155813D01*
X130521Y156090D01*
X130671Y156452D01*
Y156843D01*
X130521Y157205D01*
X130244Y157482D01*
X129882Y157632D01*
X129750Y157794D01*
X129468Y158410D01*
X129543Y158592D01*
Y158983D01*
X129394Y159345D01*
X129117Y159622D01*
X128755Y159772D01*
D02*
G37*
G36*
X139138Y154457D02*
X138746D01*
X138384Y154307D01*
X138107Y154031D01*
X137958Y153669D01*
Y153277D01*
X138107Y152916D01*
X138384Y152639D01*
X138746Y152489D01*
X139138D01*
X139499Y152639D01*
X139776Y152916D01*
X139926Y153277D01*
Y153669D01*
X139776Y154031D01*
X139499Y154307D01*
X139138Y154457D01*
D02*
G37*
G36*
X134297Y153304D02*
X133906D01*
X133544Y153155D01*
X133267Y152878D01*
X133117Y152516D01*
Y152124D01*
X133267Y151763D01*
X133544Y151486D01*
X133906Y151336D01*
X134297D01*
X134659Y151486D01*
X134936Y151763D01*
X135086Y152124D01*
Y152516D01*
X134936Y152878D01*
X134659Y153155D01*
X134297Y153304D01*
D02*
G37*
G36*
X126140Y153779D02*
X125514D01*
X124935Y153540D01*
X124492Y153097D01*
X124252Y152518D01*
Y151892D01*
X124492Y151313D01*
X124935Y150870D01*
X125514Y150630D01*
X126140D01*
X126719Y150870D01*
X127162Y151313D01*
X127402Y151892D01*
Y152518D01*
X127162Y153097D01*
X126719Y153540D01*
X126140Y153779D01*
D02*
G37*
G36*
X135966Y150910D02*
X135575D01*
X135213Y150760D01*
X134936Y150483D01*
X134786Y150122D01*
Y149730D01*
X134936Y149368D01*
X135213Y149091D01*
X135575Y148942D01*
X135966D01*
X136328Y149091D01*
X136605Y149368D01*
X136755Y149730D01*
Y150122D01*
X136605Y150483D01*
X136328Y150760D01*
X135966Y150910D01*
D02*
G37*
G36*
X140987Y149641D02*
X140595D01*
X140234Y149492D01*
X139957Y149215D01*
X139807Y148853D01*
Y148461D01*
X139957Y148100D01*
X140234Y147823D01*
X140595Y147673D01*
X140987D01*
X141349Y147823D01*
X141625Y148100D01*
X141775Y148461D01*
Y148853D01*
X141625Y149215D01*
X141349Y149492D01*
X140987Y149641D01*
D02*
G37*
G36*
X146140Y148779D02*
X145513D01*
X144935Y148540D01*
X144492Y148097D01*
X144252Y147518D01*
Y146891D01*
X144492Y146313D01*
X144935Y145870D01*
X145513Y145630D01*
X146140D01*
X146719Y145870D01*
X147162Y146313D01*
X147402Y146891D01*
Y147518D01*
X147162Y148097D01*
X146719Y148540D01*
X146140Y148779D01*
D02*
G37*
G36*
X133116Y147020D02*
X132724D01*
X132362Y146870D01*
X132085Y146593D01*
X131936Y146231D01*
Y145840D01*
X132085Y145478D01*
X132362Y145201D01*
X132724Y145051D01*
X133116D01*
X133477Y145201D01*
X133754Y145478D01*
X133904Y145840D01*
Y146231D01*
X133754Y146593D01*
X133477Y146870D01*
X133116Y147020D01*
D02*
G37*
G36*
X134319Y138979D02*
X133928D01*
X133566Y138830D01*
X133289Y138553D01*
X133139Y138191D01*
Y137799D01*
X133289Y137438D01*
X133566Y137161D01*
X133928Y137011D01*
X134319D01*
X134681Y137161D01*
X134958Y137438D01*
X135108Y137799D01*
Y138191D01*
X134958Y138553D01*
X134681Y138830D01*
X134319Y138979D01*
D02*
G37*
G36*
X98129Y181261D02*
X97737D01*
X97376Y181111D01*
X97099Y180835D01*
X96949Y180473D01*
Y180241D01*
X96886Y180161D01*
X96534Y179889D01*
X96234Y179750D01*
X96121Y179797D01*
X95729D01*
X95708Y179788D01*
X95485Y179878D01*
X94980Y180288D01*
Y180473D01*
X94830Y180835D01*
X94554Y181111D01*
X94192Y181261D01*
X93800D01*
X93439Y181111D01*
X93162Y180835D01*
X93012Y180473D01*
Y180081D01*
X93162Y179719D01*
X93314Y179567D01*
X93174Y178939D01*
X93084Y178768D01*
X92533Y178540D01*
X92090Y178097D01*
X91850Y177518D01*
Y176892D01*
X92090Y176313D01*
X92533Y175870D01*
X93112Y175630D01*
X93739D01*
X94317Y175870D01*
X94760Y176313D01*
X95000Y176892D01*
Y177317D01*
X95484Y177728D01*
X95723Y177831D01*
X95729Y177828D01*
X96121D01*
X96483Y177978D01*
X96760Y178255D01*
X96909Y178617D01*
Y178848D01*
X96972Y178928D01*
X97325Y179200D01*
X97625Y179339D01*
X97737Y179293D01*
X98129D01*
X98491Y179443D01*
X98767Y179719D01*
X98917Y180081D01*
Y180473D01*
X98767Y180835D01*
X98491Y181111D01*
X98129Y181261D01*
D02*
G37*
G36*
X108739Y178779D02*
X108112D01*
X107533Y178540D01*
X107090Y178097D01*
X106850Y177518D01*
Y176892D01*
X107090Y176313D01*
X107533Y175870D01*
X108112Y175630D01*
X108739D01*
X109317Y175870D01*
X109760Y176313D01*
X110000Y176892D01*
Y177518D01*
X109760Y178097D01*
X109317Y178540D01*
X108739Y178779D01*
D02*
G37*
G36*
X103738D02*
X103112D01*
X102533Y178540D01*
X102090Y178097D01*
X101850Y177518D01*
Y176892D01*
X102090Y176313D01*
X102533Y175870D01*
X103112Y175630D01*
X103738D01*
X104317Y175870D01*
X104760Y176313D01*
X105000Y176892D01*
Y177518D01*
X104760Y178097D01*
X104317Y178540D01*
X103738Y178779D01*
D02*
G37*
G36*
X88739D02*
X88112D01*
X87533Y178540D01*
X87090Y178097D01*
X86850Y177518D01*
Y176892D01*
X87090Y176313D01*
X87533Y175870D01*
X88112Y175630D01*
X88739D01*
X89317Y175870D01*
X89760Y176313D01*
X90000Y176892D01*
Y177518D01*
X89760Y178097D01*
X89317Y178540D01*
X88739Y178779D01*
D02*
G37*
G36*
X93995Y174213D02*
X93603D01*
X93242Y174063D01*
X92965Y173786D01*
X92815Y173424D01*
Y173033D01*
X92965Y172671D01*
X93242Y172394D01*
X93603Y172244D01*
X93995D01*
X94357Y172394D01*
X94634Y172671D01*
X94784Y173033D01*
Y173424D01*
X94634Y173786D01*
X94357Y174063D01*
X93995Y174213D01*
D02*
G37*
G36*
X100688Y173632D02*
X100296D01*
X99935Y173482D01*
X99658Y173205D01*
X99508Y172843D01*
Y172452D01*
X99658Y172090D01*
X99935Y171813D01*
X100296Y171663D01*
X100688D01*
X101050Y171813D01*
X101327Y172090D01*
X101476Y172452D01*
Y172843D01*
X101327Y173205D01*
X101050Y173482D01*
X100688Y173632D01*
D02*
G37*
G36*
X108739Y173779D02*
X108112D01*
X107533Y173540D01*
X107090Y173097D01*
X106850Y172518D01*
Y171891D01*
X107090Y171313D01*
X107533Y170870D01*
X108112Y170630D01*
X108739D01*
X109317Y170870D01*
X109760Y171313D01*
X110000Y171891D01*
Y172518D01*
X109760Y173097D01*
X109317Y173540D01*
X108739Y173779D01*
D02*
G37*
G36*
X88739D02*
X88112D01*
X87533Y173540D01*
X87090Y173097D01*
X86850Y172518D01*
Y171891D01*
X87090Y171313D01*
X87533Y170870D01*
X88112Y170630D01*
X88739D01*
X89317Y170870D01*
X89760Y171313D01*
X90000Y171891D01*
Y172518D01*
X89760Y173097D01*
X89317Y173540D01*
X88739Y173779D01*
D02*
G37*
G36*
X108739Y168780D02*
X108112D01*
X107533Y168540D01*
X107090Y168097D01*
X106850Y167518D01*
Y166892D01*
X107090Y166313D01*
X107533Y165870D01*
X108112Y165630D01*
X108739D01*
X109317Y165870D01*
X109760Y166313D01*
X110000Y166892D01*
Y167518D01*
X109760Y168097D01*
X109317Y168540D01*
X108739Y168780D01*
D02*
G37*
G36*
X88739D02*
X88112D01*
X87533Y168540D01*
X87090Y168097D01*
X86850Y167518D01*
Y166892D01*
X87090Y166313D01*
X87533Y165870D01*
X88112Y165630D01*
X88739D01*
X89317Y165870D01*
X89760Y166313D01*
X90000Y166892D01*
Y167518D01*
X89760Y168097D01*
X89317Y168540D01*
X88739Y168780D01*
D02*
G37*
G36*
X98659Y165135D02*
X98268D01*
X97906Y164985D01*
X97629Y164708D01*
X97479Y164347D01*
Y163955D01*
X97629Y163593D01*
X97906Y163316D01*
X98268Y163166D01*
X98659D01*
X99021Y163316D01*
X99298Y163593D01*
X99448Y163955D01*
Y164347D01*
X99298Y164708D01*
X99021Y164985D01*
X98659Y165135D01*
D02*
G37*
G36*
X108739Y163779D02*
X108112D01*
X107533Y163540D01*
X107090Y163097D01*
X106850Y162518D01*
Y161891D01*
X107090Y161313D01*
X107533Y160870D01*
X108112Y160630D01*
X108739D01*
X109317Y160870D01*
X109760Y161313D01*
X110000Y161891D01*
Y162518D01*
X109760Y163097D01*
X109317Y163540D01*
X108739Y163779D01*
D02*
G37*
G36*
X97637Y162402D02*
X97245D01*
X96883Y162252D01*
X96607Y161975D01*
X96457Y161613D01*
Y161222D01*
X96607Y160860D01*
X96883Y160583D01*
X97245Y160433D01*
X97637D01*
X97998Y160583D01*
X98275Y160860D01*
X98425Y161222D01*
Y161613D01*
X98275Y161975D01*
X97998Y162252D01*
X97637Y162402D01*
D02*
G37*
G36*
X86755Y160363D02*
X86363D01*
X86002Y160213D01*
X85725Y159936D01*
X85575Y159574D01*
Y159183D01*
X85725Y158821D01*
X86002Y158544D01*
X86363Y158394D01*
X86755D01*
X87117Y158544D01*
X87394Y158821D01*
X87543Y159183D01*
Y159574D01*
X87394Y159936D01*
X87117Y160213D01*
X86755Y160363D01*
D02*
G37*
G36*
X91353Y159772D02*
X90962D01*
X90600Y159622D01*
X90323Y159345D01*
X90173Y158983D01*
Y158592D01*
X90323Y158230D01*
X90600Y157953D01*
X90962Y157803D01*
X91094Y157641D01*
X91376Y157025D01*
X91301Y156843D01*
Y156452D01*
X91451Y156090D01*
X91727Y155813D01*
X92089Y155663D01*
X92481D01*
X92842Y155813D01*
X93119Y156090D01*
X93269Y156452D01*
Y156843D01*
X93119Y157205D01*
X92842Y157482D01*
X92481Y157632D01*
X92348Y157794D01*
X92066Y158410D01*
X92142Y158592D01*
Y158983D01*
X91992Y159345D01*
X91715Y159622D01*
X91353Y159772D01*
D02*
G37*
G36*
X101736Y154457D02*
X101344D01*
X100983Y154307D01*
X100706Y154031D01*
X100556Y153669D01*
Y153277D01*
X100706Y152916D01*
X100983Y152639D01*
X101344Y152489D01*
X101736D01*
X102098Y152639D01*
X102375Y152916D01*
X102524Y153277D01*
Y153669D01*
X102375Y154031D01*
X102098Y154307D01*
X101736Y154457D01*
D02*
G37*
G36*
X96896Y153304D02*
X96504D01*
X96143Y153155D01*
X95866Y152878D01*
X95716Y152516D01*
Y152124D01*
X95866Y151763D01*
X96143Y151486D01*
X96504Y151336D01*
X96896D01*
X97258Y151486D01*
X97534Y151763D01*
X97684Y152124D01*
Y152516D01*
X97534Y152878D01*
X97258Y153155D01*
X96896Y153304D01*
D02*
G37*
G36*
X88739Y153779D02*
X88112D01*
X87533Y153540D01*
X87090Y153097D01*
X86850Y152518D01*
Y151892D01*
X87090Y151313D01*
X87533Y150870D01*
X88112Y150630D01*
X88739D01*
X89317Y150870D01*
X89760Y151313D01*
X90000Y151892D01*
Y152518D01*
X89760Y153097D01*
X89317Y153540D01*
X88739Y153779D01*
D02*
G37*
G36*
X98565Y150910D02*
X98173D01*
X97811Y150760D01*
X97534Y150483D01*
X97385Y150122D01*
Y149730D01*
X97534Y149368D01*
X97811Y149091D01*
X98173Y148942D01*
X98565D01*
X98926Y149091D01*
X99203Y149368D01*
X99353Y149730D01*
Y150122D01*
X99203Y150483D01*
X98926Y150760D01*
X98565Y150910D01*
D02*
G37*
G36*
X103585Y149641D02*
X103194D01*
X102832Y149492D01*
X102555Y149215D01*
X102405Y148853D01*
Y148461D01*
X102555Y148100D01*
X102832Y147823D01*
X103194Y147673D01*
X103585D01*
X103947Y147823D01*
X104224Y148100D01*
X104374Y148461D01*
Y148853D01*
X104224Y149215D01*
X103947Y149492D01*
X103585Y149641D01*
D02*
G37*
G36*
X108739Y148779D02*
X108112D01*
X107533Y148540D01*
X107090Y148097D01*
X106850Y147518D01*
Y146891D01*
X107090Y146313D01*
X107533Y145870D01*
X108112Y145630D01*
X108739D01*
X109317Y145870D01*
X109760Y146313D01*
X110000Y146891D01*
Y147518D01*
X109760Y148097D01*
X109317Y148540D01*
X108739Y148779D01*
D02*
G37*
G36*
X95714Y147020D02*
X95323D01*
X94961Y146870D01*
X94684Y146593D01*
X94534Y146231D01*
Y145840D01*
X94684Y145478D01*
X94961Y145201D01*
X95323Y145051D01*
X95714D01*
X96076Y145201D01*
X96353Y145478D01*
X96503Y145840D01*
Y146231D01*
X96353Y146593D01*
X96076Y146870D01*
X95714Y147020D01*
D02*
G37*
G36*
X96918Y138979D02*
X96526D01*
X96165Y138830D01*
X95888Y138553D01*
X95738Y138191D01*
Y137799D01*
X95888Y137438D01*
X96165Y137161D01*
X96526Y137011D01*
X96918D01*
X97280Y137161D01*
X97556Y137438D01*
X97706Y137799D01*
Y138191D01*
X97556Y138553D01*
X97280Y138830D01*
X96918Y138979D01*
D02*
G37*
G36*
X60727Y181261D02*
X60336D01*
X59974Y181111D01*
X59697Y180835D01*
X59547Y180473D01*
Y180241D01*
X59484Y180161D01*
X59132Y179889D01*
X58832Y179750D01*
X58719Y179797D01*
X58328D01*
X58306Y179788D01*
X58084Y179878D01*
X57579Y180288D01*
Y180473D01*
X57429Y180835D01*
X57152Y181111D01*
X56790Y181261D01*
X56399D01*
X56037Y181111D01*
X55760Y180835D01*
X55610Y180473D01*
Y180081D01*
X55760Y179719D01*
X55913Y179567D01*
X55772Y178939D01*
X55683Y178768D01*
X55132Y178540D01*
X54689Y178097D01*
X54449Y177518D01*
Y176892D01*
X54689Y176313D01*
X55132Y175870D01*
X55710Y175630D01*
X56337D01*
X56916Y175870D01*
X57359Y176313D01*
X57598Y176892D01*
Y177317D01*
X58083Y177728D01*
X58321Y177831D01*
X58328Y177828D01*
X58719D01*
X59081Y177978D01*
X59358Y178255D01*
X59508Y178617D01*
Y178848D01*
X59571Y178928D01*
X59923Y179200D01*
X60223Y179339D01*
X60336Y179293D01*
X60727D01*
X61089Y179443D01*
X61366Y179719D01*
X61516Y180081D01*
Y180473D01*
X61366Y180835D01*
X61089Y181111D01*
X60727Y181261D01*
D02*
G37*
G36*
X71337Y178779D02*
X70710D01*
X70132Y178540D01*
X69689Y178097D01*
X69449Y177518D01*
Y176892D01*
X69689Y176313D01*
X70132Y175870D01*
X70710Y175630D01*
X71337D01*
X71916Y175870D01*
X72359Y176313D01*
X72598Y176892D01*
Y177518D01*
X72359Y178097D01*
X71916Y178540D01*
X71337Y178779D01*
D02*
G37*
G36*
X66337D02*
X65710D01*
X65132Y178540D01*
X64689Y178097D01*
X64449Y177518D01*
Y176892D01*
X64689Y176313D01*
X65132Y175870D01*
X65710Y175630D01*
X66337D01*
X66916Y175870D01*
X67359Y176313D01*
X67598Y176892D01*
Y177518D01*
X67359Y178097D01*
X66916Y178540D01*
X66337Y178779D01*
D02*
G37*
G36*
X51337D02*
X50710D01*
X50132Y178540D01*
X49689Y178097D01*
X49449Y177518D01*
Y176892D01*
X49689Y176313D01*
X50132Y175870D01*
X50710Y175630D01*
X51337D01*
X51916Y175870D01*
X52359Y176313D01*
X52598Y176892D01*
Y177518D01*
X52359Y178097D01*
X51916Y178540D01*
X51337Y178779D01*
D02*
G37*
G36*
X56593Y174213D02*
X56202D01*
X55840Y174063D01*
X55563Y173786D01*
X55413Y173424D01*
Y173033D01*
X55563Y172671D01*
X55840Y172394D01*
X56202Y172244D01*
X56593D01*
X56955Y172394D01*
X57232Y172671D01*
X57382Y173033D01*
Y173424D01*
X57232Y173786D01*
X56955Y174063D01*
X56593Y174213D01*
D02*
G37*
G36*
X63286Y173632D02*
X62895D01*
X62533Y173482D01*
X62256Y173205D01*
X62106Y172843D01*
Y172452D01*
X62256Y172090D01*
X62533Y171813D01*
X62895Y171663D01*
X63286D01*
X63648Y171813D01*
X63925Y172090D01*
X64075Y172452D01*
Y172843D01*
X63925Y173205D01*
X63648Y173482D01*
X63286Y173632D01*
D02*
G37*
G36*
X71337Y173779D02*
X70710D01*
X70132Y173540D01*
X69689Y173097D01*
X69449Y172518D01*
Y171891D01*
X69689Y171313D01*
X70132Y170870D01*
X70710Y170630D01*
X71337D01*
X71916Y170870D01*
X72359Y171313D01*
X72598Y171891D01*
Y172518D01*
X72359Y173097D01*
X71916Y173540D01*
X71337Y173779D01*
D02*
G37*
G36*
X51337D02*
X50710D01*
X50132Y173540D01*
X49689Y173097D01*
X49449Y172518D01*
Y171891D01*
X49689Y171313D01*
X50132Y170870D01*
X50710Y170630D01*
X51337D01*
X51916Y170870D01*
X52359Y171313D01*
X52598Y171891D01*
Y172518D01*
X52359Y173097D01*
X51916Y173540D01*
X51337Y173779D01*
D02*
G37*
G36*
X71337Y168780D02*
X70710D01*
X70132Y168540D01*
X69689Y168097D01*
X69449Y167518D01*
Y166892D01*
X69689Y166313D01*
X70132Y165870D01*
X70710Y165630D01*
X71337D01*
X71916Y165870D01*
X72359Y166313D01*
X72598Y166892D01*
Y167518D01*
X72359Y168097D01*
X71916Y168540D01*
X71337Y168780D01*
D02*
G37*
G36*
X51337D02*
X50710D01*
X50132Y168540D01*
X49689Y168097D01*
X49449Y167518D01*
Y166892D01*
X49689Y166313D01*
X50132Y165870D01*
X50710Y165630D01*
X51337D01*
X51916Y165870D01*
X52359Y166313D01*
X52598Y166892D01*
Y167518D01*
X52359Y168097D01*
X51916Y168540D01*
X51337Y168780D01*
D02*
G37*
G36*
X61258Y165135D02*
X60866D01*
X60505Y164985D01*
X60228Y164708D01*
X60078Y164347D01*
Y163955D01*
X60228Y163593D01*
X60505Y163316D01*
X60866Y163166D01*
X61258D01*
X61620Y163316D01*
X61897Y163593D01*
X62046Y163955D01*
Y164347D01*
X61897Y164708D01*
X61620Y164985D01*
X61258Y165135D01*
D02*
G37*
G36*
X71337Y163779D02*
X70710D01*
X70132Y163540D01*
X69689Y163097D01*
X69449Y162518D01*
Y161891D01*
X69689Y161313D01*
X70132Y160870D01*
X70710Y160630D01*
X71337D01*
X71916Y160870D01*
X72359Y161313D01*
X72598Y161891D01*
Y162518D01*
X72359Y163097D01*
X71916Y163540D01*
X71337Y163779D01*
D02*
G37*
G36*
X60235Y162402D02*
X59844D01*
X59482Y162252D01*
X59205Y161975D01*
X59055Y161613D01*
Y161222D01*
X59205Y160860D01*
X59482Y160583D01*
X59844Y160433D01*
X60235D01*
X60597Y160583D01*
X60874Y160860D01*
X61024Y161222D01*
Y161613D01*
X60874Y161975D01*
X60597Y162252D01*
X60235Y162402D01*
D02*
G37*
G36*
X49353Y160363D02*
X48962D01*
X48600Y160213D01*
X48323Y159936D01*
X48173Y159574D01*
Y159183D01*
X48323Y158821D01*
X48600Y158544D01*
X48962Y158394D01*
X49353D01*
X49715Y158544D01*
X49992Y158821D01*
X50142Y159183D01*
Y159574D01*
X49992Y159936D01*
X49715Y160213D01*
X49353Y160363D01*
D02*
G37*
G36*
X53952Y159772D02*
X53560D01*
X53198Y159622D01*
X52922Y159345D01*
X52772Y158983D01*
Y158592D01*
X52922Y158230D01*
X53198Y157953D01*
X53560Y157803D01*
X53693Y157641D01*
X53974Y157025D01*
X53899Y156843D01*
Y156452D01*
X54049Y156090D01*
X54326Y155813D01*
X54688Y155663D01*
X55079D01*
X55441Y155813D01*
X55718Y156090D01*
X55868Y156452D01*
Y156843D01*
X55718Y157205D01*
X55441Y157482D01*
X55079Y157632D01*
X54947Y157794D01*
X54665Y158410D01*
X54740Y158592D01*
Y158983D01*
X54590Y159345D01*
X54314Y159622D01*
X53952Y159772D01*
D02*
G37*
G36*
X64334Y154457D02*
X63943D01*
X63581Y154307D01*
X63304Y154031D01*
X63154Y153669D01*
Y153277D01*
X63304Y152916D01*
X63581Y152639D01*
X63943Y152489D01*
X64334D01*
X64696Y152639D01*
X64973Y152916D01*
X65123Y153277D01*
Y153669D01*
X64973Y154031D01*
X64696Y154307D01*
X64334Y154457D01*
D02*
G37*
G36*
X59494Y153304D02*
X59103D01*
X58741Y153155D01*
X58464Y152878D01*
X58314Y152516D01*
Y152124D01*
X58464Y151763D01*
X58741Y151486D01*
X59103Y151336D01*
X59494D01*
X59856Y151486D01*
X60133Y151763D01*
X60283Y152124D01*
Y152516D01*
X60133Y152878D01*
X59856Y153155D01*
X59494Y153304D01*
D02*
G37*
G36*
X51337Y153779D02*
X50710D01*
X50132Y153540D01*
X49689Y153097D01*
X49449Y152518D01*
Y151892D01*
X49689Y151313D01*
X50132Y150870D01*
X50710Y150630D01*
X51337D01*
X51916Y150870D01*
X52359Y151313D01*
X52598Y151892D01*
Y152518D01*
X52359Y153097D01*
X51916Y153540D01*
X51337Y153779D01*
D02*
G37*
G36*
X61163Y150910D02*
X60772D01*
X60410Y150760D01*
X60133Y150483D01*
X59983Y150122D01*
Y149730D01*
X60133Y149368D01*
X60410Y149091D01*
X60772Y148942D01*
X61163D01*
X61525Y149091D01*
X61802Y149368D01*
X61952Y149730D01*
Y150122D01*
X61802Y150483D01*
X61525Y150760D01*
X61163Y150910D01*
D02*
G37*
G36*
X66184Y149641D02*
X65792D01*
X65430Y149492D01*
X65154Y149215D01*
X65004Y148853D01*
Y148461D01*
X65154Y148100D01*
X65430Y147823D01*
X65792Y147673D01*
X66184D01*
X66545Y147823D01*
X66822Y148100D01*
X66972Y148461D01*
Y148853D01*
X66822Y149215D01*
X66545Y149492D01*
X66184Y149641D01*
D02*
G37*
G36*
X71337Y148779D02*
X70710D01*
X70132Y148540D01*
X69689Y148097D01*
X69449Y147518D01*
Y146891D01*
X69689Y146313D01*
X70132Y145870D01*
X70710Y145630D01*
X71337D01*
X71916Y145870D01*
X72359Y146313D01*
X72598Y146891D01*
Y147518D01*
X72359Y148097D01*
X71916Y148540D01*
X71337Y148779D01*
D02*
G37*
G36*
X58312Y147020D02*
X57921D01*
X57559Y146870D01*
X57282Y146593D01*
X57132Y146231D01*
Y145840D01*
X57282Y145478D01*
X57559Y145201D01*
X57921Y145051D01*
X58312D01*
X58674Y145201D01*
X58951Y145478D01*
X59101Y145840D01*
Y146231D01*
X58951Y146593D01*
X58674Y146870D01*
X58312Y147020D01*
D02*
G37*
G36*
X59516Y138979D02*
X59125D01*
X58763Y138830D01*
X58486Y138553D01*
X58336Y138191D01*
Y137799D01*
X58486Y137438D01*
X58763Y137161D01*
X59125Y137011D01*
X59516D01*
X59878Y137161D01*
X60155Y137438D01*
X60305Y137799D01*
Y138191D01*
X60155Y138553D01*
X59878Y138830D01*
X59516Y138979D01*
D02*
G37*
G36*
X23326Y181261D02*
X22934D01*
X22572Y181111D01*
X22295Y180835D01*
X22146Y180473D01*
Y180241D01*
X22083Y180161D01*
X21731Y179889D01*
X21430Y179750D01*
X21318Y179797D01*
X20926D01*
X20905Y179788D01*
X20682Y179878D01*
X20177Y180288D01*
Y180473D01*
X20027Y180835D01*
X19750Y181111D01*
X19389Y181261D01*
X18997D01*
X18635Y181111D01*
X18358Y180835D01*
X18209Y180473D01*
Y180081D01*
X18358Y179719D01*
X18511Y179567D01*
X18371Y178939D01*
X18281Y178768D01*
X17730Y178540D01*
X17287Y178097D01*
X17047Y177518D01*
Y176892D01*
X17287Y176313D01*
X17730Y175870D01*
X18309Y175630D01*
X18935D01*
X19514Y175870D01*
X19957Y176313D01*
X20197Y176892D01*
Y177317D01*
X20681Y177728D01*
X20919Y177831D01*
X20926Y177828D01*
X21318D01*
X21680Y177978D01*
X21957Y178255D01*
X22106Y178617D01*
Y178848D01*
X22169Y178928D01*
X22521Y179200D01*
X22821Y179339D01*
X22934Y179293D01*
X23326D01*
X23687Y179443D01*
X23964Y179719D01*
X24114Y180081D01*
Y180473D01*
X23964Y180835D01*
X23687Y181111D01*
X23326Y181261D01*
D02*
G37*
G36*
X33935Y178779D02*
X33309D01*
X32730Y178540D01*
X32287Y178097D01*
X32047Y177518D01*
Y176892D01*
X32287Y176313D01*
X32730Y175870D01*
X33309Y175630D01*
X33935D01*
X34514Y175870D01*
X34957Y176313D01*
X35197Y176892D01*
Y177518D01*
X34957Y178097D01*
X34514Y178540D01*
X33935Y178779D01*
D02*
G37*
G36*
X28935D02*
X28309D01*
X27730Y178540D01*
X27287Y178097D01*
X27047Y177518D01*
Y176892D01*
X27287Y176313D01*
X27730Y175870D01*
X28309Y175630D01*
X28935D01*
X29514Y175870D01*
X29957Y176313D01*
X30197Y176892D01*
Y177518D01*
X29957Y178097D01*
X29514Y178540D01*
X28935Y178779D01*
D02*
G37*
G36*
X13935D02*
X13309D01*
X12730Y178540D01*
X12287Y178097D01*
X12047Y177518D01*
Y176892D01*
X12287Y176313D01*
X12730Y175870D01*
X13309Y175630D01*
X13935D01*
X14514Y175870D01*
X14957Y176313D01*
X15197Y176892D01*
Y177518D01*
X14957Y178097D01*
X14514Y178540D01*
X13935Y178779D01*
D02*
G37*
G36*
X19192Y174213D02*
X18800D01*
X18439Y174063D01*
X18162Y173786D01*
X18012Y173424D01*
Y173033D01*
X18162Y172671D01*
X18439Y172394D01*
X18800Y172244D01*
X19192D01*
X19554Y172394D01*
X19830Y172671D01*
X19980Y173033D01*
Y173424D01*
X19830Y173786D01*
X19554Y174063D01*
X19192Y174213D01*
D02*
G37*
G36*
X25885Y173632D02*
X25493D01*
X25131Y173482D01*
X24855Y173205D01*
X24705Y172843D01*
Y172452D01*
X24855Y172090D01*
X25131Y171813D01*
X25493Y171663D01*
X25885D01*
X26247Y171813D01*
X26523Y172090D01*
X26673Y172452D01*
Y172843D01*
X26523Y173205D01*
X26247Y173482D01*
X25885Y173632D01*
D02*
G37*
G36*
X33935Y173779D02*
X33309D01*
X32730Y173540D01*
X32287Y173097D01*
X32047Y172518D01*
Y171891D01*
X32287Y171313D01*
X32730Y170870D01*
X33309Y170630D01*
X33935D01*
X34514Y170870D01*
X34957Y171313D01*
X35197Y171891D01*
Y172518D01*
X34957Y173097D01*
X34514Y173540D01*
X33935Y173779D01*
D02*
G37*
G36*
X13935D02*
X13309D01*
X12730Y173540D01*
X12287Y173097D01*
X12047Y172518D01*
Y171891D01*
X12287Y171313D01*
X12730Y170870D01*
X13309Y170630D01*
X13935D01*
X14514Y170870D01*
X14957Y171313D01*
X15197Y171891D01*
Y172518D01*
X14957Y173097D01*
X14514Y173540D01*
X13935Y173779D01*
D02*
G37*
G36*
X33935Y168780D02*
X33309D01*
X32730Y168540D01*
X32287Y168097D01*
X32047Y167518D01*
Y166892D01*
X32287Y166313D01*
X32730Y165870D01*
X33309Y165630D01*
X33935D01*
X34514Y165870D01*
X34957Y166313D01*
X35197Y166892D01*
Y167518D01*
X34957Y168097D01*
X34514Y168540D01*
X33935Y168780D01*
D02*
G37*
G36*
X13935D02*
X13309D01*
X12730Y168540D01*
X12287Y168097D01*
X12047Y167518D01*
Y166892D01*
X12287Y166313D01*
X12730Y165870D01*
X13309Y165630D01*
X13935D01*
X14514Y165870D01*
X14957Y166313D01*
X15197Y166892D01*
Y167518D01*
X14957Y168097D01*
X14514Y168540D01*
X13935Y168780D01*
D02*
G37*
G36*
X23856Y165135D02*
X23465D01*
X23103Y164985D01*
X22826Y164708D01*
X22676Y164347D01*
Y163955D01*
X22826Y163593D01*
X23103Y163316D01*
X23465Y163166D01*
X23856D01*
X24218Y163316D01*
X24495Y163593D01*
X24645Y163955D01*
Y164347D01*
X24495Y164708D01*
X24218Y164985D01*
X23856Y165135D01*
D02*
G37*
G36*
X33935Y163779D02*
X33309D01*
X32730Y163540D01*
X32287Y163097D01*
X32047Y162518D01*
Y161891D01*
X32287Y161313D01*
X32730Y160870D01*
X33309Y160630D01*
X33935D01*
X34514Y160870D01*
X34957Y161313D01*
X35197Y161891D01*
Y162518D01*
X34957Y163097D01*
X34514Y163540D01*
X33935Y163779D01*
D02*
G37*
G36*
X22834Y162402D02*
X22442D01*
X22080Y162252D01*
X21803Y161975D01*
X21654Y161613D01*
Y161222D01*
X21803Y160860D01*
X22080Y160583D01*
X22442Y160433D01*
X22834D01*
X23195Y160583D01*
X23472Y160860D01*
X23622Y161222D01*
Y161613D01*
X23472Y161975D01*
X23195Y162252D01*
X22834Y162402D01*
D02*
G37*
G36*
X11952Y160363D02*
X11560D01*
X11198Y160213D01*
X10922Y159936D01*
X10772Y159574D01*
Y159183D01*
X10922Y158821D01*
X11198Y158544D01*
X11560Y158394D01*
X11952D01*
X12314Y158544D01*
X12591Y158821D01*
X12740Y159183D01*
Y159574D01*
X12591Y159936D01*
X12314Y160213D01*
X11952Y160363D01*
D02*
G37*
G36*
X16550Y159772D02*
X16159D01*
X15797Y159622D01*
X15520Y159345D01*
X15370Y158983D01*
Y158592D01*
X15520Y158230D01*
X15797Y157953D01*
X16159Y157803D01*
X16291Y157641D01*
X16573Y157025D01*
X16498Y156843D01*
Y156452D01*
X16647Y156090D01*
X16924Y155813D01*
X17286Y155663D01*
X17677D01*
X18039Y155813D01*
X18316Y156090D01*
X18466Y156452D01*
Y156843D01*
X18316Y157205D01*
X18039Y157482D01*
X17677Y157632D01*
X17545Y157794D01*
X17263Y158410D01*
X17339Y158592D01*
Y158983D01*
X17189Y159345D01*
X16912Y159622D01*
X16550Y159772D01*
D02*
G37*
G36*
X26933Y154457D02*
X26541D01*
X26180Y154307D01*
X25903Y154031D01*
X25753Y153669D01*
Y153277D01*
X25903Y152916D01*
X26180Y152639D01*
X26541Y152489D01*
X26933D01*
X27295Y152639D01*
X27571Y152916D01*
X27721Y153277D01*
Y153669D01*
X27571Y154031D01*
X27295Y154307D01*
X26933Y154457D01*
D02*
G37*
G36*
X22093Y153304D02*
X21701D01*
X21339Y153155D01*
X21062Y152878D01*
X20913Y152516D01*
Y152124D01*
X21062Y151763D01*
X21339Y151486D01*
X21701Y151336D01*
X22093D01*
X22454Y151486D01*
X22731Y151763D01*
X22881Y152124D01*
Y152516D01*
X22731Y152878D01*
X22454Y153155D01*
X22093Y153304D01*
D02*
G37*
G36*
X13935Y153779D02*
X13309D01*
X12730Y153540D01*
X12287Y153097D01*
X12047Y152518D01*
Y151892D01*
X12287Y151313D01*
X12730Y150870D01*
X13309Y150630D01*
X13935D01*
X14514Y150870D01*
X14957Y151313D01*
X15197Y151892D01*
Y152518D01*
X14957Y153097D01*
X14514Y153540D01*
X13935Y153779D01*
D02*
G37*
G36*
X23761Y150910D02*
X23370D01*
X23008Y150760D01*
X22731Y150483D01*
X22581Y150122D01*
Y149730D01*
X22731Y149368D01*
X23008Y149091D01*
X23370Y148942D01*
X23761D01*
X24123Y149091D01*
X24400Y149368D01*
X24550Y149730D01*
Y150122D01*
X24400Y150483D01*
X24123Y150760D01*
X23761Y150910D01*
D02*
G37*
G36*
X28782Y149641D02*
X28391D01*
X28029Y149492D01*
X27752Y149215D01*
X27602Y148853D01*
Y148461D01*
X27752Y148100D01*
X28029Y147823D01*
X28391Y147673D01*
X28782D01*
X29144Y147823D01*
X29421Y148100D01*
X29571Y148461D01*
Y148853D01*
X29421Y149215D01*
X29144Y149492D01*
X28782Y149641D01*
D02*
G37*
G36*
X33935Y148779D02*
X33309D01*
X32730Y148540D01*
X32287Y148097D01*
X32047Y147518D01*
Y146891D01*
X32287Y146313D01*
X32730Y145870D01*
X33309Y145630D01*
X33935D01*
X34514Y145870D01*
X34957Y146313D01*
X35197Y146891D01*
Y147518D01*
X34957Y148097D01*
X34514Y148540D01*
X33935Y148779D01*
D02*
G37*
G36*
X20911Y147020D02*
X20519D01*
X20158Y146870D01*
X19881Y146593D01*
X19731Y146231D01*
Y145840D01*
X19881Y145478D01*
X20158Y145201D01*
X20519Y145051D01*
X20911D01*
X21273Y145201D01*
X21550Y145478D01*
X21699Y145840D01*
Y146231D01*
X21550Y146593D01*
X21273Y146870D01*
X20911Y147020D01*
D02*
G37*
G36*
X22115Y138979D02*
X21723D01*
X21361Y138830D01*
X21084Y138553D01*
X20935Y138191D01*
Y137799D01*
X21084Y137438D01*
X21361Y137161D01*
X21723Y137011D01*
X22115D01*
X22476Y137161D01*
X22753Y137438D01*
X22903Y137799D01*
Y138191D01*
X22753Y138553D01*
X22476Y138830D01*
X22115Y138979D01*
D02*
G37*
G36*
X172932Y121812D02*
X172540D01*
X172179Y121663D01*
X171902Y121386D01*
X171752Y121024D01*
Y120793D01*
X171689Y120712D01*
X171337Y120440D01*
X171037Y120301D01*
X170924Y120348D01*
X170533D01*
X170511Y120339D01*
X170288Y120429D01*
X169783Y120840D01*
Y121024D01*
X169634Y121386D01*
X169357Y121663D01*
X168995Y121812D01*
X168603D01*
X168242Y121663D01*
X167965Y121386D01*
X167815Y121024D01*
Y120632D01*
X167965Y120271D01*
X168117Y120118D01*
X167977Y119490D01*
X167887Y119319D01*
X167336Y119091D01*
X166893Y118648D01*
X166654Y118069D01*
Y117443D01*
X166893Y116864D01*
X167336Y116421D01*
X167915Y116181D01*
X168542D01*
X169120Y116421D01*
X169563Y116864D01*
X169803Y117443D01*
Y117868D01*
X170287Y118279D01*
X170526Y118382D01*
X170533Y118380D01*
X170924D01*
X171286Y118529D01*
X171563Y118806D01*
X171713Y119168D01*
Y119399D01*
X171775Y119480D01*
X172128Y119752D01*
X172428Y119891D01*
X172540Y119844D01*
X172932D01*
X173294Y119994D01*
X173571Y120271D01*
X173720Y120632D01*
Y121024D01*
X173571Y121386D01*
X173294Y121663D01*
X172932Y121812D01*
D02*
G37*
G36*
X183542Y119331D02*
X182915D01*
X182336Y119091D01*
X181893Y118648D01*
X181654Y118069D01*
Y117443D01*
X181893Y116864D01*
X182336Y116421D01*
X182915Y116181D01*
X183542D01*
X184120Y116421D01*
X184563Y116864D01*
X184803Y117443D01*
Y118069D01*
X184563Y118648D01*
X184120Y119091D01*
X183542Y119331D01*
D02*
G37*
G36*
X178542D02*
X177915D01*
X177336Y119091D01*
X176893Y118648D01*
X176654Y118069D01*
Y117443D01*
X176893Y116864D01*
X177336Y116421D01*
X177915Y116181D01*
X178542D01*
X179120Y116421D01*
X179563Y116864D01*
X179803Y117443D01*
Y118069D01*
X179563Y118648D01*
X179120Y119091D01*
X178542Y119331D01*
D02*
G37*
G36*
X163542D02*
X162915D01*
X162336Y119091D01*
X161893Y118648D01*
X161654Y118069D01*
Y117443D01*
X161893Y116864D01*
X162336Y116421D01*
X162915Y116181D01*
X163542D01*
X164120Y116421D01*
X164563Y116864D01*
X164803Y117443D01*
Y118069D01*
X164563Y118648D01*
X164120Y119091D01*
X163542Y119331D01*
D02*
G37*
G36*
X168798Y114764D02*
X168407D01*
X168045Y114614D01*
X167768Y114337D01*
X167618Y113975D01*
Y113584D01*
X167768Y113222D01*
X168045Y112945D01*
X168407Y112795D01*
X168798D01*
X169160Y112945D01*
X169437Y113222D01*
X169587Y113584D01*
Y113975D01*
X169437Y114337D01*
X169160Y114614D01*
X168798Y114764D01*
D02*
G37*
G36*
X175491Y114183D02*
X175100D01*
X174738Y114033D01*
X174461Y113756D01*
X174311Y113394D01*
Y113003D01*
X174461Y112641D01*
X174738Y112364D01*
X175100Y112214D01*
X175491D01*
X175853Y112364D01*
X176130Y112641D01*
X176279Y113003D01*
Y113394D01*
X176130Y113756D01*
X175853Y114033D01*
X175491Y114183D01*
D02*
G37*
G36*
X183542Y114331D02*
X182915D01*
X182336Y114091D01*
X181893Y113648D01*
X181654Y113069D01*
Y112443D01*
X181893Y111864D01*
X182336Y111421D01*
X182915Y111181D01*
X183542D01*
X184120Y111421D01*
X184563Y111864D01*
X184803Y112443D01*
Y113069D01*
X184563Y113648D01*
X184120Y114091D01*
X183542Y114331D01*
D02*
G37*
G36*
X163542D02*
X162915D01*
X162336Y114091D01*
X161893Y113648D01*
X161654Y113069D01*
Y112443D01*
X161893Y111864D01*
X162336Y111421D01*
X162915Y111181D01*
X163542D01*
X164120Y111421D01*
X164563Y111864D01*
X164803Y112443D01*
Y113069D01*
X164563Y113648D01*
X164120Y114091D01*
X163542Y114331D01*
D02*
G37*
G36*
X183542Y109331D02*
X182915D01*
X182336Y109091D01*
X181893Y108648D01*
X181654Y108069D01*
Y107443D01*
X181893Y106864D01*
X182336Y106421D01*
X182915Y106181D01*
X183542D01*
X184120Y106421D01*
X184563Y106864D01*
X184803Y107443D01*
Y108069D01*
X184563Y108648D01*
X184120Y109091D01*
X183542Y109331D01*
D02*
G37*
G36*
X163542D02*
X162915D01*
X162336Y109091D01*
X161893Y108648D01*
X161654Y108069D01*
Y107443D01*
X161893Y106864D01*
X162336Y106421D01*
X162915Y106181D01*
X163542D01*
X164120Y106421D01*
X164563Y106864D01*
X164803Y107443D01*
Y108069D01*
X164563Y108648D01*
X164120Y109091D01*
X163542Y109331D01*
D02*
G37*
G36*
X173463Y105686D02*
X173071D01*
X172709Y105536D01*
X172432Y105260D01*
X172283Y104898D01*
Y104506D01*
X172432Y104144D01*
X172709Y103868D01*
X173071Y103718D01*
X173463D01*
X173824Y103868D01*
X174101Y104144D01*
X174251Y104506D01*
Y104898D01*
X174101Y105260D01*
X173824Y105536D01*
X173463Y105686D01*
D02*
G37*
G36*
X183542Y104331D02*
X182915D01*
X182336Y104091D01*
X181893Y103648D01*
X181654Y103069D01*
Y102443D01*
X181893Y101864D01*
X182336Y101421D01*
X182915Y101181D01*
X183542D01*
X184120Y101421D01*
X184563Y101864D01*
X184803Y102443D01*
Y103069D01*
X184563Y103648D01*
X184120Y104091D01*
X183542Y104331D01*
D02*
G37*
G36*
X172440Y102953D02*
X172048D01*
X171687Y102803D01*
X171410Y102526D01*
X171260Y102164D01*
Y101773D01*
X171410Y101411D01*
X171687Y101134D01*
X172048Y100984D01*
X172440D01*
X172802Y101134D01*
X173079Y101411D01*
X173228Y101773D01*
Y102164D01*
X173079Y102526D01*
X172802Y102803D01*
X172440Y102953D01*
D02*
G37*
G36*
X161558Y100914D02*
X161167D01*
X160805Y100764D01*
X160528Y100487D01*
X160378Y100126D01*
Y99734D01*
X160528Y99372D01*
X160805Y99095D01*
X161167Y98945D01*
X161558D01*
X161920Y99095D01*
X162197Y99372D01*
X162347Y99734D01*
Y100126D01*
X162197Y100487D01*
X161920Y100764D01*
X161558Y100914D01*
D02*
G37*
G36*
X166157Y100323D02*
X165765D01*
X165403Y100173D01*
X165126Y99896D01*
X164977Y99534D01*
Y99143D01*
X165126Y98781D01*
X165403Y98504D01*
X165765Y98354D01*
X165897Y98192D01*
X166179Y97576D01*
X166104Y97394D01*
Y97003D01*
X166254Y96641D01*
X166531Y96364D01*
X166892Y96214D01*
X167284D01*
X167646Y96364D01*
X167922Y96641D01*
X168072Y97003D01*
Y97394D01*
X167922Y97756D01*
X167646Y98033D01*
X167284Y98183D01*
X167151Y98345D01*
X166870Y98961D01*
X166945Y99143D01*
Y99534D01*
X166795Y99896D01*
X166518Y100173D01*
X166157Y100323D01*
D02*
G37*
G36*
X176539Y95008D02*
X176148D01*
X175786Y94859D01*
X175509Y94582D01*
X175359Y94220D01*
Y93828D01*
X175509Y93467D01*
X175786Y93190D01*
X176148Y93040D01*
X176539D01*
X176901Y93190D01*
X177178Y93467D01*
X177328Y93828D01*
Y94220D01*
X177178Y94582D01*
X176901Y94859D01*
X176539Y95008D01*
D02*
G37*
G36*
X171699Y93856D02*
X171307D01*
X170946Y93706D01*
X170669Y93429D01*
X170519Y93067D01*
Y92676D01*
X170669Y92314D01*
X170946Y92037D01*
X171307Y91887D01*
X171699D01*
X172061Y92037D01*
X172338Y92314D01*
X172487Y92676D01*
Y93067D01*
X172338Y93429D01*
X172061Y93706D01*
X171699Y93856D01*
D02*
G37*
G36*
X163542Y94331D02*
X162915D01*
X162336Y94091D01*
X161893Y93648D01*
X161654Y93069D01*
Y92443D01*
X161893Y91864D01*
X162336Y91421D01*
X162915Y91181D01*
X163542D01*
X164120Y91421D01*
X164563Y91864D01*
X164803Y92443D01*
Y93069D01*
X164563Y93648D01*
X164120Y94091D01*
X163542Y94331D01*
D02*
G37*
G36*
X173368Y91461D02*
X172976D01*
X172614Y91311D01*
X172338Y91035D01*
X172188Y90673D01*
Y90281D01*
X172338Y89920D01*
X172614Y89643D01*
X172976Y89493D01*
X173368D01*
X173730Y89643D01*
X174006Y89920D01*
X174156Y90281D01*
Y90673D01*
X174006Y91035D01*
X173730Y91311D01*
X173368Y91461D01*
D02*
G37*
G36*
X178389Y90193D02*
X177997D01*
X177635Y90043D01*
X177358Y89766D01*
X177208Y89404D01*
Y89012D01*
X177358Y88651D01*
X177635Y88374D01*
X177997Y88224D01*
X178389D01*
X178750Y88374D01*
X179027Y88651D01*
X179177Y89012D01*
Y89404D01*
X179027Y89766D01*
X178750Y90043D01*
X178389Y90193D01*
D02*
G37*
G36*
X183542Y89331D02*
X182915D01*
X182336Y89091D01*
X181893Y88648D01*
X181654Y88069D01*
Y87443D01*
X181893Y86864D01*
X182336Y86421D01*
X182915Y86181D01*
X183542D01*
X184120Y86421D01*
X184563Y86864D01*
X184803Y87443D01*
Y88069D01*
X184563Y88648D01*
X184120Y89091D01*
X183542Y89331D01*
D02*
G37*
G36*
X170517Y87571D02*
X170126D01*
X169764Y87421D01*
X169487Y87144D01*
X169337Y86782D01*
Y86391D01*
X169487Y86029D01*
X169764Y85752D01*
X170126Y85602D01*
X170517D01*
X170879Y85752D01*
X171156Y86029D01*
X171306Y86391D01*
Y86782D01*
X171156Y87144D01*
X170879Y87421D01*
X170517Y87571D01*
D02*
G37*
G36*
X171721Y79531D02*
X171329D01*
X170968Y79381D01*
X170691Y79104D01*
X170541Y78742D01*
Y78351D01*
X170691Y77989D01*
X170968Y77712D01*
X171329Y77562D01*
X171721D01*
X172083Y77712D01*
X172360Y77989D01*
X172509Y78351D01*
Y78742D01*
X172360Y79104D01*
X172083Y79381D01*
X171721Y79531D01*
D02*
G37*
G36*
X135530Y121812D02*
X135139D01*
X134777Y121663D01*
X134500Y121386D01*
X134350Y121024D01*
Y120793D01*
X134288Y120712D01*
X133935Y120440D01*
X133635Y120301D01*
X133523Y120348D01*
X133131D01*
X133109Y120339D01*
X132887Y120429D01*
X132382Y120840D01*
Y121024D01*
X132232Y121386D01*
X131955Y121663D01*
X131593Y121812D01*
X131202D01*
X130840Y121663D01*
X130563Y121386D01*
X130413Y121024D01*
Y120632D01*
X130563Y120271D01*
X130716Y120118D01*
X130576Y119490D01*
X130486Y119319D01*
X129935Y119091D01*
X129492Y118648D01*
X129252Y118069D01*
Y117443D01*
X129492Y116864D01*
X129935Y116421D01*
X130514Y116181D01*
X131140D01*
X131719Y116421D01*
X132162Y116864D01*
X132402Y117443D01*
Y117868D01*
X132886Y118279D01*
X133124Y118382D01*
X133131Y118380D01*
X133523D01*
X133884Y118529D01*
X134161Y118806D01*
X134311Y119168D01*
Y119399D01*
X134374Y119480D01*
X134726Y119752D01*
X135026Y119891D01*
X135139Y119844D01*
X135530D01*
X135892Y119994D01*
X136169Y120271D01*
X136319Y120632D01*
Y121024D01*
X136169Y121386D01*
X135892Y121663D01*
X135530Y121812D01*
D02*
G37*
G36*
X146140Y119331D02*
X145513D01*
X144935Y119091D01*
X144492Y118648D01*
X144252Y118069D01*
Y117443D01*
X144492Y116864D01*
X144935Y116421D01*
X145513Y116181D01*
X146140D01*
X146719Y116421D01*
X147162Y116864D01*
X147402Y117443D01*
Y118069D01*
X147162Y118648D01*
X146719Y119091D01*
X146140Y119331D01*
D02*
G37*
G36*
X141140D02*
X140514D01*
X139935Y119091D01*
X139492Y118648D01*
X139252Y118069D01*
Y117443D01*
X139492Y116864D01*
X139935Y116421D01*
X140514Y116181D01*
X141140D01*
X141719Y116421D01*
X142162Y116864D01*
X142402Y117443D01*
Y118069D01*
X142162Y118648D01*
X141719Y119091D01*
X141140Y119331D01*
D02*
G37*
G36*
X126140D02*
X125514D01*
X124935Y119091D01*
X124492Y118648D01*
X124252Y118069D01*
Y117443D01*
X124492Y116864D01*
X124935Y116421D01*
X125514Y116181D01*
X126140D01*
X126719Y116421D01*
X127162Y116864D01*
X127402Y117443D01*
Y118069D01*
X127162Y118648D01*
X126719Y119091D01*
X126140Y119331D01*
D02*
G37*
G36*
X131397Y114764D02*
X131005D01*
X130643Y114614D01*
X130366Y114337D01*
X130217Y113975D01*
Y113584D01*
X130366Y113222D01*
X130643Y112945D01*
X131005Y112795D01*
X131397D01*
X131758Y112945D01*
X132035Y113222D01*
X132185Y113584D01*
Y113975D01*
X132035Y114337D01*
X131758Y114614D01*
X131397Y114764D01*
D02*
G37*
G36*
X138090Y114183D02*
X137698D01*
X137336Y114033D01*
X137059Y113756D01*
X136909Y113394D01*
Y113003D01*
X137059Y112641D01*
X137336Y112364D01*
X137698Y112214D01*
X138090D01*
X138451Y112364D01*
X138728Y112641D01*
X138878Y113003D01*
Y113394D01*
X138728Y113756D01*
X138451Y114033D01*
X138090Y114183D01*
D02*
G37*
G36*
X146140Y114331D02*
X145513D01*
X144935Y114091D01*
X144492Y113648D01*
X144252Y113069D01*
Y112443D01*
X144492Y111864D01*
X144935Y111421D01*
X145513Y111181D01*
X146140D01*
X146719Y111421D01*
X147162Y111864D01*
X147402Y112443D01*
Y113069D01*
X147162Y113648D01*
X146719Y114091D01*
X146140Y114331D01*
D02*
G37*
G36*
X126140D02*
X125514D01*
X124935Y114091D01*
X124492Y113648D01*
X124252Y113069D01*
Y112443D01*
X124492Y111864D01*
X124935Y111421D01*
X125514Y111181D01*
X126140D01*
X126719Y111421D01*
X127162Y111864D01*
X127402Y112443D01*
Y113069D01*
X127162Y113648D01*
X126719Y114091D01*
X126140Y114331D01*
D02*
G37*
G36*
X146140Y109331D02*
X145513D01*
X144935Y109091D01*
X144492Y108648D01*
X144252Y108069D01*
Y107443D01*
X144492Y106864D01*
X144935Y106421D01*
X145513Y106181D01*
X146140D01*
X146719Y106421D01*
X147162Y106864D01*
X147402Y107443D01*
Y108069D01*
X147162Y108648D01*
X146719Y109091D01*
X146140Y109331D01*
D02*
G37*
G36*
X126140D02*
X125514D01*
X124935Y109091D01*
X124492Y108648D01*
X124252Y108069D01*
Y107443D01*
X124492Y106864D01*
X124935Y106421D01*
X125514Y106181D01*
X126140D01*
X126719Y106421D01*
X127162Y106864D01*
X127402Y107443D01*
Y108069D01*
X127162Y108648D01*
X126719Y109091D01*
X126140Y109331D01*
D02*
G37*
G36*
X136061Y105686D02*
X135670D01*
X135308Y105536D01*
X135031Y105260D01*
X134881Y104898D01*
Y104506D01*
X135031Y104144D01*
X135308Y103868D01*
X135670Y103718D01*
X136061D01*
X136423Y103868D01*
X136700Y104144D01*
X136850Y104506D01*
Y104898D01*
X136700Y105260D01*
X136423Y105536D01*
X136061Y105686D01*
D02*
G37*
G36*
X146140Y104331D02*
X145513D01*
X144935Y104091D01*
X144492Y103648D01*
X144252Y103069D01*
Y102443D01*
X144492Y101864D01*
X144935Y101421D01*
X145513Y101181D01*
X146140D01*
X146719Y101421D01*
X147162Y101864D01*
X147402Y102443D01*
Y103069D01*
X147162Y103648D01*
X146719Y104091D01*
X146140Y104331D01*
D02*
G37*
G36*
X135038Y102953D02*
X134647D01*
X134285Y102803D01*
X134008Y102526D01*
X133858Y102164D01*
Y101773D01*
X134008Y101411D01*
X134285Y101134D01*
X134647Y100984D01*
X135038D01*
X135400Y101134D01*
X135677Y101411D01*
X135827Y101773D01*
Y102164D01*
X135677Y102526D01*
X135400Y102803D01*
X135038Y102953D01*
D02*
G37*
G36*
X124157Y100914D02*
X123765D01*
X123403Y100764D01*
X123126Y100487D01*
X122977Y100126D01*
Y99734D01*
X123126Y99372D01*
X123403Y99095D01*
X123765Y98945D01*
X124157D01*
X124518Y99095D01*
X124795Y99372D01*
X124945Y99734D01*
Y100126D01*
X124795Y100487D01*
X124518Y100764D01*
X124157Y100914D01*
D02*
G37*
G36*
X128755Y100323D02*
X128363D01*
X128002Y100173D01*
X127725Y99896D01*
X127575Y99534D01*
Y99143D01*
X127725Y98781D01*
X128002Y98504D01*
X128363Y98354D01*
X128496Y98192D01*
X128778Y97576D01*
X128702Y97394D01*
Y97003D01*
X128852Y96641D01*
X129129Y96364D01*
X129491Y96214D01*
X129882D01*
X130244Y96364D01*
X130521Y96641D01*
X130671Y97003D01*
Y97394D01*
X130521Y97756D01*
X130244Y98033D01*
X129882Y98183D01*
X129750Y98345D01*
X129468Y98961D01*
X129543Y99143D01*
Y99534D01*
X129394Y99896D01*
X129117Y100173D01*
X128755Y100323D01*
D02*
G37*
G36*
X139138Y95008D02*
X138746D01*
X138384Y94859D01*
X138107Y94582D01*
X137958Y94220D01*
Y93828D01*
X138107Y93467D01*
X138384Y93190D01*
X138746Y93040D01*
X139138D01*
X139499Y93190D01*
X139776Y93467D01*
X139926Y93828D01*
Y94220D01*
X139776Y94582D01*
X139499Y94859D01*
X139138Y95008D01*
D02*
G37*
G36*
X134297Y93856D02*
X133906D01*
X133544Y93706D01*
X133267Y93429D01*
X133117Y93067D01*
Y92676D01*
X133267Y92314D01*
X133544Y92037D01*
X133906Y91887D01*
X134297D01*
X134659Y92037D01*
X134936Y92314D01*
X135086Y92676D01*
Y93067D01*
X134936Y93429D01*
X134659Y93706D01*
X134297Y93856D01*
D02*
G37*
G36*
X126140Y94331D02*
X125514D01*
X124935Y94091D01*
X124492Y93648D01*
X124252Y93069D01*
Y92443D01*
X124492Y91864D01*
X124935Y91421D01*
X125514Y91181D01*
X126140D01*
X126719Y91421D01*
X127162Y91864D01*
X127402Y92443D01*
Y93069D01*
X127162Y93648D01*
X126719Y94091D01*
X126140Y94331D01*
D02*
G37*
G36*
X135966Y91461D02*
X135575D01*
X135213Y91311D01*
X134936Y91035D01*
X134786Y90673D01*
Y90281D01*
X134936Y89920D01*
X135213Y89643D01*
X135575Y89493D01*
X135966D01*
X136328Y89643D01*
X136605Y89920D01*
X136755Y90281D01*
Y90673D01*
X136605Y91035D01*
X136328Y91311D01*
X135966Y91461D01*
D02*
G37*
G36*
X140987Y90193D02*
X140595D01*
X140234Y90043D01*
X139957Y89766D01*
X139807Y89404D01*
Y89012D01*
X139957Y88651D01*
X140234Y88374D01*
X140595Y88224D01*
X140987D01*
X141349Y88374D01*
X141625Y88651D01*
X141775Y89012D01*
Y89404D01*
X141625Y89766D01*
X141349Y90043D01*
X140987Y90193D01*
D02*
G37*
G36*
X146140Y89331D02*
X145513D01*
X144935Y89091D01*
X144492Y88648D01*
X144252Y88069D01*
Y87443D01*
X144492Y86864D01*
X144935Y86421D01*
X145513Y86181D01*
X146140D01*
X146719Y86421D01*
X147162Y86864D01*
X147402Y87443D01*
Y88069D01*
X147162Y88648D01*
X146719Y89091D01*
X146140Y89331D01*
D02*
G37*
G36*
X133116Y87571D02*
X132724D01*
X132362Y87421D01*
X132085Y87144D01*
X131936Y86782D01*
Y86391D01*
X132085Y86029D01*
X132362Y85752D01*
X132724Y85602D01*
X133116D01*
X133477Y85752D01*
X133754Y86029D01*
X133904Y86391D01*
Y86782D01*
X133754Y87144D01*
X133477Y87421D01*
X133116Y87571D01*
D02*
G37*
G36*
X134319Y79531D02*
X133928D01*
X133566Y79381D01*
X133289Y79104D01*
X133139Y78742D01*
Y78351D01*
X133289Y77989D01*
X133566Y77712D01*
X133928Y77562D01*
X134319D01*
X134681Y77712D01*
X134958Y77989D01*
X135108Y78351D01*
Y78742D01*
X134958Y79104D01*
X134681Y79381D01*
X134319Y79531D01*
D02*
G37*
G36*
X98129Y121812D02*
X97737D01*
X97376Y121663D01*
X97099Y121386D01*
X96949Y121024D01*
Y120793D01*
X96886Y120712D01*
X96534Y120440D01*
X96234Y120301D01*
X96121Y120348D01*
X95729D01*
X95708Y120339D01*
X95485Y120429D01*
X94980Y120840D01*
Y121024D01*
X94830Y121386D01*
X94554Y121663D01*
X94192Y121812D01*
X93800D01*
X93439Y121663D01*
X93162Y121386D01*
X93012Y121024D01*
Y120632D01*
X93162Y120271D01*
X93314Y120118D01*
X93174Y119490D01*
X93084Y119319D01*
X92533Y119091D01*
X92090Y118648D01*
X91850Y118069D01*
Y117443D01*
X92090Y116864D01*
X92533Y116421D01*
X93112Y116181D01*
X93739D01*
X94317Y116421D01*
X94760Y116864D01*
X95000Y117443D01*
Y117868D01*
X95484Y118279D01*
X95723Y118382D01*
X95729Y118380D01*
X96121D01*
X96483Y118529D01*
X96760Y118806D01*
X96909Y119168D01*
Y119399D01*
X96972Y119480D01*
X97325Y119752D01*
X97625Y119891D01*
X97737Y119844D01*
X98129D01*
X98491Y119994D01*
X98767Y120271D01*
X98917Y120632D01*
Y121024D01*
X98767Y121386D01*
X98491Y121663D01*
X98129Y121812D01*
D02*
G37*
G36*
X108739Y119331D02*
X108112D01*
X107533Y119091D01*
X107090Y118648D01*
X106850Y118069D01*
Y117443D01*
X107090Y116864D01*
X107533Y116421D01*
X108112Y116181D01*
X108739D01*
X109317Y116421D01*
X109760Y116864D01*
X110000Y117443D01*
Y118069D01*
X109760Y118648D01*
X109317Y119091D01*
X108739Y119331D01*
D02*
G37*
G36*
X103738D02*
X103112D01*
X102533Y119091D01*
X102090Y118648D01*
X101850Y118069D01*
Y117443D01*
X102090Y116864D01*
X102533Y116421D01*
X103112Y116181D01*
X103738D01*
X104317Y116421D01*
X104760Y116864D01*
X105000Y117443D01*
Y118069D01*
X104760Y118648D01*
X104317Y119091D01*
X103738Y119331D01*
D02*
G37*
G36*
X88739D02*
X88112D01*
X87533Y119091D01*
X87090Y118648D01*
X86850Y118069D01*
Y117443D01*
X87090Y116864D01*
X87533Y116421D01*
X88112Y116181D01*
X88739D01*
X89317Y116421D01*
X89760Y116864D01*
X90000Y117443D01*
Y118069D01*
X89760Y118648D01*
X89317Y119091D01*
X88739Y119331D01*
D02*
G37*
G36*
X93995Y114764D02*
X93603D01*
X93242Y114614D01*
X92965Y114337D01*
X92815Y113975D01*
Y113584D01*
X92965Y113222D01*
X93242Y112945D01*
X93603Y112795D01*
X93995D01*
X94357Y112945D01*
X94634Y113222D01*
X94784Y113584D01*
Y113975D01*
X94634Y114337D01*
X94357Y114614D01*
X93995Y114764D01*
D02*
G37*
G36*
X100688Y114183D02*
X100296D01*
X99935Y114033D01*
X99658Y113756D01*
X99508Y113394D01*
Y113003D01*
X99658Y112641D01*
X99935Y112364D01*
X100296Y112214D01*
X100688D01*
X101050Y112364D01*
X101327Y112641D01*
X101476Y113003D01*
Y113394D01*
X101327Y113756D01*
X101050Y114033D01*
X100688Y114183D01*
D02*
G37*
G36*
X108739Y114331D02*
X108112D01*
X107533Y114091D01*
X107090Y113648D01*
X106850Y113069D01*
Y112443D01*
X107090Y111864D01*
X107533Y111421D01*
X108112Y111181D01*
X108739D01*
X109317Y111421D01*
X109760Y111864D01*
X110000Y112443D01*
Y113069D01*
X109760Y113648D01*
X109317Y114091D01*
X108739Y114331D01*
D02*
G37*
G36*
X88739D02*
X88112D01*
X87533Y114091D01*
X87090Y113648D01*
X86850Y113069D01*
Y112443D01*
X87090Y111864D01*
X87533Y111421D01*
X88112Y111181D01*
X88739D01*
X89317Y111421D01*
X89760Y111864D01*
X90000Y112443D01*
Y113069D01*
X89760Y113648D01*
X89317Y114091D01*
X88739Y114331D01*
D02*
G37*
G36*
X108739Y109331D02*
X108112D01*
X107533Y109091D01*
X107090Y108648D01*
X106850Y108069D01*
Y107443D01*
X107090Y106864D01*
X107533Y106421D01*
X108112Y106181D01*
X108739D01*
X109317Y106421D01*
X109760Y106864D01*
X110000Y107443D01*
Y108069D01*
X109760Y108648D01*
X109317Y109091D01*
X108739Y109331D01*
D02*
G37*
G36*
X88739D02*
X88112D01*
X87533Y109091D01*
X87090Y108648D01*
X86850Y108069D01*
Y107443D01*
X87090Y106864D01*
X87533Y106421D01*
X88112Y106181D01*
X88739D01*
X89317Y106421D01*
X89760Y106864D01*
X90000Y107443D01*
Y108069D01*
X89760Y108648D01*
X89317Y109091D01*
X88739Y109331D01*
D02*
G37*
G36*
X98659Y105686D02*
X98268D01*
X97906Y105536D01*
X97629Y105260D01*
X97479Y104898D01*
Y104506D01*
X97629Y104144D01*
X97906Y103868D01*
X98268Y103718D01*
X98659D01*
X99021Y103868D01*
X99298Y104144D01*
X99448Y104506D01*
Y104898D01*
X99298Y105260D01*
X99021Y105536D01*
X98659Y105686D01*
D02*
G37*
G36*
X108739Y104331D02*
X108112D01*
X107533Y104091D01*
X107090Y103648D01*
X106850Y103069D01*
Y102443D01*
X107090Y101864D01*
X107533Y101421D01*
X108112Y101181D01*
X108739D01*
X109317Y101421D01*
X109760Y101864D01*
X110000Y102443D01*
Y103069D01*
X109760Y103648D01*
X109317Y104091D01*
X108739Y104331D01*
D02*
G37*
G36*
X97637Y102953D02*
X97245D01*
X96883Y102803D01*
X96607Y102526D01*
X96457Y102164D01*
Y101773D01*
X96607Y101411D01*
X96883Y101134D01*
X97245Y100984D01*
X97637D01*
X97998Y101134D01*
X98275Y101411D01*
X98425Y101773D01*
Y102164D01*
X98275Y102526D01*
X97998Y102803D01*
X97637Y102953D01*
D02*
G37*
G36*
X86755Y100914D02*
X86363D01*
X86002Y100764D01*
X85725Y100487D01*
X85575Y100126D01*
Y99734D01*
X85725Y99372D01*
X86002Y99095D01*
X86363Y98945D01*
X86755D01*
X87117Y99095D01*
X87394Y99372D01*
X87543Y99734D01*
Y100126D01*
X87394Y100487D01*
X87117Y100764D01*
X86755Y100914D01*
D02*
G37*
G36*
X91353Y100323D02*
X90962D01*
X90600Y100173D01*
X90323Y99896D01*
X90173Y99534D01*
Y99143D01*
X90323Y98781D01*
X90600Y98504D01*
X90962Y98354D01*
X91094Y98192D01*
X91376Y97576D01*
X91301Y97394D01*
Y97003D01*
X91451Y96641D01*
X91727Y96364D01*
X92089Y96214D01*
X92481D01*
X92842Y96364D01*
X93119Y96641D01*
X93269Y97003D01*
Y97394D01*
X93119Y97756D01*
X92842Y98033D01*
X92481Y98183D01*
X92348Y98345D01*
X92066Y98961D01*
X92142Y99143D01*
Y99534D01*
X91992Y99896D01*
X91715Y100173D01*
X91353Y100323D01*
D02*
G37*
G36*
X101736Y95008D02*
X101344D01*
X100983Y94859D01*
X100706Y94582D01*
X100556Y94220D01*
Y93828D01*
X100706Y93467D01*
X100983Y93190D01*
X101344Y93040D01*
X101736D01*
X102098Y93190D01*
X102375Y93467D01*
X102524Y93828D01*
Y94220D01*
X102375Y94582D01*
X102098Y94859D01*
X101736Y95008D01*
D02*
G37*
G36*
X96896Y93856D02*
X96504D01*
X96143Y93706D01*
X95866Y93429D01*
X95716Y93067D01*
Y92676D01*
X95866Y92314D01*
X96143Y92037D01*
X96504Y91887D01*
X96896D01*
X97258Y92037D01*
X97534Y92314D01*
X97684Y92676D01*
Y93067D01*
X97534Y93429D01*
X97258Y93706D01*
X96896Y93856D01*
D02*
G37*
G36*
X88739Y94331D02*
X88112D01*
X87533Y94091D01*
X87090Y93648D01*
X86850Y93069D01*
Y92443D01*
X87090Y91864D01*
X87533Y91421D01*
X88112Y91181D01*
X88739D01*
X89317Y91421D01*
X89760Y91864D01*
X90000Y92443D01*
Y93069D01*
X89760Y93648D01*
X89317Y94091D01*
X88739Y94331D01*
D02*
G37*
G36*
X98565Y91461D02*
X98173D01*
X97811Y91311D01*
X97534Y91035D01*
X97385Y90673D01*
Y90281D01*
X97534Y89920D01*
X97811Y89643D01*
X98173Y89493D01*
X98565D01*
X98926Y89643D01*
X99203Y89920D01*
X99353Y90281D01*
Y90673D01*
X99203Y91035D01*
X98926Y91311D01*
X98565Y91461D01*
D02*
G37*
G36*
X103585Y90193D02*
X103194D01*
X102832Y90043D01*
X102555Y89766D01*
X102405Y89404D01*
Y89012D01*
X102555Y88651D01*
X102832Y88374D01*
X103194Y88224D01*
X103585D01*
X103947Y88374D01*
X104224Y88651D01*
X104374Y89012D01*
Y89404D01*
X104224Y89766D01*
X103947Y90043D01*
X103585Y90193D01*
D02*
G37*
G36*
X108739Y89331D02*
X108112D01*
X107533Y89091D01*
X107090Y88648D01*
X106850Y88069D01*
Y87443D01*
X107090Y86864D01*
X107533Y86421D01*
X108112Y86181D01*
X108739D01*
X109317Y86421D01*
X109760Y86864D01*
X110000Y87443D01*
Y88069D01*
X109760Y88648D01*
X109317Y89091D01*
X108739Y89331D01*
D02*
G37*
G36*
X95714Y87571D02*
X95323D01*
X94961Y87421D01*
X94684Y87144D01*
X94534Y86782D01*
Y86391D01*
X94684Y86029D01*
X94961Y85752D01*
X95323Y85602D01*
X95714D01*
X96076Y85752D01*
X96353Y86029D01*
X96503Y86391D01*
Y86782D01*
X96353Y87144D01*
X96076Y87421D01*
X95714Y87571D01*
D02*
G37*
G36*
X96918Y79531D02*
X96526D01*
X96165Y79381D01*
X95888Y79104D01*
X95738Y78742D01*
Y78351D01*
X95888Y77989D01*
X96165Y77712D01*
X96526Y77562D01*
X96918D01*
X97280Y77712D01*
X97556Y77989D01*
X97706Y78351D01*
Y78742D01*
X97556Y79104D01*
X97280Y79381D01*
X96918Y79531D01*
D02*
G37*
G36*
X60727Y121812D02*
X60336D01*
X59974Y121663D01*
X59697Y121386D01*
X59547Y121024D01*
Y120793D01*
X59484Y120712D01*
X59132Y120440D01*
X58832Y120301D01*
X58719Y120348D01*
X58328D01*
X58306Y120339D01*
X58084Y120429D01*
X57579Y120840D01*
Y121024D01*
X57429Y121386D01*
X57152Y121663D01*
X56790Y121812D01*
X56399D01*
X56037Y121663D01*
X55760Y121386D01*
X55610Y121024D01*
Y120632D01*
X55760Y120271D01*
X55913Y120118D01*
X55772Y119490D01*
X55683Y119319D01*
X55132Y119091D01*
X54689Y118648D01*
X54449Y118069D01*
Y117443D01*
X54689Y116864D01*
X55132Y116421D01*
X55710Y116181D01*
X56337D01*
X56916Y116421D01*
X57359Y116864D01*
X57598Y117443D01*
Y117868D01*
X58083Y118279D01*
X58321Y118382D01*
X58328Y118380D01*
X58719D01*
X59081Y118529D01*
X59358Y118806D01*
X59508Y119168D01*
Y119399D01*
X59571Y119480D01*
X59923Y119752D01*
X60223Y119891D01*
X60336Y119844D01*
X60727D01*
X61089Y119994D01*
X61366Y120271D01*
X61516Y120632D01*
Y121024D01*
X61366Y121386D01*
X61089Y121663D01*
X60727Y121812D01*
D02*
G37*
G36*
X71337Y119331D02*
X70710D01*
X70132Y119091D01*
X69689Y118648D01*
X69449Y118069D01*
Y117443D01*
X69689Y116864D01*
X70132Y116421D01*
X70710Y116181D01*
X71337D01*
X71916Y116421D01*
X72359Y116864D01*
X72598Y117443D01*
Y118069D01*
X72359Y118648D01*
X71916Y119091D01*
X71337Y119331D01*
D02*
G37*
G36*
X66337D02*
X65710D01*
X65132Y119091D01*
X64689Y118648D01*
X64449Y118069D01*
Y117443D01*
X64689Y116864D01*
X65132Y116421D01*
X65710Y116181D01*
X66337D01*
X66916Y116421D01*
X67359Y116864D01*
X67598Y117443D01*
Y118069D01*
X67359Y118648D01*
X66916Y119091D01*
X66337Y119331D01*
D02*
G37*
G36*
X51337D02*
X50710D01*
X50132Y119091D01*
X49689Y118648D01*
X49449Y118069D01*
Y117443D01*
X49689Y116864D01*
X50132Y116421D01*
X50710Y116181D01*
X51337D01*
X51916Y116421D01*
X52359Y116864D01*
X52598Y117443D01*
Y118069D01*
X52359Y118648D01*
X51916Y119091D01*
X51337Y119331D01*
D02*
G37*
G36*
X56593Y114764D02*
X56202D01*
X55840Y114614D01*
X55563Y114337D01*
X55413Y113975D01*
Y113584D01*
X55563Y113222D01*
X55840Y112945D01*
X56202Y112795D01*
X56593D01*
X56955Y112945D01*
X57232Y113222D01*
X57382Y113584D01*
Y113975D01*
X57232Y114337D01*
X56955Y114614D01*
X56593Y114764D01*
D02*
G37*
G36*
X63286Y114183D02*
X62895D01*
X62533Y114033D01*
X62256Y113756D01*
X62106Y113394D01*
Y113003D01*
X62256Y112641D01*
X62533Y112364D01*
X62895Y112214D01*
X63286D01*
X63648Y112364D01*
X63925Y112641D01*
X64075Y113003D01*
Y113394D01*
X63925Y113756D01*
X63648Y114033D01*
X63286Y114183D01*
D02*
G37*
G36*
X71337Y114331D02*
X70710D01*
X70132Y114091D01*
X69689Y113648D01*
X69449Y113069D01*
Y112443D01*
X69689Y111864D01*
X70132Y111421D01*
X70710Y111181D01*
X71337D01*
X71916Y111421D01*
X72359Y111864D01*
X72598Y112443D01*
Y113069D01*
X72359Y113648D01*
X71916Y114091D01*
X71337Y114331D01*
D02*
G37*
G36*
X51337D02*
X50710D01*
X50132Y114091D01*
X49689Y113648D01*
X49449Y113069D01*
Y112443D01*
X49689Y111864D01*
X50132Y111421D01*
X50710Y111181D01*
X51337D01*
X51916Y111421D01*
X52359Y111864D01*
X52598Y112443D01*
Y113069D01*
X52359Y113648D01*
X51916Y114091D01*
X51337Y114331D01*
D02*
G37*
G36*
X71337Y109331D02*
X70710D01*
X70132Y109091D01*
X69689Y108648D01*
X69449Y108069D01*
Y107443D01*
X69689Y106864D01*
X70132Y106421D01*
X70710Y106181D01*
X71337D01*
X71916Y106421D01*
X72359Y106864D01*
X72598Y107443D01*
Y108069D01*
X72359Y108648D01*
X71916Y109091D01*
X71337Y109331D01*
D02*
G37*
G36*
X51337D02*
X50710D01*
X50132Y109091D01*
X49689Y108648D01*
X49449Y108069D01*
Y107443D01*
X49689Y106864D01*
X50132Y106421D01*
X50710Y106181D01*
X51337D01*
X51916Y106421D01*
X52359Y106864D01*
X52598Y107443D01*
Y108069D01*
X52359Y108648D01*
X51916Y109091D01*
X51337Y109331D01*
D02*
G37*
G36*
X61258Y105686D02*
X60866D01*
X60505Y105536D01*
X60228Y105260D01*
X60078Y104898D01*
Y104506D01*
X60228Y104144D01*
X60505Y103868D01*
X60866Y103718D01*
X61258D01*
X61620Y103868D01*
X61897Y104144D01*
X62046Y104506D01*
Y104898D01*
X61897Y105260D01*
X61620Y105536D01*
X61258Y105686D01*
D02*
G37*
G36*
X71337Y104331D02*
X70710D01*
X70132Y104091D01*
X69689Y103648D01*
X69449Y103069D01*
Y102443D01*
X69689Y101864D01*
X70132Y101421D01*
X70710Y101181D01*
X71337D01*
X71916Y101421D01*
X72359Y101864D01*
X72598Y102443D01*
Y103069D01*
X72359Y103648D01*
X71916Y104091D01*
X71337Y104331D01*
D02*
G37*
G36*
X60235Y102953D02*
X59844D01*
X59482Y102803D01*
X59205Y102526D01*
X59055Y102164D01*
Y101773D01*
X59205Y101411D01*
X59482Y101134D01*
X59844Y100984D01*
X60235D01*
X60597Y101134D01*
X60874Y101411D01*
X61024Y101773D01*
Y102164D01*
X60874Y102526D01*
X60597Y102803D01*
X60235Y102953D01*
D02*
G37*
G36*
X49353Y100914D02*
X48962D01*
X48600Y100764D01*
X48323Y100487D01*
X48173Y100126D01*
Y99734D01*
X48323Y99372D01*
X48600Y99095D01*
X48962Y98945D01*
X49353D01*
X49715Y99095D01*
X49992Y99372D01*
X50142Y99734D01*
Y100126D01*
X49992Y100487D01*
X49715Y100764D01*
X49353Y100914D01*
D02*
G37*
G36*
X53952Y100323D02*
X53560D01*
X53198Y100173D01*
X52922Y99896D01*
X52772Y99534D01*
Y99143D01*
X52922Y98781D01*
X53198Y98504D01*
X53560Y98354D01*
X53693Y98192D01*
X53974Y97576D01*
X53899Y97394D01*
Y97003D01*
X54049Y96641D01*
X54326Y96364D01*
X54688Y96214D01*
X55079D01*
X55441Y96364D01*
X55718Y96641D01*
X55868Y97003D01*
Y97394D01*
X55718Y97756D01*
X55441Y98033D01*
X55079Y98183D01*
X54947Y98345D01*
X54665Y98961D01*
X54740Y99143D01*
Y99534D01*
X54590Y99896D01*
X54314Y100173D01*
X53952Y100323D01*
D02*
G37*
G36*
X64334Y95008D02*
X63943D01*
X63581Y94859D01*
X63304Y94582D01*
X63154Y94220D01*
Y93828D01*
X63304Y93467D01*
X63581Y93190D01*
X63943Y93040D01*
X64334D01*
X64696Y93190D01*
X64973Y93467D01*
X65123Y93828D01*
Y94220D01*
X64973Y94582D01*
X64696Y94859D01*
X64334Y95008D01*
D02*
G37*
G36*
X59494Y93856D02*
X59103D01*
X58741Y93706D01*
X58464Y93429D01*
X58314Y93067D01*
Y92676D01*
X58464Y92314D01*
X58741Y92037D01*
X59103Y91887D01*
X59494D01*
X59856Y92037D01*
X60133Y92314D01*
X60283Y92676D01*
Y93067D01*
X60133Y93429D01*
X59856Y93706D01*
X59494Y93856D01*
D02*
G37*
G36*
X51337Y94331D02*
X50710D01*
X50132Y94091D01*
X49689Y93648D01*
X49449Y93069D01*
Y92443D01*
X49689Y91864D01*
X50132Y91421D01*
X50710Y91181D01*
X51337D01*
X51916Y91421D01*
X52359Y91864D01*
X52598Y92443D01*
Y93069D01*
X52359Y93648D01*
X51916Y94091D01*
X51337Y94331D01*
D02*
G37*
G36*
X61163Y91461D02*
X60772D01*
X60410Y91311D01*
X60133Y91035D01*
X59983Y90673D01*
Y90281D01*
X60133Y89920D01*
X60410Y89643D01*
X60772Y89493D01*
X61163D01*
X61525Y89643D01*
X61802Y89920D01*
X61952Y90281D01*
Y90673D01*
X61802Y91035D01*
X61525Y91311D01*
X61163Y91461D01*
D02*
G37*
G36*
X66184Y90193D02*
X65792D01*
X65430Y90043D01*
X65154Y89766D01*
X65004Y89404D01*
Y89012D01*
X65154Y88651D01*
X65430Y88374D01*
X65792Y88224D01*
X66184D01*
X66545Y88374D01*
X66822Y88651D01*
X66972Y89012D01*
Y89404D01*
X66822Y89766D01*
X66545Y90043D01*
X66184Y90193D01*
D02*
G37*
G36*
X71337Y89331D02*
X70710D01*
X70132Y89091D01*
X69689Y88648D01*
X69449Y88069D01*
Y87443D01*
X69689Y86864D01*
X70132Y86421D01*
X70710Y86181D01*
X71337D01*
X71916Y86421D01*
X72359Y86864D01*
X72598Y87443D01*
Y88069D01*
X72359Y88648D01*
X71916Y89091D01*
X71337Y89331D01*
D02*
G37*
G36*
X58312Y87571D02*
X57921D01*
X57559Y87421D01*
X57282Y87144D01*
X57132Y86782D01*
Y86391D01*
X57282Y86029D01*
X57559Y85752D01*
X57921Y85602D01*
X58312D01*
X58674Y85752D01*
X58951Y86029D01*
X59101Y86391D01*
Y86782D01*
X58951Y87144D01*
X58674Y87421D01*
X58312Y87571D01*
D02*
G37*
G36*
X59516Y79531D02*
X59125D01*
X58763Y79381D01*
X58486Y79104D01*
X58336Y78742D01*
Y78351D01*
X58486Y77989D01*
X58763Y77712D01*
X59125Y77562D01*
X59516D01*
X59878Y77712D01*
X60155Y77989D01*
X60305Y78351D01*
Y78742D01*
X60155Y79104D01*
X59878Y79381D01*
X59516Y79531D01*
D02*
G37*
G36*
X23326Y121812D02*
X22934D01*
X22572Y121663D01*
X22295Y121386D01*
X22146Y121024D01*
Y120793D01*
X22083Y120712D01*
X21731Y120440D01*
X21430Y120301D01*
X21318Y120348D01*
X20926D01*
X20905Y120339D01*
X20682Y120429D01*
X20177Y120840D01*
Y121024D01*
X20027Y121386D01*
X19750Y121663D01*
X19389Y121812D01*
X18997D01*
X18635Y121663D01*
X18358Y121386D01*
X18209Y121024D01*
Y120632D01*
X18358Y120271D01*
X18511Y120118D01*
X18371Y119490D01*
X18281Y119319D01*
X17730Y119091D01*
X17287Y118648D01*
X17047Y118069D01*
Y117443D01*
X17287Y116864D01*
X17730Y116421D01*
X18309Y116181D01*
X18935D01*
X19514Y116421D01*
X19957Y116864D01*
X20197Y117443D01*
Y117868D01*
X20681Y118279D01*
X20919Y118382D01*
X20926Y118380D01*
X21318D01*
X21680Y118529D01*
X21957Y118806D01*
X22106Y119168D01*
Y119399D01*
X22169Y119480D01*
X22521Y119752D01*
X22821Y119891D01*
X22934Y119844D01*
X23326D01*
X23687Y119994D01*
X23964Y120271D01*
X24114Y120632D01*
Y121024D01*
X23964Y121386D01*
X23687Y121663D01*
X23326Y121812D01*
D02*
G37*
G36*
X33935Y119331D02*
X33309D01*
X32730Y119091D01*
X32287Y118648D01*
X32047Y118069D01*
Y117443D01*
X32287Y116864D01*
X32730Y116421D01*
X33309Y116181D01*
X33935D01*
X34514Y116421D01*
X34957Y116864D01*
X35197Y117443D01*
Y118069D01*
X34957Y118648D01*
X34514Y119091D01*
X33935Y119331D01*
D02*
G37*
G36*
X28935D02*
X28309D01*
X27730Y119091D01*
X27287Y118648D01*
X27047Y118069D01*
Y117443D01*
X27287Y116864D01*
X27730Y116421D01*
X28309Y116181D01*
X28935D01*
X29514Y116421D01*
X29957Y116864D01*
X30197Y117443D01*
Y118069D01*
X29957Y118648D01*
X29514Y119091D01*
X28935Y119331D01*
D02*
G37*
G36*
X13935D02*
X13309D01*
X12730Y119091D01*
X12287Y118648D01*
X12047Y118069D01*
Y117443D01*
X12287Y116864D01*
X12730Y116421D01*
X13309Y116181D01*
X13935D01*
X14514Y116421D01*
X14957Y116864D01*
X15197Y117443D01*
Y118069D01*
X14957Y118648D01*
X14514Y119091D01*
X13935Y119331D01*
D02*
G37*
G36*
X19192Y114764D02*
X18800D01*
X18439Y114614D01*
X18162Y114337D01*
X18012Y113975D01*
Y113584D01*
X18162Y113222D01*
X18439Y112945D01*
X18800Y112795D01*
X19192D01*
X19554Y112945D01*
X19830Y113222D01*
X19980Y113584D01*
Y113975D01*
X19830Y114337D01*
X19554Y114614D01*
X19192Y114764D01*
D02*
G37*
G36*
X25885Y114183D02*
X25493D01*
X25131Y114033D01*
X24855Y113756D01*
X24705Y113394D01*
Y113003D01*
X24855Y112641D01*
X25131Y112364D01*
X25493Y112214D01*
X25885D01*
X26247Y112364D01*
X26523Y112641D01*
X26673Y113003D01*
Y113394D01*
X26523Y113756D01*
X26247Y114033D01*
X25885Y114183D01*
D02*
G37*
G36*
X33935Y114331D02*
X33309D01*
X32730Y114091D01*
X32287Y113648D01*
X32047Y113069D01*
Y112443D01*
X32287Y111864D01*
X32730Y111421D01*
X33309Y111181D01*
X33935D01*
X34514Y111421D01*
X34957Y111864D01*
X35197Y112443D01*
Y113069D01*
X34957Y113648D01*
X34514Y114091D01*
X33935Y114331D01*
D02*
G37*
G36*
X13935D02*
X13309D01*
X12730Y114091D01*
X12287Y113648D01*
X12047Y113069D01*
Y112443D01*
X12287Y111864D01*
X12730Y111421D01*
X13309Y111181D01*
X13935D01*
X14514Y111421D01*
X14957Y111864D01*
X15197Y112443D01*
Y113069D01*
X14957Y113648D01*
X14514Y114091D01*
X13935Y114331D01*
D02*
G37*
G36*
X33935Y109331D02*
X33309D01*
X32730Y109091D01*
X32287Y108648D01*
X32047Y108069D01*
Y107443D01*
X32287Y106864D01*
X32730Y106421D01*
X33309Y106181D01*
X33935D01*
X34514Y106421D01*
X34957Y106864D01*
X35197Y107443D01*
Y108069D01*
X34957Y108648D01*
X34514Y109091D01*
X33935Y109331D01*
D02*
G37*
G36*
X13935D02*
X13309D01*
X12730Y109091D01*
X12287Y108648D01*
X12047Y108069D01*
Y107443D01*
X12287Y106864D01*
X12730Y106421D01*
X13309Y106181D01*
X13935D01*
X14514Y106421D01*
X14957Y106864D01*
X15197Y107443D01*
Y108069D01*
X14957Y108648D01*
X14514Y109091D01*
X13935Y109331D01*
D02*
G37*
G36*
X23856Y105686D02*
X23465D01*
X23103Y105536D01*
X22826Y105260D01*
X22676Y104898D01*
Y104506D01*
X22826Y104144D01*
X23103Y103868D01*
X23465Y103718D01*
X23856D01*
X24218Y103868D01*
X24495Y104144D01*
X24645Y104506D01*
Y104898D01*
X24495Y105260D01*
X24218Y105536D01*
X23856Y105686D01*
D02*
G37*
G36*
X33935Y104331D02*
X33309D01*
X32730Y104091D01*
X32287Y103648D01*
X32047Y103069D01*
Y102443D01*
X32287Y101864D01*
X32730Y101421D01*
X33309Y101181D01*
X33935D01*
X34514Y101421D01*
X34957Y101864D01*
X35197Y102443D01*
Y103069D01*
X34957Y103648D01*
X34514Y104091D01*
X33935Y104331D01*
D02*
G37*
G36*
X22834Y102953D02*
X22442D01*
X22080Y102803D01*
X21803Y102526D01*
X21654Y102164D01*
Y101773D01*
X21803Y101411D01*
X22080Y101134D01*
X22442Y100984D01*
X22834D01*
X23195Y101134D01*
X23472Y101411D01*
X23622Y101773D01*
Y102164D01*
X23472Y102526D01*
X23195Y102803D01*
X22834Y102953D01*
D02*
G37*
G36*
X11952Y100914D02*
X11560D01*
X11198Y100764D01*
X10922Y100487D01*
X10772Y100126D01*
Y99734D01*
X10922Y99372D01*
X11198Y99095D01*
X11560Y98945D01*
X11952D01*
X12314Y99095D01*
X12591Y99372D01*
X12740Y99734D01*
Y100126D01*
X12591Y100487D01*
X12314Y100764D01*
X11952Y100914D01*
D02*
G37*
G36*
X16550Y100323D02*
X16159D01*
X15797Y100173D01*
X15520Y99896D01*
X15370Y99534D01*
Y99143D01*
X15520Y98781D01*
X15797Y98504D01*
X16159Y98354D01*
X16291Y98192D01*
X16573Y97576D01*
X16498Y97394D01*
Y97003D01*
X16647Y96641D01*
X16924Y96364D01*
X17286Y96214D01*
X17677D01*
X18039Y96364D01*
X18316Y96641D01*
X18466Y97003D01*
Y97394D01*
X18316Y97756D01*
X18039Y98033D01*
X17677Y98183D01*
X17545Y98345D01*
X17263Y98961D01*
X17339Y99143D01*
Y99534D01*
X17189Y99896D01*
X16912Y100173D01*
X16550Y100323D01*
D02*
G37*
G36*
X26933Y95008D02*
X26541D01*
X26180Y94859D01*
X25903Y94582D01*
X25753Y94220D01*
Y93828D01*
X25903Y93467D01*
X26180Y93190D01*
X26541Y93040D01*
X26933D01*
X27295Y93190D01*
X27571Y93467D01*
X27721Y93828D01*
Y94220D01*
X27571Y94582D01*
X27295Y94859D01*
X26933Y95008D01*
D02*
G37*
G36*
X22093Y93856D02*
X21701D01*
X21339Y93706D01*
X21062Y93429D01*
X20913Y93067D01*
Y92676D01*
X21062Y92314D01*
X21339Y92037D01*
X21701Y91887D01*
X22093D01*
X22454Y92037D01*
X22731Y92314D01*
X22881Y92676D01*
Y93067D01*
X22731Y93429D01*
X22454Y93706D01*
X22093Y93856D01*
D02*
G37*
G36*
X13935Y94331D02*
X13309D01*
X12730Y94091D01*
X12287Y93648D01*
X12047Y93069D01*
Y92443D01*
X12287Y91864D01*
X12730Y91421D01*
X13309Y91181D01*
X13935D01*
X14514Y91421D01*
X14957Y91864D01*
X15197Y92443D01*
Y93069D01*
X14957Y93648D01*
X14514Y94091D01*
X13935Y94331D01*
D02*
G37*
G36*
X23761Y91461D02*
X23370D01*
X23008Y91311D01*
X22731Y91035D01*
X22581Y90673D01*
Y90281D01*
X22731Y89920D01*
X23008Y89643D01*
X23370Y89493D01*
X23761D01*
X24123Y89643D01*
X24400Y89920D01*
X24550Y90281D01*
Y90673D01*
X24400Y91035D01*
X24123Y91311D01*
X23761Y91461D01*
D02*
G37*
G36*
X28782Y90193D02*
X28391D01*
X28029Y90043D01*
X27752Y89766D01*
X27602Y89404D01*
Y89012D01*
X27752Y88651D01*
X28029Y88374D01*
X28391Y88224D01*
X28782D01*
X29144Y88374D01*
X29421Y88651D01*
X29571Y89012D01*
Y89404D01*
X29421Y89766D01*
X29144Y90043D01*
X28782Y90193D01*
D02*
G37*
G36*
X33935Y89331D02*
X33309D01*
X32730Y89091D01*
X32287Y88648D01*
X32047Y88069D01*
Y87443D01*
X32287Y86864D01*
X32730Y86421D01*
X33309Y86181D01*
X33935D01*
X34514Y86421D01*
X34957Y86864D01*
X35197Y87443D01*
Y88069D01*
X34957Y88648D01*
X34514Y89091D01*
X33935Y89331D01*
D02*
G37*
G36*
X20911Y87571D02*
X20519D01*
X20158Y87421D01*
X19881Y87144D01*
X19731Y86782D01*
Y86391D01*
X19881Y86029D01*
X20158Y85752D01*
X20519Y85602D01*
X20911D01*
X21273Y85752D01*
X21550Y86029D01*
X21699Y86391D01*
Y86782D01*
X21550Y87144D01*
X21273Y87421D01*
X20911Y87571D01*
D02*
G37*
G36*
X22115Y79531D02*
X21723D01*
X21361Y79381D01*
X21084Y79104D01*
X20935Y78742D01*
Y78351D01*
X21084Y77989D01*
X21361Y77712D01*
X21723Y77562D01*
X22115D01*
X22476Y77712D01*
X22753Y77989D01*
X22903Y78351D01*
Y78742D01*
X22753Y79104D01*
X22476Y79381D01*
X22115Y79531D01*
D02*
G37*
G36*
X172932Y62364D02*
X172540D01*
X172179Y62214D01*
X171902Y61937D01*
X171752Y61575D01*
Y61344D01*
X171689Y61264D01*
X171337Y60992D01*
X171037Y60853D01*
X170924Y60899D01*
X170533D01*
X170511Y60890D01*
X170288Y60980D01*
X169783Y61391D01*
Y61575D01*
X169634Y61937D01*
X169357Y62214D01*
X168995Y62364D01*
X168603D01*
X168242Y62214D01*
X167965Y61937D01*
X167815Y61575D01*
Y61184D01*
X167965Y60822D01*
X168117Y60669D01*
X167977Y60041D01*
X167887Y59870D01*
X167336Y59642D01*
X166893Y59199D01*
X166654Y58620D01*
Y57994D01*
X166893Y57415D01*
X167336Y56972D01*
X167915Y56732D01*
X168542D01*
X169120Y56972D01*
X169563Y57415D01*
X169803Y57994D01*
Y58420D01*
X170287Y58830D01*
X170526Y58934D01*
X170533Y58931D01*
X170924D01*
X171286Y59081D01*
X171563Y59358D01*
X171713Y59719D01*
Y59951D01*
X171775Y60031D01*
X172128Y60303D01*
X172428Y60442D01*
X172540Y60395D01*
X172932D01*
X173294Y60545D01*
X173571Y60822D01*
X173720Y61184D01*
Y61575D01*
X173571Y61937D01*
X173294Y62214D01*
X172932Y62364D01*
D02*
G37*
G36*
X183542Y59882D02*
X182915D01*
X182336Y59642D01*
X181893Y59199D01*
X181654Y58620D01*
Y57994D01*
X181893Y57415D01*
X182336Y56972D01*
X182915Y56732D01*
X183542D01*
X184120Y56972D01*
X184563Y57415D01*
X184803Y57994D01*
Y58620D01*
X184563Y59199D01*
X184120Y59642D01*
X183542Y59882D01*
D02*
G37*
G36*
X178542D02*
X177915D01*
X177336Y59642D01*
X176893Y59199D01*
X176654Y58620D01*
Y57994D01*
X176893Y57415D01*
X177336Y56972D01*
X177915Y56732D01*
X178542D01*
X179120Y56972D01*
X179563Y57415D01*
X179803Y57994D01*
Y58620D01*
X179563Y59199D01*
X179120Y59642D01*
X178542Y59882D01*
D02*
G37*
G36*
X163542D02*
X162915D01*
X162336Y59642D01*
X161893Y59199D01*
X161654Y58620D01*
Y57994D01*
X161893Y57415D01*
X162336Y56972D01*
X162915Y56732D01*
X163542D01*
X164120Y56972D01*
X164563Y57415D01*
X164803Y57994D01*
Y58620D01*
X164563Y59199D01*
X164120Y59642D01*
X163542Y59882D01*
D02*
G37*
G36*
X168798Y55315D02*
X168407D01*
X168045Y55165D01*
X167768Y54888D01*
X167618Y54527D01*
Y54135D01*
X167768Y53773D01*
X168045Y53496D01*
X168407Y53347D01*
X168798D01*
X169160Y53496D01*
X169437Y53773D01*
X169587Y54135D01*
Y54527D01*
X169437Y54888D01*
X169160Y55165D01*
X168798Y55315D01*
D02*
G37*
G36*
X175491Y54734D02*
X175100D01*
X174738Y54584D01*
X174461Y54307D01*
X174311Y53946D01*
Y53554D01*
X174461Y53192D01*
X174738Y52915D01*
X175100Y52766D01*
X175491D01*
X175853Y52915D01*
X176130Y53192D01*
X176279Y53554D01*
Y53946D01*
X176130Y54307D01*
X175853Y54584D01*
X175491Y54734D01*
D02*
G37*
G36*
X183542Y54882D02*
X182915D01*
X182336Y54642D01*
X181893Y54199D01*
X181654Y53620D01*
Y52994D01*
X181893Y52415D01*
X182336Y51972D01*
X182915Y51732D01*
X183542D01*
X184120Y51972D01*
X184563Y52415D01*
X184803Y52994D01*
Y53620D01*
X184563Y54199D01*
X184120Y54642D01*
X183542Y54882D01*
D02*
G37*
G36*
X163542D02*
X162915D01*
X162336Y54642D01*
X161893Y54199D01*
X161654Y53620D01*
Y52994D01*
X161893Y52415D01*
X162336Y51972D01*
X162915Y51732D01*
X163542D01*
X164120Y51972D01*
X164563Y52415D01*
X164803Y52994D01*
Y53620D01*
X164563Y54199D01*
X164120Y54642D01*
X163542Y54882D01*
D02*
G37*
G36*
X183542Y49882D02*
X182915D01*
X182336Y49642D01*
X181893Y49199D01*
X181654Y48620D01*
Y47994D01*
X181893Y47415D01*
X182336Y46972D01*
X182915Y46732D01*
X183542D01*
X184120Y46972D01*
X184563Y47415D01*
X184803Y47994D01*
Y48620D01*
X184563Y49199D01*
X184120Y49642D01*
X183542Y49882D01*
D02*
G37*
G36*
X163542D02*
X162915D01*
X162336Y49642D01*
X161893Y49199D01*
X161654Y48620D01*
Y47994D01*
X161893Y47415D01*
X162336Y46972D01*
X162915Y46732D01*
X163542D01*
X164120Y46972D01*
X164563Y47415D01*
X164803Y47994D01*
Y48620D01*
X164563Y49199D01*
X164120Y49642D01*
X163542Y49882D01*
D02*
G37*
G36*
X173463Y46237D02*
X173071D01*
X172709Y46088D01*
X172432Y45811D01*
X172283Y45449D01*
Y45057D01*
X172432Y44696D01*
X172709Y44419D01*
X173071Y44269D01*
X173463D01*
X173824Y44419D01*
X174101Y44696D01*
X174251Y45057D01*
Y45449D01*
X174101Y45811D01*
X173824Y46088D01*
X173463Y46237D01*
D02*
G37*
G36*
X183542Y44882D02*
X182915D01*
X182336Y44642D01*
X181893Y44199D01*
X181654Y43620D01*
Y42994D01*
X181893Y42415D01*
X182336Y41972D01*
X182915Y41732D01*
X183542D01*
X184120Y41972D01*
X184563Y42415D01*
X184803Y42994D01*
Y43620D01*
X184563Y44199D01*
X184120Y44642D01*
X183542Y44882D01*
D02*
G37*
G36*
X172440Y43504D02*
X172048D01*
X171687Y43354D01*
X171410Y43077D01*
X171260Y42715D01*
Y42324D01*
X171410Y41962D01*
X171687Y41685D01*
X172048Y41535D01*
X172440D01*
X172802Y41685D01*
X173079Y41962D01*
X173228Y42324D01*
Y42715D01*
X173079Y43077D01*
X172802Y43354D01*
X172440Y43504D01*
D02*
G37*
G36*
X161558Y41465D02*
X161167D01*
X160805Y41315D01*
X160528Y41039D01*
X160378Y40677D01*
Y40285D01*
X160528Y39923D01*
X160805Y39647D01*
X161167Y39497D01*
X161558D01*
X161920Y39647D01*
X162197Y39923D01*
X162347Y40285D01*
Y40677D01*
X162197Y41039D01*
X161920Y41315D01*
X161558Y41465D01*
D02*
G37*
G36*
X166157Y40874D02*
X165765D01*
X165403Y40724D01*
X165126Y40447D01*
X164977Y40086D01*
Y39694D01*
X165126Y39332D01*
X165403Y39055D01*
X165765Y38906D01*
X165897Y38743D01*
X166179Y38128D01*
X166104Y37946D01*
Y37554D01*
X166254Y37192D01*
X166531Y36915D01*
X166892Y36766D01*
X167284D01*
X167646Y36915D01*
X167922Y37192D01*
X168072Y37554D01*
Y37946D01*
X167922Y38307D01*
X167646Y38584D01*
X167284Y38734D01*
X167151Y38896D01*
X166870Y39512D01*
X166945Y39694D01*
Y40086D01*
X166795Y40447D01*
X166518Y40724D01*
X166157Y40874D01*
D02*
G37*
G36*
X176539Y35560D02*
X176148D01*
X175786Y35410D01*
X175509Y35133D01*
X175359Y34771D01*
Y34380D01*
X175509Y34018D01*
X175786Y33741D01*
X176148Y33591D01*
X176539D01*
X176901Y33741D01*
X177178Y34018D01*
X177328Y34380D01*
Y34771D01*
X177178Y35133D01*
X176901Y35410D01*
X176539Y35560D01*
D02*
G37*
G36*
X171699Y34407D02*
X171307D01*
X170946Y34257D01*
X170669Y33980D01*
X170519Y33618D01*
Y33227D01*
X170669Y32865D01*
X170946Y32588D01*
X171307Y32438D01*
X171699D01*
X172061Y32588D01*
X172338Y32865D01*
X172487Y33227D01*
Y33618D01*
X172338Y33980D01*
X172061Y34257D01*
X171699Y34407D01*
D02*
G37*
G36*
X163542Y34882D02*
X162915D01*
X162336Y34642D01*
X161893Y34199D01*
X161654Y33620D01*
Y32994D01*
X161893Y32415D01*
X162336Y31972D01*
X162915Y31732D01*
X163542D01*
X164120Y31972D01*
X164563Y32415D01*
X164803Y32994D01*
Y33620D01*
X164563Y34199D01*
X164120Y34642D01*
X163542Y34882D01*
D02*
G37*
G36*
X173368Y32012D02*
X172976D01*
X172614Y31863D01*
X172338Y31586D01*
X172188Y31224D01*
Y30832D01*
X172338Y30471D01*
X172614Y30194D01*
X172976Y30044D01*
X173368D01*
X173730Y30194D01*
X174006Y30471D01*
X174156Y30832D01*
Y31224D01*
X174006Y31586D01*
X173730Y31863D01*
X173368Y32012D01*
D02*
G37*
G36*
X178389Y30744D02*
X177997D01*
X177635Y30594D01*
X177358Y30317D01*
X177208Y29955D01*
Y29564D01*
X177358Y29202D01*
X177635Y28925D01*
X177997Y28775D01*
X178389D01*
X178750Y28925D01*
X179027Y29202D01*
X179177Y29564D01*
Y29955D01*
X179027Y30317D01*
X178750Y30594D01*
X178389Y30744D01*
D02*
G37*
G36*
X183542Y29882D02*
X182915D01*
X182336Y29642D01*
X181893Y29199D01*
X181654Y28620D01*
Y27994D01*
X181893Y27415D01*
X182336Y26972D01*
X182915Y26732D01*
X183542D01*
X184120Y26972D01*
X184563Y27415D01*
X184803Y27994D01*
Y28620D01*
X184563Y29199D01*
X184120Y29642D01*
X183542Y29882D01*
D02*
G37*
G36*
X170517Y28122D02*
X170126D01*
X169764Y27972D01*
X169487Y27695D01*
X169337Y27334D01*
Y26942D01*
X169487Y26580D01*
X169764Y26303D01*
X170126Y26153D01*
X170517D01*
X170879Y26303D01*
X171156Y26580D01*
X171306Y26942D01*
Y27334D01*
X171156Y27695D01*
X170879Y27972D01*
X170517Y28122D01*
D02*
G37*
G36*
X171721Y20082D02*
X171329D01*
X170968Y19932D01*
X170691Y19655D01*
X170541Y19293D01*
Y18902D01*
X170691Y18540D01*
X170968Y18263D01*
X171329Y18113D01*
X171721D01*
X172083Y18263D01*
X172360Y18540D01*
X172509Y18902D01*
Y19293D01*
X172360Y19655D01*
X172083Y19932D01*
X171721Y20082D01*
D02*
G37*
G36*
X135530Y62364D02*
X135139D01*
X134777Y62214D01*
X134500Y61937D01*
X134350Y61575D01*
Y61344D01*
X134288Y61264D01*
X133935Y60992D01*
X133635Y60853D01*
X133523Y60899D01*
X133131D01*
X133109Y60890D01*
X132887Y60980D01*
X132382Y61391D01*
Y61575D01*
X132232Y61937D01*
X131955Y62214D01*
X131593Y62364D01*
X131202D01*
X130840Y62214D01*
X130563Y61937D01*
X130413Y61575D01*
Y61184D01*
X130563Y60822D01*
X130716Y60669D01*
X130576Y60041D01*
X130486Y59870D01*
X129935Y59642D01*
X129492Y59199D01*
X129252Y58620D01*
Y57994D01*
X129492Y57415D01*
X129935Y56972D01*
X130514Y56732D01*
X131140D01*
X131719Y56972D01*
X132162Y57415D01*
X132402Y57994D01*
Y58420D01*
X132886Y58830D01*
X133124Y58934D01*
X133131Y58931D01*
X133523D01*
X133884Y59081D01*
X134161Y59358D01*
X134311Y59719D01*
Y59951D01*
X134374Y60031D01*
X134726Y60303D01*
X135026Y60442D01*
X135139Y60395D01*
X135530D01*
X135892Y60545D01*
X136169Y60822D01*
X136319Y61184D01*
Y61575D01*
X136169Y61937D01*
X135892Y62214D01*
X135530Y62364D01*
D02*
G37*
G36*
X146140Y59882D02*
X145513D01*
X144935Y59642D01*
X144492Y59199D01*
X144252Y58620D01*
Y57994D01*
X144492Y57415D01*
X144935Y56972D01*
X145513Y56732D01*
X146140D01*
X146719Y56972D01*
X147162Y57415D01*
X147402Y57994D01*
Y58620D01*
X147162Y59199D01*
X146719Y59642D01*
X146140Y59882D01*
D02*
G37*
G36*
X141140D02*
X140514D01*
X139935Y59642D01*
X139492Y59199D01*
X139252Y58620D01*
Y57994D01*
X139492Y57415D01*
X139935Y56972D01*
X140514Y56732D01*
X141140D01*
X141719Y56972D01*
X142162Y57415D01*
X142402Y57994D01*
Y58620D01*
X142162Y59199D01*
X141719Y59642D01*
X141140Y59882D01*
D02*
G37*
G36*
X126140D02*
X125514D01*
X124935Y59642D01*
X124492Y59199D01*
X124252Y58620D01*
Y57994D01*
X124492Y57415D01*
X124935Y56972D01*
X125514Y56732D01*
X126140D01*
X126719Y56972D01*
X127162Y57415D01*
X127402Y57994D01*
Y58620D01*
X127162Y59199D01*
X126719Y59642D01*
X126140Y59882D01*
D02*
G37*
G36*
X131397Y55315D02*
X131005D01*
X130643Y55165D01*
X130366Y54888D01*
X130217Y54527D01*
Y54135D01*
X130366Y53773D01*
X130643Y53496D01*
X131005Y53347D01*
X131397D01*
X131758Y53496D01*
X132035Y53773D01*
X132185Y54135D01*
Y54527D01*
X132035Y54888D01*
X131758Y55165D01*
X131397Y55315D01*
D02*
G37*
G36*
X138090Y54734D02*
X137698D01*
X137336Y54584D01*
X137059Y54307D01*
X136909Y53946D01*
Y53554D01*
X137059Y53192D01*
X137336Y52915D01*
X137698Y52766D01*
X138090D01*
X138451Y52915D01*
X138728Y53192D01*
X138878Y53554D01*
Y53946D01*
X138728Y54307D01*
X138451Y54584D01*
X138090Y54734D01*
D02*
G37*
G36*
X146140Y54882D02*
X145513D01*
X144935Y54642D01*
X144492Y54199D01*
X144252Y53620D01*
Y52994D01*
X144492Y52415D01*
X144935Y51972D01*
X145513Y51732D01*
X146140D01*
X146719Y51972D01*
X147162Y52415D01*
X147402Y52994D01*
Y53620D01*
X147162Y54199D01*
X146719Y54642D01*
X146140Y54882D01*
D02*
G37*
G36*
X126140D02*
X125514D01*
X124935Y54642D01*
X124492Y54199D01*
X124252Y53620D01*
Y52994D01*
X124492Y52415D01*
X124935Y51972D01*
X125514Y51732D01*
X126140D01*
X126719Y51972D01*
X127162Y52415D01*
X127402Y52994D01*
Y53620D01*
X127162Y54199D01*
X126719Y54642D01*
X126140Y54882D01*
D02*
G37*
G36*
X146140Y49882D02*
X145513D01*
X144935Y49642D01*
X144492Y49199D01*
X144252Y48620D01*
Y47994D01*
X144492Y47415D01*
X144935Y46972D01*
X145513Y46732D01*
X146140D01*
X146719Y46972D01*
X147162Y47415D01*
X147402Y47994D01*
Y48620D01*
X147162Y49199D01*
X146719Y49642D01*
X146140Y49882D01*
D02*
G37*
G36*
X126140D02*
X125514D01*
X124935Y49642D01*
X124492Y49199D01*
X124252Y48620D01*
Y47994D01*
X124492Y47415D01*
X124935Y46972D01*
X125514Y46732D01*
X126140D01*
X126719Y46972D01*
X127162Y47415D01*
X127402Y47994D01*
Y48620D01*
X127162Y49199D01*
X126719Y49642D01*
X126140Y49882D01*
D02*
G37*
G36*
X136061Y46237D02*
X135670D01*
X135308Y46088D01*
X135031Y45811D01*
X134881Y45449D01*
Y45057D01*
X135031Y44696D01*
X135308Y44419D01*
X135670Y44269D01*
X136061D01*
X136423Y44419D01*
X136700Y44696D01*
X136850Y45057D01*
Y45449D01*
X136700Y45811D01*
X136423Y46088D01*
X136061Y46237D01*
D02*
G37*
G36*
X146140Y44882D02*
X145513D01*
X144935Y44642D01*
X144492Y44199D01*
X144252Y43620D01*
Y42994D01*
X144492Y42415D01*
X144935Y41972D01*
X145513Y41732D01*
X146140D01*
X146719Y41972D01*
X147162Y42415D01*
X147402Y42994D01*
Y43620D01*
X147162Y44199D01*
X146719Y44642D01*
X146140Y44882D01*
D02*
G37*
G36*
X135038Y43504D02*
X134647D01*
X134285Y43354D01*
X134008Y43077D01*
X133858Y42715D01*
Y42324D01*
X134008Y41962D01*
X134285Y41685D01*
X134647Y41535D01*
X135038D01*
X135400Y41685D01*
X135677Y41962D01*
X135827Y42324D01*
Y42715D01*
X135677Y43077D01*
X135400Y43354D01*
X135038Y43504D01*
D02*
G37*
G36*
X124157Y41465D02*
X123765D01*
X123403Y41315D01*
X123126Y41039D01*
X122977Y40677D01*
Y40285D01*
X123126Y39923D01*
X123403Y39647D01*
X123765Y39497D01*
X124157D01*
X124518Y39647D01*
X124795Y39923D01*
X124945Y40285D01*
Y40677D01*
X124795Y41039D01*
X124518Y41315D01*
X124157Y41465D01*
D02*
G37*
G36*
X128755Y40874D02*
X128363D01*
X128002Y40724D01*
X127725Y40447D01*
X127575Y40086D01*
Y39694D01*
X127725Y39332D01*
X128002Y39055D01*
X128363Y38906D01*
X128496Y38743D01*
X128778Y38128D01*
X128702Y37946D01*
Y37554D01*
X128852Y37192D01*
X129129Y36915D01*
X129491Y36766D01*
X129882D01*
X130244Y36915D01*
X130521Y37192D01*
X130671Y37554D01*
Y37946D01*
X130521Y38307D01*
X130244Y38584D01*
X129882Y38734D01*
X129750Y38896D01*
X129468Y39512D01*
X129543Y39694D01*
Y40086D01*
X129394Y40447D01*
X129117Y40724D01*
X128755Y40874D01*
D02*
G37*
G36*
X139138Y35560D02*
X138746D01*
X138384Y35410D01*
X138107Y35133D01*
X137958Y34771D01*
Y34380D01*
X138107Y34018D01*
X138384Y33741D01*
X138746Y33591D01*
X139138D01*
X139499Y33741D01*
X139776Y34018D01*
X139926Y34380D01*
Y34771D01*
X139776Y35133D01*
X139499Y35410D01*
X139138Y35560D01*
D02*
G37*
G36*
X134297Y34407D02*
X133906D01*
X133544Y34257D01*
X133267Y33980D01*
X133117Y33618D01*
Y33227D01*
X133267Y32865D01*
X133544Y32588D01*
X133906Y32438D01*
X134297D01*
X134659Y32588D01*
X134936Y32865D01*
X135086Y33227D01*
Y33618D01*
X134936Y33980D01*
X134659Y34257D01*
X134297Y34407D01*
D02*
G37*
G36*
X126140Y34882D02*
X125514D01*
X124935Y34642D01*
X124492Y34199D01*
X124252Y33620D01*
Y32994D01*
X124492Y32415D01*
X124935Y31972D01*
X125514Y31732D01*
X126140D01*
X126719Y31972D01*
X127162Y32415D01*
X127402Y32994D01*
Y33620D01*
X127162Y34199D01*
X126719Y34642D01*
X126140Y34882D01*
D02*
G37*
G36*
X135966Y32012D02*
X135575D01*
X135213Y31863D01*
X134936Y31586D01*
X134786Y31224D01*
Y30832D01*
X134936Y30471D01*
X135213Y30194D01*
X135575Y30044D01*
X135966D01*
X136328Y30194D01*
X136605Y30471D01*
X136755Y30832D01*
Y31224D01*
X136605Y31586D01*
X136328Y31863D01*
X135966Y32012D01*
D02*
G37*
G36*
X140987Y30744D02*
X140595D01*
X140234Y30594D01*
X139957Y30317D01*
X139807Y29955D01*
Y29564D01*
X139957Y29202D01*
X140234Y28925D01*
X140595Y28775D01*
X140987D01*
X141349Y28925D01*
X141625Y29202D01*
X141775Y29564D01*
Y29955D01*
X141625Y30317D01*
X141349Y30594D01*
X140987Y30744D01*
D02*
G37*
G36*
X146140Y29882D02*
X145513D01*
X144935Y29642D01*
X144492Y29199D01*
X144252Y28620D01*
Y27994D01*
X144492Y27415D01*
X144935Y26972D01*
X145513Y26732D01*
X146140D01*
X146719Y26972D01*
X147162Y27415D01*
X147402Y27994D01*
Y28620D01*
X147162Y29199D01*
X146719Y29642D01*
X146140Y29882D01*
D02*
G37*
G36*
X133116Y28122D02*
X132724D01*
X132362Y27972D01*
X132085Y27695D01*
X131936Y27334D01*
Y26942D01*
X132085Y26580D01*
X132362Y26303D01*
X132724Y26153D01*
X133116D01*
X133477Y26303D01*
X133754Y26580D01*
X133904Y26942D01*
Y27334D01*
X133754Y27695D01*
X133477Y27972D01*
X133116Y28122D01*
D02*
G37*
G36*
X134319Y20082D02*
X133928D01*
X133566Y19932D01*
X133289Y19655D01*
X133139Y19293D01*
Y18902D01*
X133289Y18540D01*
X133566Y18263D01*
X133928Y18113D01*
X134319D01*
X134681Y18263D01*
X134958Y18540D01*
X135108Y18902D01*
Y19293D01*
X134958Y19655D01*
X134681Y19932D01*
X134319Y20082D01*
D02*
G37*
G36*
X98129Y62364D02*
X97737D01*
X97376Y62214D01*
X97099Y61937D01*
X96949Y61575D01*
Y61344D01*
X96886Y61264D01*
X96534Y60992D01*
X96234Y60853D01*
X96121Y60899D01*
X95729D01*
X95708Y60890D01*
X95485Y60980D01*
X94980Y61391D01*
Y61575D01*
X94830Y61937D01*
X94554Y62214D01*
X94192Y62364D01*
X93800D01*
X93439Y62214D01*
X93162Y61937D01*
X93012Y61575D01*
Y61184D01*
X93162Y60822D01*
X93314Y60669D01*
X93174Y60041D01*
X93084Y59870D01*
X92533Y59642D01*
X92090Y59199D01*
X91850Y58620D01*
Y57994D01*
X92090Y57415D01*
X92533Y56972D01*
X93112Y56732D01*
X93739D01*
X94317Y56972D01*
X94760Y57415D01*
X95000Y57994D01*
Y58420D01*
X95484Y58830D01*
X95723Y58934D01*
X95729Y58931D01*
X96121D01*
X96483Y59081D01*
X96760Y59358D01*
X96909Y59719D01*
Y59951D01*
X96972Y60031D01*
X97325Y60303D01*
X97625Y60442D01*
X97737Y60395D01*
X98129D01*
X98491Y60545D01*
X98767Y60822D01*
X98917Y61184D01*
Y61575D01*
X98767Y61937D01*
X98491Y62214D01*
X98129Y62364D01*
D02*
G37*
G36*
X108739Y59882D02*
X108112D01*
X107533Y59642D01*
X107090Y59199D01*
X106850Y58620D01*
Y57994D01*
X107090Y57415D01*
X107533Y56972D01*
X108112Y56732D01*
X108739D01*
X109317Y56972D01*
X109760Y57415D01*
X110000Y57994D01*
Y58620D01*
X109760Y59199D01*
X109317Y59642D01*
X108739Y59882D01*
D02*
G37*
G36*
X103738D02*
X103112D01*
X102533Y59642D01*
X102090Y59199D01*
X101850Y58620D01*
Y57994D01*
X102090Y57415D01*
X102533Y56972D01*
X103112Y56732D01*
X103738D01*
X104317Y56972D01*
X104760Y57415D01*
X105000Y57994D01*
Y58620D01*
X104760Y59199D01*
X104317Y59642D01*
X103738Y59882D01*
D02*
G37*
G36*
X88739D02*
X88112D01*
X87533Y59642D01*
X87090Y59199D01*
X86850Y58620D01*
Y57994D01*
X87090Y57415D01*
X87533Y56972D01*
X88112Y56732D01*
X88739D01*
X89317Y56972D01*
X89760Y57415D01*
X90000Y57994D01*
Y58620D01*
X89760Y59199D01*
X89317Y59642D01*
X88739Y59882D01*
D02*
G37*
G36*
X93995Y55315D02*
X93603D01*
X93242Y55165D01*
X92965Y54888D01*
X92815Y54527D01*
Y54135D01*
X92965Y53773D01*
X93242Y53496D01*
X93603Y53347D01*
X93995D01*
X94357Y53496D01*
X94634Y53773D01*
X94784Y54135D01*
Y54527D01*
X94634Y54888D01*
X94357Y55165D01*
X93995Y55315D01*
D02*
G37*
G36*
X100688Y54734D02*
X100296D01*
X99935Y54584D01*
X99658Y54307D01*
X99508Y53946D01*
Y53554D01*
X99658Y53192D01*
X99935Y52915D01*
X100296Y52766D01*
X100688D01*
X101050Y52915D01*
X101327Y53192D01*
X101476Y53554D01*
Y53946D01*
X101327Y54307D01*
X101050Y54584D01*
X100688Y54734D01*
D02*
G37*
G36*
X108739Y54882D02*
X108112D01*
X107533Y54642D01*
X107090Y54199D01*
X106850Y53620D01*
Y52994D01*
X107090Y52415D01*
X107533Y51972D01*
X108112Y51732D01*
X108739D01*
X109317Y51972D01*
X109760Y52415D01*
X110000Y52994D01*
Y53620D01*
X109760Y54199D01*
X109317Y54642D01*
X108739Y54882D01*
D02*
G37*
G36*
X88739D02*
X88112D01*
X87533Y54642D01*
X87090Y54199D01*
X86850Y53620D01*
Y52994D01*
X87090Y52415D01*
X87533Y51972D01*
X88112Y51732D01*
X88739D01*
X89317Y51972D01*
X89760Y52415D01*
X90000Y52994D01*
Y53620D01*
X89760Y54199D01*
X89317Y54642D01*
X88739Y54882D01*
D02*
G37*
G36*
X108739Y49882D02*
X108112D01*
X107533Y49642D01*
X107090Y49199D01*
X106850Y48620D01*
Y47994D01*
X107090Y47415D01*
X107533Y46972D01*
X108112Y46732D01*
X108739D01*
X109317Y46972D01*
X109760Y47415D01*
X110000Y47994D01*
Y48620D01*
X109760Y49199D01*
X109317Y49642D01*
X108739Y49882D01*
D02*
G37*
G36*
X88739D02*
X88112D01*
X87533Y49642D01*
X87090Y49199D01*
X86850Y48620D01*
Y47994D01*
X87090Y47415D01*
X87533Y46972D01*
X88112Y46732D01*
X88739D01*
X89317Y46972D01*
X89760Y47415D01*
X90000Y47994D01*
Y48620D01*
X89760Y49199D01*
X89317Y49642D01*
X88739Y49882D01*
D02*
G37*
G36*
X98659Y46237D02*
X98268D01*
X97906Y46088D01*
X97629Y45811D01*
X97479Y45449D01*
Y45057D01*
X97629Y44696D01*
X97906Y44419D01*
X98268Y44269D01*
X98659D01*
X99021Y44419D01*
X99298Y44696D01*
X99448Y45057D01*
Y45449D01*
X99298Y45811D01*
X99021Y46088D01*
X98659Y46237D01*
D02*
G37*
G36*
X108739Y44882D02*
X108112D01*
X107533Y44642D01*
X107090Y44199D01*
X106850Y43620D01*
Y42994D01*
X107090Y42415D01*
X107533Y41972D01*
X108112Y41732D01*
X108739D01*
X109317Y41972D01*
X109760Y42415D01*
X110000Y42994D01*
Y43620D01*
X109760Y44199D01*
X109317Y44642D01*
X108739Y44882D01*
D02*
G37*
G36*
X97637Y43504D02*
X97245D01*
X96883Y43354D01*
X96607Y43077D01*
X96457Y42715D01*
Y42324D01*
X96607Y41962D01*
X96883Y41685D01*
X97245Y41535D01*
X97637D01*
X97998Y41685D01*
X98275Y41962D01*
X98425Y42324D01*
Y42715D01*
X98275Y43077D01*
X97998Y43354D01*
X97637Y43504D01*
D02*
G37*
G36*
X86755Y41465D02*
X86363D01*
X86002Y41315D01*
X85725Y41039D01*
X85575Y40677D01*
Y40285D01*
X85725Y39923D01*
X86002Y39647D01*
X86363Y39497D01*
X86755D01*
X87117Y39647D01*
X87394Y39923D01*
X87543Y40285D01*
Y40677D01*
X87394Y41039D01*
X87117Y41315D01*
X86755Y41465D01*
D02*
G37*
G36*
X91353Y40874D02*
X90962D01*
X90600Y40724D01*
X90323Y40447D01*
X90173Y40086D01*
Y39694D01*
X90323Y39332D01*
X90600Y39055D01*
X90962Y38906D01*
X91094Y38743D01*
X91376Y38128D01*
X91301Y37946D01*
Y37554D01*
X91451Y37192D01*
X91727Y36915D01*
X92089Y36766D01*
X92481D01*
X92842Y36915D01*
X93119Y37192D01*
X93269Y37554D01*
Y37946D01*
X93119Y38307D01*
X92842Y38584D01*
X92481Y38734D01*
X92348Y38896D01*
X92066Y39512D01*
X92142Y39694D01*
Y40086D01*
X91992Y40447D01*
X91715Y40724D01*
X91353Y40874D01*
D02*
G37*
G36*
X101736Y35560D02*
X101344D01*
X100983Y35410D01*
X100706Y35133D01*
X100556Y34771D01*
Y34380D01*
X100706Y34018D01*
X100983Y33741D01*
X101344Y33591D01*
X101736D01*
X102098Y33741D01*
X102375Y34018D01*
X102524Y34380D01*
Y34771D01*
X102375Y35133D01*
X102098Y35410D01*
X101736Y35560D01*
D02*
G37*
G36*
X96896Y34407D02*
X96504D01*
X96143Y34257D01*
X95866Y33980D01*
X95716Y33618D01*
Y33227D01*
X95866Y32865D01*
X96143Y32588D01*
X96504Y32438D01*
X96896D01*
X97258Y32588D01*
X97534Y32865D01*
X97684Y33227D01*
Y33618D01*
X97534Y33980D01*
X97258Y34257D01*
X96896Y34407D01*
D02*
G37*
G36*
X88739Y34882D02*
X88112D01*
X87533Y34642D01*
X87090Y34199D01*
X86850Y33620D01*
Y32994D01*
X87090Y32415D01*
X87533Y31972D01*
X88112Y31732D01*
X88739D01*
X89317Y31972D01*
X89760Y32415D01*
X90000Y32994D01*
Y33620D01*
X89760Y34199D01*
X89317Y34642D01*
X88739Y34882D01*
D02*
G37*
G36*
X98565Y32012D02*
X98173D01*
X97811Y31863D01*
X97534Y31586D01*
X97385Y31224D01*
Y30832D01*
X97534Y30471D01*
X97811Y30194D01*
X98173Y30044D01*
X98565D01*
X98926Y30194D01*
X99203Y30471D01*
X99353Y30832D01*
Y31224D01*
X99203Y31586D01*
X98926Y31863D01*
X98565Y32012D01*
D02*
G37*
G36*
X103585Y30744D02*
X103194D01*
X102832Y30594D01*
X102555Y30317D01*
X102405Y29955D01*
Y29564D01*
X102555Y29202D01*
X102832Y28925D01*
X103194Y28775D01*
X103585D01*
X103947Y28925D01*
X104224Y29202D01*
X104374Y29564D01*
Y29955D01*
X104224Y30317D01*
X103947Y30594D01*
X103585Y30744D01*
D02*
G37*
G36*
X108739Y29882D02*
X108112D01*
X107533Y29642D01*
X107090Y29199D01*
X106850Y28620D01*
Y27994D01*
X107090Y27415D01*
X107533Y26972D01*
X108112Y26732D01*
X108739D01*
X109317Y26972D01*
X109760Y27415D01*
X110000Y27994D01*
Y28620D01*
X109760Y29199D01*
X109317Y29642D01*
X108739Y29882D01*
D02*
G37*
G36*
X95714Y28122D02*
X95323D01*
X94961Y27972D01*
X94684Y27695D01*
X94534Y27334D01*
Y26942D01*
X94684Y26580D01*
X94961Y26303D01*
X95323Y26153D01*
X95714D01*
X96076Y26303D01*
X96353Y26580D01*
X96503Y26942D01*
Y27334D01*
X96353Y27695D01*
X96076Y27972D01*
X95714Y28122D01*
D02*
G37*
G36*
X96918Y20082D02*
X96526D01*
X96165Y19932D01*
X95888Y19655D01*
X95738Y19293D01*
Y18902D01*
X95888Y18540D01*
X96165Y18263D01*
X96526Y18113D01*
X96918D01*
X97280Y18263D01*
X97556Y18540D01*
X97706Y18902D01*
Y19293D01*
X97556Y19655D01*
X97280Y19932D01*
X96918Y20082D01*
D02*
G37*
G36*
X60727Y62364D02*
X60336D01*
X59974Y62214D01*
X59697Y61937D01*
X59547Y61575D01*
Y61344D01*
X59484Y61264D01*
X59132Y60992D01*
X58832Y60853D01*
X58719Y60899D01*
X58328D01*
X58306Y60890D01*
X58084Y60980D01*
X57579Y61391D01*
Y61575D01*
X57429Y61937D01*
X57152Y62214D01*
X56790Y62364D01*
X56399D01*
X56037Y62214D01*
X55760Y61937D01*
X55610Y61575D01*
Y61184D01*
X55760Y60822D01*
X55913Y60669D01*
X55772Y60041D01*
X55683Y59870D01*
X55132Y59642D01*
X54689Y59199D01*
X54449Y58620D01*
Y57994D01*
X54689Y57415D01*
X55132Y56972D01*
X55710Y56732D01*
X56337D01*
X56916Y56972D01*
X57359Y57415D01*
X57598Y57994D01*
Y58420D01*
X58083Y58830D01*
X58321Y58934D01*
X58328Y58931D01*
X58719D01*
X59081Y59081D01*
X59358Y59358D01*
X59508Y59719D01*
Y59951D01*
X59571Y60031D01*
X59923Y60303D01*
X60223Y60442D01*
X60336Y60395D01*
X60727D01*
X61089Y60545D01*
X61366Y60822D01*
X61516Y61184D01*
Y61575D01*
X61366Y61937D01*
X61089Y62214D01*
X60727Y62364D01*
D02*
G37*
G36*
X71337Y59882D02*
X70710D01*
X70132Y59642D01*
X69689Y59199D01*
X69449Y58620D01*
Y57994D01*
X69689Y57415D01*
X70132Y56972D01*
X70710Y56732D01*
X71337D01*
X71916Y56972D01*
X72359Y57415D01*
X72598Y57994D01*
Y58620D01*
X72359Y59199D01*
X71916Y59642D01*
X71337Y59882D01*
D02*
G37*
G36*
X66337D02*
X65710D01*
X65132Y59642D01*
X64689Y59199D01*
X64449Y58620D01*
Y57994D01*
X64689Y57415D01*
X65132Y56972D01*
X65710Y56732D01*
X66337D01*
X66916Y56972D01*
X67359Y57415D01*
X67598Y57994D01*
Y58620D01*
X67359Y59199D01*
X66916Y59642D01*
X66337Y59882D01*
D02*
G37*
G36*
X51337D02*
X50710D01*
X50132Y59642D01*
X49689Y59199D01*
X49449Y58620D01*
Y57994D01*
X49689Y57415D01*
X50132Y56972D01*
X50710Y56732D01*
X51337D01*
X51916Y56972D01*
X52359Y57415D01*
X52598Y57994D01*
Y58620D01*
X52359Y59199D01*
X51916Y59642D01*
X51337Y59882D01*
D02*
G37*
G36*
X56593Y55315D02*
X56202D01*
X55840Y55165D01*
X55563Y54888D01*
X55413Y54527D01*
Y54135D01*
X55563Y53773D01*
X55840Y53496D01*
X56202Y53347D01*
X56593D01*
X56955Y53496D01*
X57232Y53773D01*
X57382Y54135D01*
Y54527D01*
X57232Y54888D01*
X56955Y55165D01*
X56593Y55315D01*
D02*
G37*
G36*
X63286Y54734D02*
X62895D01*
X62533Y54584D01*
X62256Y54307D01*
X62106Y53946D01*
Y53554D01*
X62256Y53192D01*
X62533Y52915D01*
X62895Y52766D01*
X63286D01*
X63648Y52915D01*
X63925Y53192D01*
X64075Y53554D01*
Y53946D01*
X63925Y54307D01*
X63648Y54584D01*
X63286Y54734D01*
D02*
G37*
G36*
X71337Y54882D02*
X70710D01*
X70132Y54642D01*
X69689Y54199D01*
X69449Y53620D01*
Y52994D01*
X69689Y52415D01*
X70132Y51972D01*
X70710Y51732D01*
X71337D01*
X71916Y51972D01*
X72359Y52415D01*
X72598Y52994D01*
Y53620D01*
X72359Y54199D01*
X71916Y54642D01*
X71337Y54882D01*
D02*
G37*
G36*
X51337D02*
X50710D01*
X50132Y54642D01*
X49689Y54199D01*
X49449Y53620D01*
Y52994D01*
X49689Y52415D01*
X50132Y51972D01*
X50710Y51732D01*
X51337D01*
X51916Y51972D01*
X52359Y52415D01*
X52598Y52994D01*
Y53620D01*
X52359Y54199D01*
X51916Y54642D01*
X51337Y54882D01*
D02*
G37*
G36*
X71337Y49882D02*
X70710D01*
X70132Y49642D01*
X69689Y49199D01*
X69449Y48620D01*
Y47994D01*
X69689Y47415D01*
X70132Y46972D01*
X70710Y46732D01*
X71337D01*
X71916Y46972D01*
X72359Y47415D01*
X72598Y47994D01*
Y48620D01*
X72359Y49199D01*
X71916Y49642D01*
X71337Y49882D01*
D02*
G37*
G36*
X51337D02*
X50710D01*
X50132Y49642D01*
X49689Y49199D01*
X49449Y48620D01*
Y47994D01*
X49689Y47415D01*
X50132Y46972D01*
X50710Y46732D01*
X51337D01*
X51916Y46972D01*
X52359Y47415D01*
X52598Y47994D01*
Y48620D01*
X52359Y49199D01*
X51916Y49642D01*
X51337Y49882D01*
D02*
G37*
G36*
X61258Y46237D02*
X60866D01*
X60505Y46088D01*
X60228Y45811D01*
X60078Y45449D01*
Y45057D01*
X60228Y44696D01*
X60505Y44419D01*
X60866Y44269D01*
X61258D01*
X61620Y44419D01*
X61897Y44696D01*
X62046Y45057D01*
Y45449D01*
X61897Y45811D01*
X61620Y46088D01*
X61258Y46237D01*
D02*
G37*
G36*
X71337Y44882D02*
X70710D01*
X70132Y44642D01*
X69689Y44199D01*
X69449Y43620D01*
Y42994D01*
X69689Y42415D01*
X70132Y41972D01*
X70710Y41732D01*
X71337D01*
X71916Y41972D01*
X72359Y42415D01*
X72598Y42994D01*
Y43620D01*
X72359Y44199D01*
X71916Y44642D01*
X71337Y44882D01*
D02*
G37*
G36*
X60235Y43504D02*
X59844D01*
X59482Y43354D01*
X59205Y43077D01*
X59055Y42715D01*
Y42324D01*
X59205Y41962D01*
X59482Y41685D01*
X59844Y41535D01*
X60235D01*
X60597Y41685D01*
X60874Y41962D01*
X61024Y42324D01*
Y42715D01*
X60874Y43077D01*
X60597Y43354D01*
X60235Y43504D01*
D02*
G37*
G36*
X49353Y41465D02*
X48962D01*
X48600Y41315D01*
X48323Y41039D01*
X48173Y40677D01*
Y40285D01*
X48323Y39923D01*
X48600Y39647D01*
X48962Y39497D01*
X49353D01*
X49715Y39647D01*
X49992Y39923D01*
X50142Y40285D01*
Y40677D01*
X49992Y41039D01*
X49715Y41315D01*
X49353Y41465D01*
D02*
G37*
G36*
X53952Y40874D02*
X53560D01*
X53198Y40724D01*
X52922Y40447D01*
X52772Y40086D01*
Y39694D01*
X52922Y39332D01*
X53198Y39055D01*
X53560Y38906D01*
X53693Y38743D01*
X53974Y38128D01*
X53899Y37946D01*
Y37554D01*
X54049Y37192D01*
X54326Y36915D01*
X54688Y36766D01*
X55079D01*
X55441Y36915D01*
X55718Y37192D01*
X55868Y37554D01*
Y37946D01*
X55718Y38307D01*
X55441Y38584D01*
X55079Y38734D01*
X54947Y38896D01*
X54665Y39512D01*
X54740Y39694D01*
Y40086D01*
X54590Y40447D01*
X54314Y40724D01*
X53952Y40874D01*
D02*
G37*
G36*
X64334Y35560D02*
X63943D01*
X63581Y35410D01*
X63304Y35133D01*
X63154Y34771D01*
Y34380D01*
X63304Y34018D01*
X63581Y33741D01*
X63943Y33591D01*
X64334D01*
X64696Y33741D01*
X64973Y34018D01*
X65123Y34380D01*
Y34771D01*
X64973Y35133D01*
X64696Y35410D01*
X64334Y35560D01*
D02*
G37*
G36*
X59494Y34407D02*
X59103D01*
X58741Y34257D01*
X58464Y33980D01*
X58314Y33618D01*
Y33227D01*
X58464Y32865D01*
X58741Y32588D01*
X59103Y32438D01*
X59494D01*
X59856Y32588D01*
X60133Y32865D01*
X60283Y33227D01*
Y33618D01*
X60133Y33980D01*
X59856Y34257D01*
X59494Y34407D01*
D02*
G37*
G36*
X51337Y34882D02*
X50710D01*
X50132Y34642D01*
X49689Y34199D01*
X49449Y33620D01*
Y32994D01*
X49689Y32415D01*
X50132Y31972D01*
X50710Y31732D01*
X51337D01*
X51916Y31972D01*
X52359Y32415D01*
X52598Y32994D01*
Y33620D01*
X52359Y34199D01*
X51916Y34642D01*
X51337Y34882D01*
D02*
G37*
G36*
X61163Y32012D02*
X60772D01*
X60410Y31863D01*
X60133Y31586D01*
X59983Y31224D01*
Y30832D01*
X60133Y30471D01*
X60410Y30194D01*
X60772Y30044D01*
X61163D01*
X61525Y30194D01*
X61802Y30471D01*
X61952Y30832D01*
Y31224D01*
X61802Y31586D01*
X61525Y31863D01*
X61163Y32012D01*
D02*
G37*
G36*
X66184Y30744D02*
X65792D01*
X65430Y30594D01*
X65154Y30317D01*
X65004Y29955D01*
Y29564D01*
X65154Y29202D01*
X65430Y28925D01*
X65792Y28775D01*
X66184D01*
X66545Y28925D01*
X66822Y29202D01*
X66972Y29564D01*
Y29955D01*
X66822Y30317D01*
X66545Y30594D01*
X66184Y30744D01*
D02*
G37*
G36*
X71337Y29882D02*
X70710D01*
X70132Y29642D01*
X69689Y29199D01*
X69449Y28620D01*
Y27994D01*
X69689Y27415D01*
X70132Y26972D01*
X70710Y26732D01*
X71337D01*
X71916Y26972D01*
X72359Y27415D01*
X72598Y27994D01*
Y28620D01*
X72359Y29199D01*
X71916Y29642D01*
X71337Y29882D01*
D02*
G37*
G36*
X58312Y28122D02*
X57921D01*
X57559Y27972D01*
X57282Y27695D01*
X57132Y27334D01*
Y26942D01*
X57282Y26580D01*
X57559Y26303D01*
X57921Y26153D01*
X58312D01*
X58674Y26303D01*
X58951Y26580D01*
X59101Y26942D01*
Y27334D01*
X58951Y27695D01*
X58674Y27972D01*
X58312Y28122D01*
D02*
G37*
G36*
X59516Y20082D02*
X59125D01*
X58763Y19932D01*
X58486Y19655D01*
X58336Y19293D01*
Y18902D01*
X58486Y18540D01*
X58763Y18263D01*
X59125Y18113D01*
X59516D01*
X59878Y18263D01*
X60155Y18540D01*
X60305Y18902D01*
Y19293D01*
X60155Y19655D01*
X59878Y19932D01*
X59516Y20082D01*
D02*
G37*
G36*
X23326Y62364D02*
X22934D01*
X22572Y62214D01*
X22295Y61937D01*
X22146Y61575D01*
Y61344D01*
X22083Y61264D01*
X21731Y60992D01*
X21430Y60853D01*
X21318Y60899D01*
X20926D01*
X20905Y60890D01*
X20682Y60980D01*
X20177Y61391D01*
Y61575D01*
X20027Y61937D01*
X19750Y62214D01*
X19389Y62364D01*
X18997D01*
X18635Y62214D01*
X18358Y61937D01*
X18209Y61575D01*
Y61184D01*
X18358Y60822D01*
X18511Y60669D01*
X18371Y60041D01*
X18281Y59870D01*
X17730Y59642D01*
X17287Y59199D01*
X17047Y58620D01*
Y57994D01*
X17287Y57415D01*
X17730Y56972D01*
X18309Y56732D01*
X18935D01*
X19514Y56972D01*
X19957Y57415D01*
X20197Y57994D01*
Y58420D01*
X20681Y58830D01*
X20919Y58934D01*
X20926Y58931D01*
X21318D01*
X21680Y59081D01*
X21957Y59358D01*
X22106Y59719D01*
Y59951D01*
X22169Y60031D01*
X22521Y60303D01*
X22821Y60442D01*
X22934Y60395D01*
X23326D01*
X23687Y60545D01*
X23964Y60822D01*
X24114Y61184D01*
Y61575D01*
X23964Y61937D01*
X23687Y62214D01*
X23326Y62364D01*
D02*
G37*
G36*
X33935Y59882D02*
X33309D01*
X32730Y59642D01*
X32287Y59199D01*
X32047Y58620D01*
Y57994D01*
X32287Y57415D01*
X32730Y56972D01*
X33309Y56732D01*
X33935D01*
X34514Y56972D01*
X34957Y57415D01*
X35197Y57994D01*
Y58620D01*
X34957Y59199D01*
X34514Y59642D01*
X33935Y59882D01*
D02*
G37*
G36*
X28935D02*
X28309D01*
X27730Y59642D01*
X27287Y59199D01*
X27047Y58620D01*
Y57994D01*
X27287Y57415D01*
X27730Y56972D01*
X28309Y56732D01*
X28935D01*
X29514Y56972D01*
X29957Y57415D01*
X30197Y57994D01*
Y58620D01*
X29957Y59199D01*
X29514Y59642D01*
X28935Y59882D01*
D02*
G37*
G36*
X13935D02*
X13309D01*
X12730Y59642D01*
X12287Y59199D01*
X12047Y58620D01*
Y57994D01*
X12287Y57415D01*
X12730Y56972D01*
X13309Y56732D01*
X13935D01*
X14514Y56972D01*
X14957Y57415D01*
X15197Y57994D01*
Y58620D01*
X14957Y59199D01*
X14514Y59642D01*
X13935Y59882D01*
D02*
G37*
G36*
X19192Y55315D02*
X18800D01*
X18439Y55165D01*
X18162Y54888D01*
X18012Y54527D01*
Y54135D01*
X18162Y53773D01*
X18439Y53496D01*
X18800Y53347D01*
X19192D01*
X19554Y53496D01*
X19830Y53773D01*
X19980Y54135D01*
Y54527D01*
X19830Y54888D01*
X19554Y55165D01*
X19192Y55315D01*
D02*
G37*
G36*
X25885Y54734D02*
X25493D01*
X25131Y54584D01*
X24855Y54307D01*
X24705Y53946D01*
Y53554D01*
X24855Y53192D01*
X25131Y52915D01*
X25493Y52766D01*
X25885D01*
X26247Y52915D01*
X26523Y53192D01*
X26673Y53554D01*
Y53946D01*
X26523Y54307D01*
X26247Y54584D01*
X25885Y54734D01*
D02*
G37*
G36*
X33935Y54882D02*
X33309D01*
X32730Y54642D01*
X32287Y54199D01*
X32047Y53620D01*
Y52994D01*
X32287Y52415D01*
X32730Y51972D01*
X33309Y51732D01*
X33935D01*
X34514Y51972D01*
X34957Y52415D01*
X35197Y52994D01*
Y53620D01*
X34957Y54199D01*
X34514Y54642D01*
X33935Y54882D01*
D02*
G37*
G36*
X13935D02*
X13309D01*
X12730Y54642D01*
X12287Y54199D01*
X12047Y53620D01*
Y52994D01*
X12287Y52415D01*
X12730Y51972D01*
X13309Y51732D01*
X13935D01*
X14514Y51972D01*
X14957Y52415D01*
X15197Y52994D01*
Y53620D01*
X14957Y54199D01*
X14514Y54642D01*
X13935Y54882D01*
D02*
G37*
G36*
X33935Y49882D02*
X33309D01*
X32730Y49642D01*
X32287Y49199D01*
X32047Y48620D01*
Y47994D01*
X32287Y47415D01*
X32730Y46972D01*
X33309Y46732D01*
X33935D01*
X34514Y46972D01*
X34957Y47415D01*
X35197Y47994D01*
Y48620D01*
X34957Y49199D01*
X34514Y49642D01*
X33935Y49882D01*
D02*
G37*
G36*
X13935D02*
X13309D01*
X12730Y49642D01*
X12287Y49199D01*
X12047Y48620D01*
Y47994D01*
X12287Y47415D01*
X12730Y46972D01*
X13309Y46732D01*
X13935D01*
X14514Y46972D01*
X14957Y47415D01*
X15197Y47994D01*
Y48620D01*
X14957Y49199D01*
X14514Y49642D01*
X13935Y49882D01*
D02*
G37*
G36*
X23856Y46237D02*
X23465D01*
X23103Y46088D01*
X22826Y45811D01*
X22676Y45449D01*
Y45057D01*
X22826Y44696D01*
X23103Y44419D01*
X23465Y44269D01*
X23856D01*
X24218Y44419D01*
X24495Y44696D01*
X24645Y45057D01*
Y45449D01*
X24495Y45811D01*
X24218Y46088D01*
X23856Y46237D01*
D02*
G37*
G36*
X33935Y44882D02*
X33309D01*
X32730Y44642D01*
X32287Y44199D01*
X32047Y43620D01*
Y42994D01*
X32287Y42415D01*
X32730Y41972D01*
X33309Y41732D01*
X33935D01*
X34514Y41972D01*
X34957Y42415D01*
X35197Y42994D01*
Y43620D01*
X34957Y44199D01*
X34514Y44642D01*
X33935Y44882D01*
D02*
G37*
G36*
X22834Y43504D02*
X22442D01*
X22080Y43354D01*
X21803Y43077D01*
X21654Y42715D01*
Y42324D01*
X21803Y41962D01*
X22080Y41685D01*
X22442Y41535D01*
X22834D01*
X23195Y41685D01*
X23472Y41962D01*
X23622Y42324D01*
Y42715D01*
X23472Y43077D01*
X23195Y43354D01*
X22834Y43504D01*
D02*
G37*
G36*
X11952Y41465D02*
X11560D01*
X11198Y41315D01*
X10922Y41039D01*
X10772Y40677D01*
Y40285D01*
X10922Y39923D01*
X11198Y39647D01*
X11560Y39497D01*
X11952D01*
X12314Y39647D01*
X12591Y39923D01*
X12740Y40285D01*
Y40677D01*
X12591Y41039D01*
X12314Y41315D01*
X11952Y41465D01*
D02*
G37*
G36*
X16550Y40874D02*
X16159D01*
X15797Y40724D01*
X15520Y40447D01*
X15370Y40086D01*
Y39694D01*
X15520Y39332D01*
X15797Y39055D01*
X16159Y38906D01*
X16291Y38743D01*
X16573Y38128D01*
X16498Y37946D01*
Y37554D01*
X16647Y37192D01*
X16924Y36915D01*
X17286Y36766D01*
X17677D01*
X18039Y36915D01*
X18316Y37192D01*
X18466Y37554D01*
Y37946D01*
X18316Y38307D01*
X18039Y38584D01*
X17677Y38734D01*
X17545Y38896D01*
X17263Y39512D01*
X17339Y39694D01*
Y40086D01*
X17189Y40447D01*
X16912Y40724D01*
X16550Y40874D01*
D02*
G37*
G36*
X26933Y35560D02*
X26541D01*
X26180Y35410D01*
X25903Y35133D01*
X25753Y34771D01*
Y34380D01*
X25903Y34018D01*
X26180Y33741D01*
X26541Y33591D01*
X26933D01*
X27295Y33741D01*
X27571Y34018D01*
X27721Y34380D01*
Y34771D01*
X27571Y35133D01*
X27295Y35410D01*
X26933Y35560D01*
D02*
G37*
G36*
X22093Y34407D02*
X21701D01*
X21339Y34257D01*
X21062Y33980D01*
X20913Y33618D01*
Y33227D01*
X21062Y32865D01*
X21339Y32588D01*
X21701Y32438D01*
X22093D01*
X22454Y32588D01*
X22731Y32865D01*
X22881Y33227D01*
Y33618D01*
X22731Y33980D01*
X22454Y34257D01*
X22093Y34407D01*
D02*
G37*
G36*
X13935Y34882D02*
X13309D01*
X12730Y34642D01*
X12287Y34199D01*
X12047Y33620D01*
Y32994D01*
X12287Y32415D01*
X12730Y31972D01*
X13309Y31732D01*
X13935D01*
X14514Y31972D01*
X14957Y32415D01*
X15197Y32994D01*
Y33620D01*
X14957Y34199D01*
X14514Y34642D01*
X13935Y34882D01*
D02*
G37*
G36*
X23761Y32012D02*
X23370D01*
X23008Y31863D01*
X22731Y31586D01*
X22581Y31224D01*
Y30832D01*
X22731Y30471D01*
X23008Y30194D01*
X23370Y30044D01*
X23761D01*
X24123Y30194D01*
X24400Y30471D01*
X24550Y30832D01*
Y31224D01*
X24400Y31586D01*
X24123Y31863D01*
X23761Y32012D01*
D02*
G37*
G36*
X28782Y30744D02*
X28391D01*
X28029Y30594D01*
X27752Y30317D01*
X27602Y29955D01*
Y29564D01*
X27752Y29202D01*
X28029Y28925D01*
X28391Y28775D01*
X28782D01*
X29144Y28925D01*
X29421Y29202D01*
X29571Y29564D01*
Y29955D01*
X29421Y30317D01*
X29144Y30594D01*
X28782Y30744D01*
D02*
G37*
G36*
X33935Y29882D02*
X33309D01*
X32730Y29642D01*
X32287Y29199D01*
X32047Y28620D01*
Y27994D01*
X32287Y27415D01*
X32730Y26972D01*
X33309Y26732D01*
X33935D01*
X34514Y26972D01*
X34957Y27415D01*
X35197Y27994D01*
Y28620D01*
X34957Y29199D01*
X34514Y29642D01*
X33935Y29882D01*
D02*
G37*
G36*
X20911Y28122D02*
X20519D01*
X20158Y27972D01*
X19881Y27695D01*
X19731Y27334D01*
Y26942D01*
X19881Y26580D01*
X20158Y26303D01*
X20519Y26153D01*
X20911D01*
X21273Y26303D01*
X21550Y26580D01*
X21699Y26942D01*
Y27334D01*
X21550Y27695D01*
X21273Y27972D01*
X20911Y28122D01*
D02*
G37*
G36*
X22115Y20082D02*
X21723D01*
X21361Y19932D01*
X21084Y19655D01*
X20935Y19293D01*
Y18902D01*
X21084Y18540D01*
X21361Y18263D01*
X21723Y18113D01*
X22115D01*
X22476Y18263D01*
X22753Y18540D01*
X22903Y18902D01*
Y19293D01*
X22753Y19655D01*
X22476Y19932D01*
X22115Y20082D01*
D02*
G37*
%LPD*%
D15*
X13908Y14870D02*
G03*
X14308Y14841I347J2038D01*
G01*
X13133Y15171D02*
G03*
X13902Y14871I1122J1736D01*
G01*
X29319Y15223D02*
G03*
X30390Y15975I-30J1181D01*
G01*
X14308Y14841D02*
X29319Y15223D01*
X11024Y16535D02*
X13133Y15171D01*
X13902Y14871D02*
X13908Y14870D01*
X30390Y15975D02*
X32282Y20862D01*
X32282Y20862D02*
X32283Y20866D01*
Y20866D02*
Y20866D01*
X51310Y14870D02*
G03*
X51710Y14841I347J2038D01*
G01*
X50535Y15171D02*
G03*
X51304Y14871I1122J1736D01*
G01*
X66721Y15223D02*
G03*
X67792Y15975I-30J1181D01*
G01*
X51710Y14841D02*
X66721Y15223D01*
X48425Y16535D02*
X50535Y15171D01*
X51304Y14871D02*
X51310Y14870D01*
X67792Y15975D02*
X69683Y20862D01*
X69683Y20862D02*
X69685Y20866D01*
Y20866D02*
Y20866D01*
X88712Y14870D02*
G03*
X89111Y14841I347J2038D01*
G01*
X87937Y15171D02*
G03*
X88705Y14871I1122J1736D01*
G01*
X104122Y15223D02*
G03*
X105193Y15975I-30J1181D01*
G01*
X89111Y14841D02*
X104122Y15223D01*
X85827Y16535D02*
X87937Y15171D01*
X88705Y14871D02*
X88712Y14870D01*
X105193Y15975D02*
X107085Y20862D01*
X107085Y20862D02*
X107087Y20866D01*
Y20866D02*
Y20866D01*
X126113Y14870D02*
G03*
X126513Y14841I347J2038D01*
G01*
X125338Y15171D02*
G03*
X126107Y14871I1122J1736D01*
G01*
X144486Y20862D02*
G03*
X144487Y20862I-1100J431D01*
G01*
X141524Y15223D02*
G03*
X142595Y15975I-30J1181D01*
G01*
X126513Y14841D02*
X141524Y15223D01*
X123228Y16535D02*
X125338Y15171D01*
X126107Y14871D02*
X126113Y14870D01*
X142595Y15975D02*
X144486Y20862D01*
X144486Y20862D02*
X144488Y20866D01*
Y20866D02*
Y20866D01*
X163515Y14870D02*
G03*
X163914Y14841I347J2038D01*
G01*
X162740Y15171D02*
G03*
X163508Y14871I1122J1736D01*
G01*
X178926Y15223D02*
G03*
X179996Y15975I-30J1181D01*
G01*
X163914Y14841D02*
X178926Y15223D01*
X160630Y16535D02*
X162740Y15171D01*
X163508Y14871D02*
X163515Y14870D01*
X179996Y15975D02*
X181888Y20862D01*
X181888Y20862D02*
X181890Y20866D01*
Y20866D02*
Y20866D01*
X13908Y74318D02*
G03*
X14308Y74290I347J2038D01*
G01*
X13133Y74620D02*
G03*
X13902Y74319I1122J1736D01*
G01*
X32282Y80310D02*
G03*
X32282Y80311I-1100J431D01*
G01*
X29319Y74671D02*
G03*
X30390Y75424I-30J1181D01*
G01*
X14308Y74290D02*
X29319Y74671D01*
X11024Y75984D02*
X13133Y74620D01*
X13902Y74319D02*
X13908Y74318D01*
X30390Y75424D02*
X32282Y80310D01*
X32282Y80311D02*
X32283Y80315D01*
Y80315D02*
Y80315D01*
X51310Y74318D02*
G03*
X51710Y74290I347J2038D01*
G01*
X50535Y74620D02*
G03*
X51304Y74319I1122J1736D01*
G01*
X69683Y80310D02*
G03*
X69683Y80311I-1100J431D01*
G01*
X66721Y74671D02*
G03*
X67792Y75424I-30J1181D01*
G01*
X51710Y74290D02*
X66721Y74671D01*
X48425Y75984D02*
X50535Y74620D01*
X51304Y74319D02*
X51310Y74318D01*
X67792Y75424D02*
X69683Y80310D01*
X69683Y80311D02*
X69685Y80315D01*
Y80315D02*
Y80315D01*
X88712Y74318D02*
G03*
X89111Y74290I347J2038D01*
G01*
X87937Y74620D02*
G03*
X88705Y74319I1122J1736D01*
G01*
X107085Y80310D02*
G03*
X107085Y80311I-1100J431D01*
G01*
X104122Y74671D02*
G03*
X105193Y75424I-30J1181D01*
G01*
X89111Y74290D02*
X104122Y74671D01*
X85827Y75984D02*
X87937Y74620D01*
X88705Y74319D02*
X88712Y74318D01*
X105193Y75424D02*
X107085Y80310D01*
X107085Y80311D02*
X107087Y80315D01*
Y80315D02*
Y80315D01*
X126113Y74318D02*
G03*
X126513Y74290I347J2038D01*
G01*
X125338Y74620D02*
G03*
X126107Y74319I1122J1736D01*
G01*
X144486Y80310D02*
G03*
X144487Y80311I-1100J431D01*
G01*
X141524Y74671D02*
G03*
X142595Y75424I-30J1181D01*
G01*
X126513Y74290D02*
X141524Y74671D01*
X123228Y75984D02*
X125338Y74620D01*
X126107Y74319D02*
X126113Y74318D01*
X142595Y75424D02*
X144486Y80310D01*
X144486Y80311D02*
X144488Y80315D01*
Y80315D02*
Y80315D01*
X163515Y74318D02*
G03*
X163914Y74290I347J2038D01*
G01*
X162740Y74620D02*
G03*
X163508Y74319I1122J1736D01*
G01*
X181888Y80310D02*
G03*
X181888Y80311I-1100J431D01*
G01*
X178926Y74671D02*
G03*
X179996Y75424I-30J1181D01*
G01*
X163914Y74290D02*
X178926Y74671D01*
X160630Y75984D02*
X162740Y74620D01*
X163508Y74319D02*
X163515Y74318D01*
X179996Y75424D02*
X181888Y80310D01*
X181888Y80311D02*
X181890Y80315D01*
Y80315D02*
Y80315D01*
X13908Y133767D02*
G03*
X14308Y133739I347J2038D01*
G01*
X13133Y134069D02*
G03*
X13902Y133768I1122J1736D01*
G01*
X32282Y139759D02*
G03*
X32282Y139760I-1100J431D01*
G01*
X29319Y134120D02*
G03*
X30390Y134873I-30J1181D01*
G01*
X14308Y133739D02*
X29319Y134120D01*
X11024Y135433D02*
X13133Y134069D01*
X13902Y133768D02*
X13908Y133767D01*
X30390Y134873D02*
X32282Y139759D01*
X32282Y139760D02*
X32283Y139764D01*
Y139764D02*
Y139764D01*
X51310Y133767D02*
G03*
X51710Y133739I347J2038D01*
G01*
X50535Y134069D02*
G03*
X51304Y133768I1122J1736D01*
G01*
X69683Y139759D02*
G03*
X69683Y139760I-1100J431D01*
G01*
X66721Y134120D02*
G03*
X67792Y134873I-30J1181D01*
G01*
X51710Y133739D02*
X66721Y134120D01*
X48425Y135433D02*
X50535Y134069D01*
X51304Y133768D02*
X51310Y133767D01*
X67792Y134873D02*
X69683Y139759D01*
X69683Y139760D02*
X69685Y139764D01*
Y139764D02*
Y139764D01*
X88712Y133767D02*
G03*
X89111Y133739I347J2038D01*
G01*
X87937Y134069D02*
G03*
X88705Y133768I1122J1736D01*
G01*
X107085Y139759D02*
G03*
X107085Y139760I-1100J431D01*
G01*
X104122Y134120D02*
G03*
X105193Y134873I-30J1181D01*
G01*
X89111Y133739D02*
X104122Y134120D01*
X85827Y135433D02*
X87937Y134069D01*
X88705Y133768D02*
X88712Y133767D01*
X105193Y134873D02*
X107085Y139759D01*
X107085Y139760D02*
X107087Y139764D01*
Y139764D02*
Y139764D01*
X126113Y133767D02*
G03*
X126513Y133739I347J2038D01*
G01*
X125338Y134069D02*
G03*
X126107Y133768I1122J1736D01*
G01*
X144486Y139759D02*
G03*
X144487Y139760I-1100J431D01*
G01*
X141524Y134120D02*
G03*
X142595Y134873I-30J1181D01*
G01*
X126513Y133739D02*
X141524Y134120D01*
X123228Y135433D02*
X125338Y134069D01*
X126107Y133768D02*
X126113Y133767D01*
X142595Y134873D02*
X144486Y139759D01*
X144486Y139760D02*
X144488Y139764D01*
Y139764D02*
Y139764D01*
X163515Y133767D02*
G03*
X163914Y133739I347J2038D01*
G01*
X162740Y134069D02*
G03*
X163508Y133768I1122J1736D01*
G01*
X181888Y139759D02*
G03*
X181888Y139760I-1100J431D01*
G01*
X178926Y134120D02*
G03*
X179996Y134873I-30J1181D01*
G01*
X163914Y133739D02*
X178926Y134120D01*
X160630Y135433D02*
X162740Y134069D01*
X163508Y133768D02*
X163515Y133767D01*
X179996Y134873D02*
X181888Y139759D01*
X181888Y139760D02*
X181890Y139764D01*
Y139764D02*
Y139764D01*
D31*
X34095Y33307D02*
D03*
X13150Y28307D02*
D03*
Y43307D02*
D03*
X71496Y33307D02*
D03*
X50551Y28307D02*
D03*
Y43307D02*
D03*
X108898Y33307D02*
D03*
X87953Y28307D02*
D03*
Y43307D02*
D03*
X146299Y33307D02*
D03*
X125354Y28307D02*
D03*
Y43307D02*
D03*
X183701Y33307D02*
D03*
X162756Y28307D02*
D03*
Y43307D02*
D03*
X34095Y92756D02*
D03*
X13150Y87756D02*
D03*
Y102756D02*
D03*
X71496Y92756D02*
D03*
X50551Y87756D02*
D03*
Y102756D02*
D03*
X108898Y92756D02*
D03*
X87953Y87756D02*
D03*
Y102756D02*
D03*
X146299Y92756D02*
D03*
X125354Y87756D02*
D03*
Y102756D02*
D03*
X183701Y92756D02*
D03*
X162756Y87756D02*
D03*
Y102756D02*
D03*
X34095Y152205D02*
D03*
X13150Y147205D02*
D03*
Y162205D02*
D03*
X71496Y152205D02*
D03*
X50551Y147205D02*
D03*
Y162205D02*
D03*
X108898Y152205D02*
D03*
X87953Y147205D02*
D03*
Y162205D02*
D03*
X146299Y152205D02*
D03*
X125354Y147205D02*
D03*
Y162205D02*
D03*
X183701Y152205D02*
D03*
X162756Y147205D02*
D03*
Y162205D02*
D03*
D32*
X23622Y57835D02*
D03*
X61024D02*
D03*
X98425D02*
D03*
X135827D02*
D03*
X173228D02*
D03*
X23622Y117283D02*
D03*
X61024D02*
D03*
X98425D02*
D03*
X135827D02*
D03*
X173228D02*
D03*
X23622Y176732D02*
D03*
X61024D02*
D03*
X98425D02*
D03*
X135827D02*
D03*
X173228D02*
D03*
D33*
X32283Y20866D02*
D03*
X23228Y54134D02*
D03*
X29823Y63189D02*
D03*
X14567Y62992D02*
D03*
X19685Y34252D02*
D03*
X28838Y27285D02*
D03*
X19094Y39567D02*
D03*
X25098Y32874D02*
D03*
X21946Y21460D02*
D03*
X24902Y43209D02*
D03*
X22250Y25191D02*
D03*
X14256Y16907D02*
D03*
X32283Y24803D02*
D03*
X11811Y23622D02*
D03*
X19212Y19921D02*
D03*
X11024Y16535D02*
D03*
X36220D02*
D03*
X69685Y20866D02*
D03*
X60630Y54134D02*
D03*
X67224Y63189D02*
D03*
X51968Y62992D02*
D03*
X57087Y34252D02*
D03*
X66239Y27285D02*
D03*
X56496Y39567D02*
D03*
X62500Y32874D02*
D03*
X59348Y21460D02*
D03*
X62303Y43209D02*
D03*
X59652Y25191D02*
D03*
X51657Y16907D02*
D03*
X69685Y24803D02*
D03*
X49213Y23622D02*
D03*
X56614Y19921D02*
D03*
X48425Y16535D02*
D03*
X73622D02*
D03*
X107087Y20866D02*
D03*
X98032Y54134D02*
D03*
X104626Y63189D02*
D03*
X89370Y62992D02*
D03*
X94488Y34252D02*
D03*
X103641Y27285D02*
D03*
X93898Y39567D02*
D03*
X99902Y32874D02*
D03*
X96750Y21460D02*
D03*
X99705Y43209D02*
D03*
X97053Y25191D02*
D03*
X89059Y16907D02*
D03*
X107087Y24803D02*
D03*
X86614Y23622D02*
D03*
X94016Y19921D02*
D03*
X85827Y16535D02*
D03*
X111024D02*
D03*
X144488Y20866D02*
D03*
X135433Y54134D02*
D03*
X142028Y63189D02*
D03*
X126772Y62992D02*
D03*
X131890Y34252D02*
D03*
X141043Y27285D02*
D03*
X131299Y39567D02*
D03*
X137303Y32874D02*
D03*
X134151Y21460D02*
D03*
X137106Y43209D02*
D03*
X134455Y25191D02*
D03*
X126460Y16907D02*
D03*
X144488Y24803D02*
D03*
X124016Y23622D02*
D03*
X131417Y19921D02*
D03*
X123228Y16535D02*
D03*
X148425D02*
D03*
X181890Y20866D02*
D03*
X172835Y54134D02*
D03*
X179429Y63189D02*
D03*
X164173Y62992D02*
D03*
X169291Y34252D02*
D03*
X178444Y27285D02*
D03*
X168701Y39567D02*
D03*
X174705Y32874D02*
D03*
X171553Y21460D02*
D03*
X174508Y43209D02*
D03*
X171856Y25191D02*
D03*
X163862Y16907D02*
D03*
X181890Y24803D02*
D03*
X161417Y23622D02*
D03*
X168819Y19921D02*
D03*
X160630Y16535D02*
D03*
X185827D02*
D03*
X32283Y80315D02*
D03*
X23228Y113583D02*
D03*
X29823Y122638D02*
D03*
X14567Y122441D02*
D03*
X19685Y93701D02*
D03*
X28838Y86734D02*
D03*
X19094Y99016D02*
D03*
X25098Y92323D02*
D03*
X21946Y80908D02*
D03*
X24902Y102657D02*
D03*
X22250Y84640D02*
D03*
X14256Y76356D02*
D03*
X32283Y84252D02*
D03*
X11811Y83071D02*
D03*
X19212Y79370D02*
D03*
X11024Y75984D02*
D03*
X36220D02*
D03*
X69685Y80315D02*
D03*
X60630Y113583D02*
D03*
X67224Y122638D02*
D03*
X51968Y122441D02*
D03*
X57087Y93701D02*
D03*
X66239Y86734D02*
D03*
X56496Y99016D02*
D03*
X62500Y92323D02*
D03*
X59348Y80908D02*
D03*
X62303Y102657D02*
D03*
X59652Y84640D02*
D03*
X51657Y76356D02*
D03*
X69685Y84252D02*
D03*
X49213Y83071D02*
D03*
X56614Y79370D02*
D03*
X48425Y75984D02*
D03*
X73622D02*
D03*
X107087Y80315D02*
D03*
X98032Y113583D02*
D03*
X104626Y122638D02*
D03*
X89370Y122441D02*
D03*
X94488Y93701D02*
D03*
X103641Y86734D02*
D03*
X93898Y99016D02*
D03*
X99902Y92323D02*
D03*
X96750Y80908D02*
D03*
X99705Y102657D02*
D03*
X97053Y84640D02*
D03*
X89059Y76356D02*
D03*
X107087Y84252D02*
D03*
X86614Y83071D02*
D03*
X94016Y79370D02*
D03*
X85827Y75984D02*
D03*
X111024D02*
D03*
X144488Y80315D02*
D03*
X135433Y113583D02*
D03*
X142028Y122638D02*
D03*
X126772Y122441D02*
D03*
X131890Y93701D02*
D03*
X141043Y86734D02*
D03*
X131299Y99016D02*
D03*
X137303Y92323D02*
D03*
X134151Y80908D02*
D03*
X137106Y102657D02*
D03*
X134455Y84640D02*
D03*
X126460Y76356D02*
D03*
X144488Y84252D02*
D03*
X124016Y83071D02*
D03*
X131417Y79370D02*
D03*
X123228Y75984D02*
D03*
X148425D02*
D03*
X181890Y80315D02*
D03*
X172835Y113583D02*
D03*
X179429Y122638D02*
D03*
X164173Y122441D02*
D03*
X169291Y93701D02*
D03*
X178444Y86734D02*
D03*
X168701Y99016D02*
D03*
X174705Y92323D02*
D03*
X171553Y80908D02*
D03*
X174508Y102657D02*
D03*
X171856Y84640D02*
D03*
X163862Y76356D02*
D03*
X181890Y84252D02*
D03*
X161417Y83071D02*
D03*
X168819Y79370D02*
D03*
X160630Y75984D02*
D03*
X185827D02*
D03*
X32283Y139764D02*
D03*
X23228Y173031D02*
D03*
X29823Y182087D02*
D03*
X14567Y181890D02*
D03*
X19685Y153150D02*
D03*
X28838Y146183D02*
D03*
X19094Y158465D02*
D03*
X25098Y151772D02*
D03*
X21946Y140357D02*
D03*
X24902Y162106D02*
D03*
X22250Y144088D02*
D03*
X14256Y135805D02*
D03*
X32283Y143701D02*
D03*
X11811Y142520D02*
D03*
X19212Y138819D02*
D03*
X11024Y135433D02*
D03*
X36220D02*
D03*
X69685Y139764D02*
D03*
X60630Y173031D02*
D03*
X67224Y182087D02*
D03*
X51968Y181890D02*
D03*
X57087Y153150D02*
D03*
X66239Y146183D02*
D03*
X56496Y158465D02*
D03*
X62500Y151772D02*
D03*
X59348Y140357D02*
D03*
X62303Y162106D02*
D03*
X59652Y144088D02*
D03*
X51657Y135805D02*
D03*
X69685Y143701D02*
D03*
X49213Y142520D02*
D03*
X56614Y138819D02*
D03*
X48425Y135433D02*
D03*
X73622D02*
D03*
X107087Y139764D02*
D03*
X98032Y173031D02*
D03*
X104626Y182087D02*
D03*
X89370Y181890D02*
D03*
X94488Y153150D02*
D03*
X103641Y146183D02*
D03*
X93898Y158465D02*
D03*
X99902Y151772D02*
D03*
X96750Y140357D02*
D03*
X99705Y162106D02*
D03*
X97053Y144088D02*
D03*
X89059Y135805D02*
D03*
X107087Y143701D02*
D03*
X86614Y142520D02*
D03*
X94016Y138819D02*
D03*
X85827Y135433D02*
D03*
X111024D02*
D03*
X144488Y139764D02*
D03*
X135433Y173031D02*
D03*
X142028Y182087D02*
D03*
X126772Y181890D02*
D03*
X131890Y153150D02*
D03*
X141043Y146183D02*
D03*
X131299Y158465D02*
D03*
X137303Y151772D02*
D03*
X134151Y140357D02*
D03*
X137106Y162106D02*
D03*
X134455Y144088D02*
D03*
X126460Y135805D02*
D03*
X144488Y143701D02*
D03*
X124016Y142520D02*
D03*
X131417Y138819D02*
D03*
X123228Y135433D02*
D03*
X148425D02*
D03*
X181890Y139764D02*
D03*
X172835Y173031D02*
D03*
X179429Y182087D02*
D03*
X164173Y181890D02*
D03*
X169291Y153150D02*
D03*
X178444Y146183D02*
D03*
X168701Y158465D02*
D03*
X174705Y151772D02*
D03*
X171553Y140357D02*
D03*
X174508Y162106D02*
D03*
X171856Y144088D02*
D03*
X163862Y135805D02*
D03*
X181890Y143701D02*
D03*
X161417Y142520D02*
D03*
X168819Y138819D02*
D03*
X160630Y135433D02*
D03*
X185827D02*
D03*
D34*
X32282Y20862D02*
D03*
X69683D02*
D03*
X107085D02*
D03*
X181888D02*
D03*
M02*
