G04*
G04 #@! TF.GenerationSoftware,Altium Limited,Altium Designer,21.5.1 (32)*
G04*
G04 Layer_Physical_Order=1*
G04 Layer_Color=255*
%FSLAX25Y25*%
%MOIN*%
G70*
G04*
G04 #@! TF.SameCoordinates,71E6ED38-6368-4ADE-B46C-8FBAD5B099F3*
G04*
G04*
G04 #@! TF.FilePolarity,Positive*
G04*
G01*
G75*
G04:AMPARAMS|DCode=10|XSize=39.37mil|YSize=35.43mil|CornerRadius=4.43mil|HoleSize=0mil|Usage=FLASHONLY|Rotation=270.000|XOffset=0mil|YOffset=0mil|HoleType=Round|Shape=RoundedRectangle|*
%AMROUNDEDRECTD10*
21,1,0.03937,0.02657,0,0,270.0*
21,1,0.03051,0.03543,0,0,270.0*
1,1,0.00886,-0.01329,-0.01526*
1,1,0.00886,-0.01329,0.01526*
1,1,0.00886,0.01329,0.01526*
1,1,0.00886,0.01329,-0.01526*
%
%ADD10ROUNDEDRECTD10*%
G04:AMPARAMS|DCode=11|XSize=39.37mil|YSize=35.43mil|CornerRadius=4.43mil|HoleSize=0mil|Usage=FLASHONLY|Rotation=180.000|XOffset=0mil|YOffset=0mil|HoleType=Round|Shape=RoundedRectangle|*
%AMROUNDEDRECTD11*
21,1,0.03937,0.02657,0,0,180.0*
21,1,0.03051,0.03543,0,0,180.0*
1,1,0.00886,-0.01526,0.01329*
1,1,0.00886,0.01526,0.01329*
1,1,0.00886,0.01526,-0.01329*
1,1,0.00886,-0.01526,-0.01329*
%
%ADD11ROUNDEDRECTD11*%
%ADD12R,0.02362X0.03937*%
G04:AMPARAMS|DCode=13|XSize=31.5mil|YSize=31.5mil|CornerRadius=3.94mil|HoleSize=0mil|Usage=FLASHONLY|Rotation=180.000|XOffset=0mil|YOffset=0mil|HoleType=Round|Shape=RoundedRectangle|*
%AMROUNDEDRECTD13*
21,1,0.03150,0.02362,0,0,180.0*
21,1,0.02362,0.03150,0,0,180.0*
1,1,0.00787,-0.01181,0.01181*
1,1,0.00787,0.01181,0.01181*
1,1,0.00787,0.01181,-0.01181*
1,1,0.00787,-0.01181,-0.01181*
%
%ADD13ROUNDEDRECTD13*%
G04:AMPARAMS|DCode=14|XSize=19.68mil|YSize=23.62mil|CornerRadius=1.97mil|HoleSize=0mil|Usage=FLASHONLY|Rotation=180.000|XOffset=0mil|YOffset=0mil|HoleType=Round|Shape=RoundedRectangle|*
%AMROUNDEDRECTD14*
21,1,0.01968,0.01968,0,0,180.0*
21,1,0.01575,0.02362,0,0,180.0*
1,1,0.00394,-0.00787,0.00984*
1,1,0.00394,0.00787,0.00984*
1,1,0.00394,0.00787,-0.00984*
1,1,0.00394,-0.00787,-0.00984*
%
%ADD14ROUNDEDRECTD14*%
G04:AMPARAMS|DCode=15|XSize=19.68mil|YSize=23.62mil|CornerRadius=1.97mil|HoleSize=0mil|Usage=FLASHONLY|Rotation=90.000|XOffset=0mil|YOffset=0mil|HoleType=Round|Shape=RoundedRectangle|*
%AMROUNDEDRECTD15*
21,1,0.01968,0.01968,0,0,90.0*
21,1,0.01575,0.02362,0,0,90.0*
1,1,0.00394,0.00984,0.00787*
1,1,0.00394,0.00984,-0.00787*
1,1,0.00394,-0.00984,-0.00787*
1,1,0.00394,-0.00984,0.00787*
%
%ADD15ROUNDEDRECTD15*%
%ADD16C,0.03150*%
%ADD17C,0.02362*%
%ADD18C,0.01181*%
%ADD19C,0.03937*%
%ADD20C,0.01772*%
D10*
X14764Y27559D02*
D03*
X21457D02*
D03*
X27756Y53543D02*
D03*
X21063D02*
D03*
X16339Y42126D02*
D03*
X23031D02*
D03*
X51181Y27559D02*
D03*
X57874D02*
D03*
X64173Y53543D02*
D03*
X57480D02*
D03*
X52756Y42126D02*
D03*
X59449D02*
D03*
X87598Y27559D02*
D03*
X94291D02*
D03*
X100591Y53543D02*
D03*
X93898D02*
D03*
X89173Y42126D02*
D03*
X95866D02*
D03*
X124016Y27559D02*
D03*
X130709D02*
D03*
X137008Y53543D02*
D03*
X130315D02*
D03*
X125591Y42126D02*
D03*
X132283D02*
D03*
X160433Y27559D02*
D03*
X167126D02*
D03*
X173425Y53543D02*
D03*
X166732D02*
D03*
X162008Y42126D02*
D03*
X168701D02*
D03*
X14764Y84646D02*
D03*
X21457D02*
D03*
X27756Y110630D02*
D03*
X21063D02*
D03*
X16339Y99213D02*
D03*
X23031D02*
D03*
X51181Y84646D02*
D03*
X57874D02*
D03*
X64173Y110630D02*
D03*
X57480D02*
D03*
X52756Y99213D02*
D03*
X59449D02*
D03*
X87598Y84646D02*
D03*
X94291D02*
D03*
X100591Y110630D02*
D03*
X93898D02*
D03*
X89173Y99213D02*
D03*
X95866D02*
D03*
X124016Y84646D02*
D03*
X130709D02*
D03*
X137008Y110630D02*
D03*
X130315D02*
D03*
X125591Y99213D02*
D03*
X132283D02*
D03*
X160433Y84646D02*
D03*
X167126D02*
D03*
X173425Y110630D02*
D03*
X166732D02*
D03*
X162008Y99213D02*
D03*
X168701D02*
D03*
X14764Y141732D02*
D03*
X21457D02*
D03*
X27756Y167717D02*
D03*
X21063D02*
D03*
X16339Y156299D02*
D03*
X23031D02*
D03*
X51181Y141732D02*
D03*
X57874D02*
D03*
X64173Y167717D02*
D03*
X57480D02*
D03*
X52756Y156299D02*
D03*
X59449D02*
D03*
X87598Y141732D02*
D03*
X94291D02*
D03*
X100591Y167717D02*
D03*
X93898D02*
D03*
X89173Y156299D02*
D03*
X95866D02*
D03*
X124016Y141732D02*
D03*
X130709D02*
D03*
X137008Y167717D02*
D03*
X130315D02*
D03*
X125591Y156299D02*
D03*
X132283D02*
D03*
X160433Y141732D02*
D03*
X167126D02*
D03*
X173425Y167717D02*
D03*
X166732D02*
D03*
X162008Y156299D02*
D03*
X168701D02*
D03*
D11*
X27559Y38386D02*
D03*
Y31693D02*
D03*
X63976Y38386D02*
D03*
Y31693D02*
D03*
X100394Y38386D02*
D03*
Y31693D02*
D03*
X136811Y38386D02*
D03*
Y31693D02*
D03*
X173228Y38386D02*
D03*
Y31693D02*
D03*
X27559Y95473D02*
D03*
Y88779D02*
D03*
X63976Y95473D02*
D03*
Y88779D02*
D03*
X100394Y95473D02*
D03*
Y88779D02*
D03*
X136811Y95473D02*
D03*
Y88779D02*
D03*
X173228Y95473D02*
D03*
Y88779D02*
D03*
X27559Y152559D02*
D03*
Y145866D02*
D03*
X63976Y152559D02*
D03*
Y145866D02*
D03*
X100394Y152559D02*
D03*
Y145866D02*
D03*
X136811Y152559D02*
D03*
Y145866D02*
D03*
X173228Y152559D02*
D03*
Y145866D02*
D03*
D12*
X25591Y19685D02*
D03*
X16142D02*
D03*
X38189D02*
D03*
X35039D02*
D03*
X19291D02*
D03*
X31890D02*
D03*
X28740D02*
D03*
X22441D02*
D03*
X12992D02*
D03*
X62008D02*
D03*
X52559D02*
D03*
X74606D02*
D03*
X71457D02*
D03*
X55709D02*
D03*
X68307D02*
D03*
X65158D02*
D03*
X58858D02*
D03*
X49409D02*
D03*
X98425D02*
D03*
X88976D02*
D03*
X111024D02*
D03*
X107874D02*
D03*
X92126D02*
D03*
X104724D02*
D03*
X101575D02*
D03*
X95276D02*
D03*
X85827D02*
D03*
X134843D02*
D03*
X125394D02*
D03*
X147441D02*
D03*
X144291D02*
D03*
X128543D02*
D03*
X141142D02*
D03*
X137992D02*
D03*
X131693D02*
D03*
X122244D02*
D03*
X171260D02*
D03*
X161811D02*
D03*
X183858D02*
D03*
X180709D02*
D03*
X164961D02*
D03*
X177559D02*
D03*
X174409D02*
D03*
X168110D02*
D03*
X158661D02*
D03*
X25591Y76772D02*
D03*
X16142D02*
D03*
X38189D02*
D03*
X35039D02*
D03*
X19291D02*
D03*
X31890D02*
D03*
X28740D02*
D03*
X22441D02*
D03*
X12992D02*
D03*
X62008D02*
D03*
X52559D02*
D03*
X74606D02*
D03*
X71457D02*
D03*
X55709D02*
D03*
X68307D02*
D03*
X65158D02*
D03*
X58858D02*
D03*
X49409D02*
D03*
X98425D02*
D03*
X88976D02*
D03*
X111024D02*
D03*
X107874D02*
D03*
X92126D02*
D03*
X104724D02*
D03*
X101575D02*
D03*
X95276D02*
D03*
X85827D02*
D03*
X134843D02*
D03*
X125394D02*
D03*
X147441D02*
D03*
X144291D02*
D03*
X128543D02*
D03*
X141142D02*
D03*
X137992D02*
D03*
X131693D02*
D03*
X122244D02*
D03*
X171260D02*
D03*
X161811D02*
D03*
X183858D02*
D03*
X180709D02*
D03*
X164961D02*
D03*
X177559D02*
D03*
X174409D02*
D03*
X168110D02*
D03*
X158661D02*
D03*
X25591Y133858D02*
D03*
X16142D02*
D03*
X38189D02*
D03*
X35039D02*
D03*
X19291D02*
D03*
X31890D02*
D03*
X28740D02*
D03*
X22441D02*
D03*
X12992D02*
D03*
X62008D02*
D03*
X52559D02*
D03*
X74606D02*
D03*
X71457D02*
D03*
X55709D02*
D03*
X68307D02*
D03*
X65158D02*
D03*
X58858D02*
D03*
X49409D02*
D03*
X98425D02*
D03*
X88976D02*
D03*
X111024D02*
D03*
X107874D02*
D03*
X92126D02*
D03*
X104724D02*
D03*
X101575D02*
D03*
X95276D02*
D03*
X85827D02*
D03*
X134843D02*
D03*
X125394D02*
D03*
X147441D02*
D03*
X144291D02*
D03*
X128543D02*
D03*
X141142D02*
D03*
X137992D02*
D03*
X131693D02*
D03*
X122244D02*
D03*
X171260D02*
D03*
X161811D02*
D03*
X183858D02*
D03*
X180709D02*
D03*
X164961D02*
D03*
X177559D02*
D03*
X174409D02*
D03*
X168110D02*
D03*
X158661D02*
D03*
D13*
X25394Y27165D02*
D03*
X31299D02*
D03*
X61811D02*
D03*
X67716D02*
D03*
X98228D02*
D03*
X104134D02*
D03*
X134646D02*
D03*
X140551D02*
D03*
X171063D02*
D03*
X176969D02*
D03*
X25394Y84252D02*
D03*
X31299D02*
D03*
X61811D02*
D03*
X67716D02*
D03*
X98228D02*
D03*
X104134D02*
D03*
X134646D02*
D03*
X140551D02*
D03*
X171063D02*
D03*
X176969D02*
D03*
X25394Y141339D02*
D03*
X31299D02*
D03*
X61811D02*
D03*
X67716D02*
D03*
X98228D02*
D03*
X104134D02*
D03*
X134646D02*
D03*
X140551D02*
D03*
X171063D02*
D03*
X176969D02*
D03*
D14*
X31496Y36220D02*
D03*
Y32283D02*
D03*
X19291D02*
D03*
Y36220D02*
D03*
X67913D02*
D03*
Y32283D02*
D03*
X55709D02*
D03*
Y36220D02*
D03*
X104331D02*
D03*
Y32283D02*
D03*
X92126D02*
D03*
Y36220D02*
D03*
X140748D02*
D03*
Y32283D02*
D03*
X128543D02*
D03*
Y36220D02*
D03*
X177165D02*
D03*
Y32283D02*
D03*
X164961D02*
D03*
Y36220D02*
D03*
X31496Y93307D02*
D03*
Y89370D02*
D03*
X19291D02*
D03*
Y93307D02*
D03*
X67913D02*
D03*
Y89370D02*
D03*
X55709D02*
D03*
Y93307D02*
D03*
X104331D02*
D03*
Y89370D02*
D03*
X92126D02*
D03*
Y93307D02*
D03*
X140748D02*
D03*
Y89370D02*
D03*
X128543D02*
D03*
Y93307D02*
D03*
X177165D02*
D03*
Y89370D02*
D03*
X164961D02*
D03*
Y93307D02*
D03*
X31496Y150394D02*
D03*
Y146457D02*
D03*
X19291D02*
D03*
Y150394D02*
D03*
X67913D02*
D03*
Y146457D02*
D03*
X55709D02*
D03*
Y150394D02*
D03*
X104331D02*
D03*
Y146457D02*
D03*
X92126D02*
D03*
Y150394D02*
D03*
X140748D02*
D03*
Y146457D02*
D03*
X128543D02*
D03*
Y150394D02*
D03*
X177165D02*
D03*
Y146457D02*
D03*
X164961D02*
D03*
Y150394D02*
D03*
D15*
X24803Y57480D02*
D03*
X20866D02*
D03*
X61221D02*
D03*
X57284D02*
D03*
X97638D02*
D03*
X93701D02*
D03*
X134055D02*
D03*
X130118D02*
D03*
X170473D02*
D03*
X166535D02*
D03*
X24803Y114567D02*
D03*
X20866D02*
D03*
X61221D02*
D03*
X57284D02*
D03*
X97638D02*
D03*
X93701D02*
D03*
X134055D02*
D03*
X130118D02*
D03*
X170473D02*
D03*
X166535D02*
D03*
X24803Y171654D02*
D03*
X20866D02*
D03*
X61221D02*
D03*
X57284D02*
D03*
X97638D02*
D03*
X93701D02*
D03*
X134055D02*
D03*
X130118D02*
D03*
X170473D02*
D03*
X166535D02*
D03*
D16*
X28583Y37244D02*
X35591D01*
X28307Y32244D02*
X35591D01*
X15741Y37093D02*
X22159D01*
X25591Y54331D02*
Y62244D01*
X20741Y57605D02*
X20866Y57480D01*
X20741Y57605D02*
Y62093D01*
X20591Y62244D02*
X20741Y62093D01*
X15590Y37244D02*
X15741Y37093D01*
X29134Y29331D02*
Y29406D01*
X27953Y30588D02*
Y31496D01*
X27756Y31693D02*
X27953Y31496D01*
X27559Y31693D02*
X27756D01*
X29134Y29331D02*
X31299Y27165D01*
X27953Y30588D02*
X29134Y29406D01*
X27756Y31693D02*
X28307Y32244D01*
X27953Y36614D02*
X28583Y37244D01*
X23031Y27559D02*
Y36220D01*
X17526Y23819D02*
X17913D01*
X21457Y27362D02*
Y27559D01*
X17913Y23819D02*
X21457Y27362D01*
X22159Y37093D02*
X23031Y36220D01*
X21260Y50197D02*
Y53347D01*
Y50197D02*
X23031Y48425D01*
Y42126D02*
Y48425D01*
Y36220D02*
Y42126D01*
X25197Y53937D02*
X25591Y54331D01*
X20866Y57480D02*
X20866Y57480D01*
X25197Y53937D02*
X27559D01*
X27756Y53740D01*
Y53543D02*
Y53740D01*
X20866D02*
X21260Y53347D01*
X20866Y53740D02*
Y57480D01*
X23031Y27165D02*
X25394D01*
X27953Y36614D02*
Y38189D01*
X27756Y38386D02*
X27953Y38189D01*
X27559Y38386D02*
X27756D01*
X65000Y37244D02*
X72008D01*
X64724Y32244D02*
X72008D01*
X52158Y37093D02*
X58576D01*
X62008Y54331D02*
Y62244D01*
X57158Y57605D02*
X57284Y57480D01*
X57158Y57605D02*
Y62093D01*
X57008Y62244D02*
X57158Y62093D01*
X52008Y37244D02*
X52158Y37093D01*
X65551Y29331D02*
Y29406D01*
X64370Y30588D02*
Y31496D01*
X64173Y31693D02*
X64370Y31496D01*
X63976Y31693D02*
X64173D01*
X65551Y29331D02*
X67716Y27165D01*
X64370Y30588D02*
X65551Y29406D01*
X64173Y31693D02*
X64724Y32244D01*
X64370Y36614D02*
X65000Y37244D01*
X59449Y27559D02*
Y36220D01*
X53943Y23819D02*
X54331D01*
X57874Y27362D02*
Y27559D01*
X54331Y23819D02*
X57874Y27362D01*
X58576Y37093D02*
X59449Y36220D01*
X57677Y50197D02*
Y53347D01*
Y50197D02*
X59449Y48425D01*
Y42126D02*
Y48425D01*
Y36220D02*
Y42126D01*
X61614Y53937D02*
X62008Y54331D01*
X57284Y57480D02*
X57284Y57480D01*
X61614Y53937D02*
X63976D01*
X64173Y53740D01*
Y53543D02*
Y53740D01*
X57284D02*
X57677Y53347D01*
X57284Y53740D02*
Y57480D01*
X59449Y27165D02*
X61811D01*
X64370Y36614D02*
Y38189D01*
X64173Y38386D02*
X64370Y38189D01*
X63976Y38386D02*
X64173D01*
X101417Y37244D02*
X108425D01*
X101142Y32244D02*
X108425D01*
X88576Y37093D02*
X94993D01*
X98425Y54331D02*
Y62244D01*
X93576Y57605D02*
X93701Y57480D01*
X93576Y57605D02*
Y62093D01*
X93425Y62244D02*
X93576Y62093D01*
X88425Y37244D02*
X88576Y37093D01*
X101969Y29331D02*
Y29406D01*
X100787Y30588D02*
Y31496D01*
X100591Y31693D02*
X100787Y31496D01*
X100394Y31693D02*
X100591D01*
X101969Y29331D02*
X104134Y27165D01*
X100787Y30588D02*
X101969Y29406D01*
X100591Y31693D02*
X101142Y32244D01*
X100787Y36614D02*
X101417Y37244D01*
X95866Y27559D02*
Y36220D01*
X90360Y23819D02*
X90748D01*
X94291Y27362D02*
Y27559D01*
X90748Y23819D02*
X94291Y27362D01*
X94993Y37093D02*
X95866Y36220D01*
X94095Y50197D02*
Y53347D01*
Y50197D02*
X95866Y48425D01*
Y42126D02*
Y48425D01*
Y36220D02*
Y42126D01*
X98032Y53937D02*
X98425Y54331D01*
X93701Y57480D02*
X93701Y57480D01*
X98032Y53937D02*
X100394D01*
X100591Y53740D01*
Y53543D02*
Y53740D01*
X93701D02*
X94095Y53347D01*
X93701Y53740D02*
Y57480D01*
X95866Y27165D02*
X98228D01*
X100787Y36614D02*
Y38189D01*
X100591Y38386D02*
X100787Y38189D01*
X100394Y38386D02*
X100591D01*
X137835Y37244D02*
X144843D01*
X137559Y32244D02*
X144843D01*
X124993Y37093D02*
X131411D01*
X134843Y54331D02*
Y62244D01*
X129993Y57605D02*
X130118Y57480D01*
X129993Y57605D02*
Y62093D01*
X129842Y62244D02*
X129993Y62093D01*
X124843Y37244D02*
X124993Y37093D01*
X138386Y29331D02*
Y29406D01*
X137205Y30588D02*
Y31496D01*
X137008Y31693D02*
X137205Y31496D01*
X136811Y31693D02*
X137008D01*
X138386Y29331D02*
X140551Y27165D01*
X137205Y30588D02*
X138386Y29406D01*
X137008Y31693D02*
X137559Y32244D01*
X137205Y36614D02*
X137835Y37244D01*
X132283Y27559D02*
Y36220D01*
X126777Y23819D02*
X127165D01*
X130709Y27362D02*
Y27559D01*
X127165Y23819D02*
X130709Y27362D01*
X131411Y37093D02*
X132283Y36220D01*
X130512Y50197D02*
Y53347D01*
Y50197D02*
X132283Y48425D01*
Y42126D02*
Y48425D01*
Y36220D02*
Y42126D01*
X134449Y53937D02*
X134843Y54331D01*
X130118Y57480D02*
X130118Y57480D01*
X134449Y53937D02*
X136811D01*
X137008Y53740D01*
Y53543D02*
Y53740D01*
X130118D02*
X130512Y53347D01*
X130118Y53740D02*
Y57480D01*
X132283Y27165D02*
X134646D01*
X137205Y36614D02*
Y38189D01*
X137008Y38386D02*
X137205Y38189D01*
X136811Y38386D02*
X137008D01*
X174252Y37244D02*
X181260D01*
X173976Y32244D02*
X181260D01*
X161410Y37093D02*
X167828D01*
X171260Y54331D02*
Y62244D01*
X166411Y57605D02*
X166535Y57480D01*
X166411Y57605D02*
Y62093D01*
X166260Y62244D02*
X166411Y62093D01*
X161260Y37244D02*
X161410Y37093D01*
X174803Y29331D02*
Y29406D01*
X173622Y30588D02*
Y31496D01*
X173425Y31693D02*
X173622Y31496D01*
X173228Y31693D02*
X173425D01*
X174803Y29331D02*
X176969Y27165D01*
X173622Y30588D02*
X174803Y29406D01*
X173425Y31693D02*
X173976Y32244D01*
X173622Y36614D02*
X174252Y37244D01*
X168701Y27559D02*
Y36220D01*
X163195Y23819D02*
X163583D01*
X167126Y27362D02*
Y27559D01*
X163583Y23819D02*
X167126Y27362D01*
X167828Y37093D02*
X168701Y36220D01*
X166929Y50197D02*
Y53347D01*
Y50197D02*
X168701Y48425D01*
Y42126D02*
Y48425D01*
Y36220D02*
Y42126D01*
X170866Y53937D02*
X171260Y54331D01*
X166535Y57480D02*
X166535Y57480D01*
X170866Y53937D02*
X173228D01*
X173425Y53740D01*
Y53543D02*
Y53740D01*
X166535D02*
X166929Y53347D01*
X166535Y53740D02*
Y57480D01*
X168701Y27165D02*
X171063D01*
X173622Y36614D02*
Y38189D01*
X173425Y38386D02*
X173622Y38189D01*
X173228Y38386D02*
X173425D01*
X28583Y94331D02*
X35591D01*
X28307Y89331D02*
X35591D01*
X15741Y94180D02*
X22159D01*
X25591Y111417D02*
Y119331D01*
X20741Y114692D02*
X20866Y114567D01*
X20741Y114692D02*
Y119180D01*
X20591Y119331D02*
X20741Y119180D01*
X15590Y94331D02*
X15741Y94180D01*
X29134Y86417D02*
Y86493D01*
X27953Y87674D02*
Y88583D01*
X27756Y88779D02*
X27953Y88583D01*
X27559Y88779D02*
X27756D01*
X29134Y86417D02*
X31299Y84252D01*
X27953Y87674D02*
X29134Y86493D01*
X27756Y88779D02*
X28307Y89331D01*
X27953Y93701D02*
X28583Y94331D01*
X23031Y84646D02*
Y93307D01*
X17526Y80905D02*
X17913D01*
X21457Y84449D02*
Y84646D01*
X17913Y80905D02*
X21457Y84449D01*
X22159Y94180D02*
X23031Y93307D01*
X21260Y107283D02*
Y110433D01*
Y107283D02*
X23031Y105512D01*
Y99213D02*
Y105512D01*
Y93307D02*
Y99213D01*
X25197Y111024D02*
X25591Y111417D01*
X20866Y114567D02*
X20866Y114567D01*
X25197Y111024D02*
X27559D01*
X27756Y110827D01*
Y110630D02*
Y110827D01*
X20866D02*
X21260Y110433D01*
X20866Y110827D02*
Y114567D01*
X23031Y84252D02*
X25394D01*
X27953Y93701D02*
Y95276D01*
X27756Y95473D02*
X27953Y95276D01*
X27559Y95473D02*
X27756D01*
X65000Y94331D02*
X72008D01*
X64724Y89331D02*
X72008D01*
X52158Y94180D02*
X58576D01*
X62008Y111417D02*
Y119331D01*
X57158Y114692D02*
X57284Y114567D01*
X57158Y114692D02*
Y119180D01*
X57008Y119331D02*
X57158Y119180D01*
X52008Y94331D02*
X52158Y94180D01*
X65551Y86417D02*
Y86493D01*
X64370Y87674D02*
Y88583D01*
X64173Y88779D02*
X64370Y88583D01*
X63976Y88779D02*
X64173D01*
X65551Y86417D02*
X67716Y84252D01*
X64370Y87674D02*
X65551Y86493D01*
X64173Y88779D02*
X64724Y89331D01*
X64370Y93701D02*
X65000Y94331D01*
X59449Y84646D02*
Y93307D01*
X53943Y80905D02*
X54331D01*
X57874Y84449D02*
Y84646D01*
X54331Y80905D02*
X57874Y84449D01*
X58576Y94180D02*
X59449Y93307D01*
X57677Y107283D02*
Y110433D01*
Y107283D02*
X59449Y105512D01*
Y99213D02*
Y105512D01*
Y93307D02*
Y99213D01*
X61614Y111024D02*
X62008Y111417D01*
X57284Y114567D02*
X57284Y114567D01*
X61614Y111024D02*
X63976D01*
X64173Y110827D01*
Y110630D02*
Y110827D01*
X57284D02*
X57677Y110433D01*
X57284Y110827D02*
Y114567D01*
X59449Y84252D02*
X61811D01*
X64370Y93701D02*
Y95276D01*
X64173Y95473D02*
X64370Y95276D01*
X63976Y95473D02*
X64173D01*
X101417Y94331D02*
X108425D01*
X101142Y89331D02*
X108425D01*
X88576Y94180D02*
X94993D01*
X98425Y111417D02*
Y119331D01*
X93576Y114692D02*
X93701Y114567D01*
X93576Y114692D02*
Y119180D01*
X93425Y119331D02*
X93576Y119180D01*
X88425Y94331D02*
X88576Y94180D01*
X101969Y86417D02*
Y86493D01*
X100787Y87674D02*
Y88583D01*
X100591Y88779D02*
X100787Y88583D01*
X100394Y88779D02*
X100591D01*
X101969Y86417D02*
X104134Y84252D01*
X100787Y87674D02*
X101969Y86493D01*
X100591Y88779D02*
X101142Y89331D01*
X100787Y93701D02*
X101417Y94331D01*
X95866Y84646D02*
Y93307D01*
X90360Y80905D02*
X90748D01*
X94291Y84449D02*
Y84646D01*
X90748Y80905D02*
X94291Y84449D01*
X94993Y94180D02*
X95866Y93307D01*
X94095Y107283D02*
Y110433D01*
Y107283D02*
X95866Y105512D01*
Y99213D02*
Y105512D01*
Y93307D02*
Y99213D01*
X98032Y111024D02*
X98425Y111417D01*
X93701Y114567D02*
X93701Y114567D01*
X98032Y111024D02*
X100394D01*
X100591Y110827D01*
Y110630D02*
Y110827D01*
X93701D02*
X94095Y110433D01*
X93701Y110827D02*
Y114567D01*
X95866Y84252D02*
X98228D01*
X100787Y93701D02*
Y95276D01*
X100591Y95473D02*
X100787Y95276D01*
X100394Y95473D02*
X100591D01*
X137835Y94331D02*
X144843D01*
X137559Y89331D02*
X144843D01*
X124993Y94180D02*
X131411D01*
X134843Y111417D02*
Y119331D01*
X129993Y114692D02*
X130118Y114567D01*
X129993Y114692D02*
Y119180D01*
X129842Y119331D02*
X129993Y119180D01*
X124843Y94331D02*
X124993Y94180D01*
X138386Y86417D02*
Y86493D01*
X137205Y87674D02*
Y88583D01*
X137008Y88779D02*
X137205Y88583D01*
X136811Y88779D02*
X137008D01*
X138386Y86417D02*
X140551Y84252D01*
X137205Y87674D02*
X138386Y86493D01*
X137008Y88779D02*
X137559Y89331D01*
X137205Y93701D02*
X137835Y94331D01*
X132283Y84646D02*
Y93307D01*
X126777Y80905D02*
X127165D01*
X130709Y84449D02*
Y84646D01*
X127165Y80905D02*
X130709Y84449D01*
X131411Y94180D02*
X132283Y93307D01*
X130512Y107283D02*
Y110433D01*
Y107283D02*
X132283Y105512D01*
Y99213D02*
Y105512D01*
Y93307D02*
Y99213D01*
X134449Y111024D02*
X134843Y111417D01*
X130118Y114567D02*
X130118Y114567D01*
X134449Y111024D02*
X136811D01*
X137008Y110827D01*
Y110630D02*
Y110827D01*
X130118D02*
X130512Y110433D01*
X130118Y110827D02*
Y114567D01*
X132283Y84252D02*
X134646D01*
X137205Y93701D02*
Y95276D01*
X137008Y95473D02*
X137205Y95276D01*
X136811Y95473D02*
X137008D01*
X174252Y94331D02*
X181260D01*
X173976Y89331D02*
X181260D01*
X161410Y94180D02*
X167828D01*
X171260Y111417D02*
Y119331D01*
X166411Y114692D02*
X166535Y114567D01*
X166411Y114692D02*
Y119180D01*
X166260Y119331D02*
X166411Y119180D01*
X161260Y94331D02*
X161410Y94180D01*
X174803Y86417D02*
Y86493D01*
X173622Y87674D02*
Y88583D01*
X173425Y88779D02*
X173622Y88583D01*
X173228Y88779D02*
X173425D01*
X174803Y86417D02*
X176969Y84252D01*
X173622Y87674D02*
X174803Y86493D01*
X173425Y88779D02*
X173976Y89331D01*
X173622Y93701D02*
X174252Y94331D01*
X168701Y84646D02*
Y93307D01*
X163195Y80905D02*
X163583D01*
X167126Y84449D02*
Y84646D01*
X163583Y80905D02*
X167126Y84449D01*
X167828Y94180D02*
X168701Y93307D01*
X166929Y107283D02*
Y110433D01*
Y107283D02*
X168701Y105512D01*
Y99213D02*
Y105512D01*
Y93307D02*
Y99213D01*
X170866Y111024D02*
X171260Y111417D01*
X166535Y114567D02*
X166535Y114567D01*
X170866Y111024D02*
X173228D01*
X173425Y110827D01*
Y110630D02*
Y110827D01*
X166535D02*
X166929Y110433D01*
X166535Y110827D02*
Y114567D01*
X168701Y84252D02*
X171063D01*
X173622Y93701D02*
Y95276D01*
X173425Y95473D02*
X173622Y95276D01*
X173228Y95473D02*
X173425D01*
X28583Y151417D02*
X35591D01*
X28307Y146417D02*
X35591D01*
X15741Y151267D02*
X22159D01*
X25591Y168504D02*
Y176417D01*
X20741Y171779D02*
X20866Y171654D01*
X20741Y171779D02*
Y176267D01*
X20591Y176417D02*
X20741Y176267D01*
X15590Y151417D02*
X15741Y151267D01*
X29134Y143504D02*
Y143580D01*
X27953Y144761D02*
Y145669D01*
X27756Y145866D02*
X27953Y145669D01*
X27559Y145866D02*
X27756D01*
X29134Y143504D02*
X31299Y141339D01*
X27953Y144761D02*
X29134Y143580D01*
X27756Y145866D02*
X28307Y146417D01*
X27953Y150787D02*
X28583Y151417D01*
X23031Y141732D02*
Y150394D01*
X17526Y137992D02*
X17913D01*
X21457Y141535D02*
Y141732D01*
X17913Y137992D02*
X21457Y141535D01*
X22159Y151267D02*
X23031Y150394D01*
X21260Y164370D02*
Y167520D01*
Y164370D02*
X23031Y162599D01*
Y156299D02*
Y162599D01*
Y150394D02*
Y156299D01*
X25197Y168110D02*
X25591Y168504D01*
X20866Y171654D02*
X20866Y171653D01*
X25197Y168110D02*
X27559D01*
X27756Y167913D01*
Y167717D02*
Y167913D01*
X20866D02*
X21260Y167520D01*
X20866Y167913D02*
Y171653D01*
X23031Y141339D02*
X25394D01*
X27953Y150787D02*
Y152362D01*
X27756Y152559D02*
X27953Y152362D01*
X27559Y152559D02*
X27756D01*
X65000Y151417D02*
X72008D01*
X64724Y146417D02*
X72008D01*
X52158Y151267D02*
X58576D01*
X62008Y168504D02*
Y176417D01*
X57158Y171779D02*
X57284Y171654D01*
X57158Y171779D02*
Y176267D01*
X57008Y176417D02*
X57158Y176267D01*
X52008Y151417D02*
X52158Y151267D01*
X65551Y143504D02*
Y143580D01*
X64370Y144761D02*
Y145669D01*
X64173Y145866D02*
X64370Y145669D01*
X63976Y145866D02*
X64173D01*
X65551Y143504D02*
X67716Y141339D01*
X64370Y144761D02*
X65551Y143580D01*
X64173Y145866D02*
X64724Y146417D01*
X64370Y150787D02*
X65000Y151417D01*
X59449Y141732D02*
Y150394D01*
X53943Y137992D02*
X54331D01*
X57874Y141535D02*
Y141732D01*
X54331Y137992D02*
X57874Y141535D01*
X58576Y151267D02*
X59449Y150394D01*
X57677Y164370D02*
Y167520D01*
Y164370D02*
X59449Y162599D01*
Y156299D02*
Y162599D01*
Y150394D02*
Y156299D01*
X61614Y168110D02*
X62008Y168504D01*
X57284Y171654D02*
X57284Y171653D01*
X61614Y168110D02*
X63976D01*
X64173Y167913D01*
Y167717D02*
Y167913D01*
X57284D02*
X57677Y167520D01*
X57284Y167913D02*
Y171653D01*
X59449Y141339D02*
X61811D01*
X64370Y150787D02*
Y152362D01*
X64173Y152559D02*
X64370Y152362D01*
X63976Y152559D02*
X64173D01*
X101417Y151417D02*
X108425D01*
X101142Y146417D02*
X108425D01*
X88576Y151267D02*
X94993D01*
X98425Y168504D02*
Y176417D01*
X93576Y171779D02*
X93701Y171654D01*
X93576Y171779D02*
Y176267D01*
X93425Y176417D02*
X93576Y176267D01*
X88425Y151417D02*
X88576Y151267D01*
X101969Y143504D02*
Y143580D01*
X100787Y144761D02*
Y145669D01*
X100591Y145866D02*
X100787Y145669D01*
X100394Y145866D02*
X100591D01*
X101969Y143504D02*
X104134Y141339D01*
X100787Y144761D02*
X101969Y143580D01*
X100591Y145866D02*
X101142Y146417D01*
X100787Y150787D02*
X101417Y151417D01*
X95866Y141732D02*
Y150394D01*
X90360Y137992D02*
X90748D01*
X94291Y141535D02*
Y141732D01*
X90748Y137992D02*
X94291Y141535D01*
X94993Y151267D02*
X95866Y150394D01*
X94095Y164370D02*
Y167520D01*
Y164370D02*
X95866Y162599D01*
Y156299D02*
Y162599D01*
Y150394D02*
Y156299D01*
X98032Y168110D02*
X98425Y168504D01*
X93701Y171654D02*
X93701Y171653D01*
X98032Y168110D02*
X100394D01*
X100591Y167913D01*
Y167717D02*
Y167913D01*
X93701D02*
X94095Y167520D01*
X93701Y167913D02*
Y171653D01*
X95866Y141339D02*
X98228D01*
X100787Y150787D02*
Y152362D01*
X100591Y152559D02*
X100787Y152362D01*
X100394Y152559D02*
X100591D01*
X137835Y151417D02*
X144843D01*
X137559Y146417D02*
X144843D01*
X124993Y151267D02*
X131411D01*
X134843Y168504D02*
Y176417D01*
X129993Y171779D02*
X130118Y171654D01*
X129993Y171779D02*
Y176267D01*
X129842Y176417D02*
X129993Y176267D01*
X124843Y151417D02*
X124993Y151267D01*
X138386Y143504D02*
Y143580D01*
X137205Y144761D02*
Y145669D01*
X137008Y145866D02*
X137205Y145669D01*
X136811Y145866D02*
X137008D01*
X138386Y143504D02*
X140551Y141339D01*
X137205Y144761D02*
X138386Y143580D01*
X137008Y145866D02*
X137559Y146417D01*
X137205Y150787D02*
X137835Y151417D01*
X132283Y141732D02*
Y150394D01*
X126777Y137992D02*
X127165D01*
X130709Y141535D02*
Y141732D01*
X127165Y137992D02*
X130709Y141535D01*
X131411Y151267D02*
X132283Y150394D01*
X130512Y164370D02*
Y167520D01*
Y164370D02*
X132283Y162599D01*
Y156299D02*
Y162599D01*
Y150394D02*
Y156299D01*
X134449Y168110D02*
X134843Y168504D01*
X130118Y171654D02*
X130118Y171653D01*
X134449Y168110D02*
X136811D01*
X137008Y167913D01*
Y167717D02*
Y167913D01*
X130118D02*
X130512Y167520D01*
X130118Y167913D02*
Y171653D01*
X132283Y141339D02*
X134646D01*
X137205Y150787D02*
Y152362D01*
X137008Y152559D02*
X137205Y152362D01*
X136811Y152559D02*
X137008D01*
X174252Y151417D02*
X181260D01*
X173976Y146417D02*
X181260D01*
X161410Y151267D02*
X167828D01*
X171260Y168504D02*
Y176417D01*
X166411Y171779D02*
X166535Y171654D01*
X166411Y171779D02*
Y176267D01*
X166260Y176417D02*
X166411Y176267D01*
X161260Y151417D02*
X161410Y151267D01*
X174803Y143504D02*
Y143580D01*
X173622Y144761D02*
Y145669D01*
X173425Y145866D02*
X173622Y145669D01*
X173228Y145866D02*
X173425D01*
X174803Y143504D02*
X176969Y141339D01*
X173622Y144761D02*
X174803Y143580D01*
X173425Y145866D02*
X173976Y146417D01*
X173622Y150787D02*
X174252Y151417D01*
X168701Y141732D02*
Y150394D01*
X163195Y137992D02*
X163583D01*
X167126Y141535D02*
Y141732D01*
X163583Y137992D02*
X167126Y141535D01*
X167828Y151267D02*
X168701Y150394D01*
X166929Y164370D02*
Y167520D01*
Y164370D02*
X168701Y162599D01*
Y156299D02*
Y162599D01*
Y150394D02*
Y156299D01*
X170866Y168110D02*
X171260Y168504D01*
X166535Y171654D02*
X166535Y171653D01*
X170866Y168110D02*
X173228D01*
X173425Y167913D01*
Y167717D02*
Y167913D01*
X166535D02*
X166929Y167520D01*
X166535Y167913D02*
Y171653D01*
X168701Y141339D02*
X171063D01*
X173622Y150787D02*
Y152362D01*
X173425Y152559D02*
X173622Y152362D01*
X173228Y152559D02*
X173425D01*
D17*
X15630Y32283D02*
X19291D01*
X15590Y32244D02*
X15630Y32283D01*
X14233Y23431D02*
X17526D01*
X17913Y23819D01*
X12992Y22190D02*
X14233Y23431D01*
X12992Y20472D02*
Y22190D01*
X52047Y32283D02*
X55709D01*
X52008Y32244D02*
X52047Y32283D01*
X50650Y23431D02*
X53943D01*
X54331Y23819D01*
X49409Y22190D02*
X50650Y23431D01*
X49409Y20472D02*
Y22190D01*
X88465Y32283D02*
X92126D01*
X88425Y32244D02*
X88465Y32283D01*
X87067Y23431D02*
X90360D01*
X90748Y23819D01*
X85827Y22190D02*
X87067Y23431D01*
X85827Y20472D02*
Y22190D01*
X124882Y32283D02*
X128543D01*
X124843Y32244D02*
X124882Y32283D01*
X123485Y23431D02*
X126777D01*
X127165Y23819D01*
X122244Y22190D02*
X123485Y23431D01*
X122244Y20472D02*
Y22190D01*
X161299Y32283D02*
X164961D01*
X161260Y32244D02*
X161299Y32283D01*
X159902Y23431D02*
X163195D01*
X163583Y23819D01*
X158661Y22190D02*
X159902Y23431D01*
X158661Y20472D02*
Y22190D01*
X15630Y89370D02*
X19291D01*
X15590Y89331D02*
X15630Y89370D01*
X14233Y80518D02*
X17526D01*
X17913Y80905D01*
X12992Y79277D02*
X14233Y80518D01*
X12992Y77559D02*
Y79277D01*
X52047Y89370D02*
X55709D01*
X52008Y89331D02*
X52047Y89370D01*
X50650Y80518D02*
X53943D01*
X54331Y80905D01*
X49409Y79277D02*
X50650Y80518D01*
X49409Y77559D02*
Y79277D01*
X88465Y89370D02*
X92126D01*
X88425Y89331D02*
X88465Y89370D01*
X87067Y80518D02*
X90360D01*
X90748Y80905D01*
X85827Y79277D02*
X87067Y80518D01*
X85827Y77559D02*
Y79277D01*
X124882Y89370D02*
X128543D01*
X124843Y89331D02*
X124882Y89370D01*
X123485Y80518D02*
X126777D01*
X127165Y80905D01*
X122244Y79277D02*
X123485Y80518D01*
X122244Y77559D02*
Y79277D01*
X161299Y89370D02*
X164961D01*
X161260Y89331D02*
X161299Y89370D01*
X159902Y80518D02*
X163195D01*
X163583Y80905D01*
X158661Y79277D02*
X159902Y80518D01*
X158661Y77559D02*
Y79277D01*
X15630Y146457D02*
X19291D01*
X15590Y146417D02*
X15630Y146457D01*
X14233Y137604D02*
X17526D01*
X17913Y137992D01*
X12992Y136364D02*
X14233Y137604D01*
X12992Y134646D02*
Y136364D01*
X52047Y146457D02*
X55709D01*
X52008Y146417D02*
X52047Y146457D01*
X50650Y137604D02*
X53943D01*
X54331Y137992D01*
X49409Y136364D02*
X50650Y137604D01*
X49409Y134646D02*
Y136364D01*
X88465Y146457D02*
X92126D01*
X88425Y146417D02*
X88465Y146457D01*
X87067Y137604D02*
X90360D01*
X90748Y137992D01*
X85827Y136364D02*
X87067Y137604D01*
X85827Y134646D02*
Y136364D01*
X124882Y146457D02*
X128543D01*
X124843Y146417D02*
X124882Y146457D01*
X123485Y137604D02*
X126777D01*
X127165Y137992D01*
X122244Y136364D02*
X123485Y137604D01*
X122244Y134646D02*
Y136364D01*
X161299Y146457D02*
X164961D01*
X161260Y146417D02*
X161299Y146457D01*
X159902Y137604D02*
X163195D01*
X163583Y137992D01*
X158661Y136364D02*
X159902Y137604D01*
X158661Y134646D02*
Y136364D01*
D18*
X14764Y27559D02*
X16634D01*
X51181D02*
X53051D01*
X87598D02*
X89468D01*
X124016D02*
X125886D01*
X160433D02*
X162303D01*
X14764Y84646D02*
X16634D01*
X51181D02*
X53051D01*
X87598D02*
X89468D01*
X124016D02*
X125886D01*
X160433D02*
X162303D01*
X14764Y141732D02*
X16634D01*
X51181D02*
X53051D01*
X87598D02*
X89468D01*
X124016D02*
X125886D01*
X160433D02*
X162303D01*
D19*
X15590Y62244D02*
D03*
X30591D02*
D03*
X25591D02*
D03*
X20591D02*
D03*
X15590Y57244D02*
D03*
Y52244D02*
D03*
Y47244D02*
D03*
Y37244D02*
D03*
Y32244D02*
D03*
X35591D02*
D03*
Y37244D02*
D03*
Y47244D02*
D03*
Y52244D02*
D03*
Y57244D02*
D03*
Y62244D02*
D03*
X52008D02*
D03*
X67008D02*
D03*
X62008D02*
D03*
X57008D02*
D03*
X52008Y57244D02*
D03*
Y52244D02*
D03*
Y47244D02*
D03*
Y37244D02*
D03*
Y32244D02*
D03*
X72008D02*
D03*
Y37244D02*
D03*
Y47244D02*
D03*
Y52244D02*
D03*
Y57244D02*
D03*
Y62244D02*
D03*
X88425D02*
D03*
X103425D02*
D03*
X98425D02*
D03*
X93425D02*
D03*
X88425Y57244D02*
D03*
Y52244D02*
D03*
Y47244D02*
D03*
Y37244D02*
D03*
Y32244D02*
D03*
X108425D02*
D03*
Y37244D02*
D03*
Y47244D02*
D03*
Y52244D02*
D03*
Y57244D02*
D03*
Y62244D02*
D03*
X124843D02*
D03*
X139842D02*
D03*
X134843D02*
D03*
X129842D02*
D03*
X124843Y57244D02*
D03*
Y52244D02*
D03*
Y47244D02*
D03*
Y37244D02*
D03*
Y32244D02*
D03*
X144843D02*
D03*
Y37244D02*
D03*
Y47244D02*
D03*
Y52244D02*
D03*
Y57244D02*
D03*
Y62244D02*
D03*
X161260D02*
D03*
X176260D02*
D03*
X171260D02*
D03*
X166260D02*
D03*
X161260Y57244D02*
D03*
Y52244D02*
D03*
Y47244D02*
D03*
Y37244D02*
D03*
Y32244D02*
D03*
X181260D02*
D03*
Y37244D02*
D03*
Y47244D02*
D03*
Y52244D02*
D03*
Y57244D02*
D03*
Y62244D02*
D03*
X15590Y119331D02*
D03*
X30591D02*
D03*
X25591D02*
D03*
X20591D02*
D03*
X15590Y114331D02*
D03*
Y109331D02*
D03*
Y104331D02*
D03*
Y94331D02*
D03*
Y89331D02*
D03*
X35591D02*
D03*
Y94331D02*
D03*
Y104331D02*
D03*
Y109331D02*
D03*
Y114331D02*
D03*
Y119331D02*
D03*
X52008D02*
D03*
X67008D02*
D03*
X62008D02*
D03*
X57008D02*
D03*
X52008Y114331D02*
D03*
Y109331D02*
D03*
Y104331D02*
D03*
Y94331D02*
D03*
Y89331D02*
D03*
X72008D02*
D03*
Y94331D02*
D03*
Y104331D02*
D03*
Y109331D02*
D03*
Y114331D02*
D03*
Y119331D02*
D03*
X88425D02*
D03*
X103425D02*
D03*
X98425D02*
D03*
X93425D02*
D03*
X88425Y114331D02*
D03*
Y109331D02*
D03*
Y104331D02*
D03*
Y94331D02*
D03*
Y89331D02*
D03*
X108425D02*
D03*
Y94331D02*
D03*
Y104331D02*
D03*
Y109331D02*
D03*
Y114331D02*
D03*
Y119331D02*
D03*
X124843D02*
D03*
X139842D02*
D03*
X134843D02*
D03*
X129842D02*
D03*
X124843Y114331D02*
D03*
Y109331D02*
D03*
Y104331D02*
D03*
Y94331D02*
D03*
Y89331D02*
D03*
X144843D02*
D03*
Y94331D02*
D03*
Y104331D02*
D03*
Y109331D02*
D03*
Y114331D02*
D03*
Y119331D02*
D03*
X161260D02*
D03*
X176260D02*
D03*
X171260D02*
D03*
X166260D02*
D03*
X161260Y114331D02*
D03*
Y109331D02*
D03*
Y104331D02*
D03*
Y94331D02*
D03*
Y89331D02*
D03*
X181260D02*
D03*
Y94331D02*
D03*
Y104331D02*
D03*
Y109331D02*
D03*
Y114331D02*
D03*
Y119331D02*
D03*
X15590Y176417D02*
D03*
X30591D02*
D03*
X25591D02*
D03*
X20591D02*
D03*
X15590Y171417D02*
D03*
Y166417D02*
D03*
Y161417D02*
D03*
Y151417D02*
D03*
Y146417D02*
D03*
X35591D02*
D03*
Y151417D02*
D03*
Y161417D02*
D03*
Y166417D02*
D03*
Y171417D02*
D03*
Y176417D02*
D03*
X52008D02*
D03*
X67008D02*
D03*
X62008D02*
D03*
X57008D02*
D03*
X52008Y171417D02*
D03*
Y166417D02*
D03*
Y161417D02*
D03*
Y151417D02*
D03*
Y146417D02*
D03*
X72008D02*
D03*
Y151417D02*
D03*
Y161417D02*
D03*
Y166417D02*
D03*
Y171417D02*
D03*
Y176417D02*
D03*
X88425D02*
D03*
X103425D02*
D03*
X98425D02*
D03*
X93425D02*
D03*
X88425Y171417D02*
D03*
Y166417D02*
D03*
Y161417D02*
D03*
Y151417D02*
D03*
Y146417D02*
D03*
X108425D02*
D03*
Y151417D02*
D03*
Y161417D02*
D03*
Y166417D02*
D03*
Y171417D02*
D03*
Y176417D02*
D03*
X124843D02*
D03*
X139842D02*
D03*
X134843D02*
D03*
X129842D02*
D03*
X124843Y171417D02*
D03*
Y166417D02*
D03*
Y161417D02*
D03*
Y151417D02*
D03*
Y146417D02*
D03*
X144843D02*
D03*
Y151417D02*
D03*
Y161417D02*
D03*
Y166417D02*
D03*
Y171417D02*
D03*
Y176417D02*
D03*
X161260D02*
D03*
X176260D02*
D03*
X171260D02*
D03*
X166260D02*
D03*
X161260Y171417D02*
D03*
Y166417D02*
D03*
Y161417D02*
D03*
Y151417D02*
D03*
Y146417D02*
D03*
X181260D02*
D03*
Y151417D02*
D03*
Y161417D02*
D03*
Y166417D02*
D03*
Y171417D02*
D03*
Y176417D02*
D03*
D20*
X12992Y20472D02*
D03*
X25591D02*
D03*
X38189D02*
D03*
X16634Y27559D02*
D03*
X25197Y53937D02*
D03*
X27953Y36614D02*
D03*
X18110Y41339D02*
D03*
X16142Y20472D02*
D03*
X19291D02*
D03*
X22441D02*
D03*
X28740D02*
D03*
X31890D02*
D03*
X35039D02*
D03*
X49409D02*
D03*
X62008D02*
D03*
X74606D02*
D03*
X53051Y27559D02*
D03*
X61614Y53937D02*
D03*
X64370Y36614D02*
D03*
X54528Y41339D02*
D03*
X52559Y20472D02*
D03*
X55709D02*
D03*
X58858D02*
D03*
X65158D02*
D03*
X68307D02*
D03*
X71457D02*
D03*
X85827D02*
D03*
X98425D02*
D03*
X111024D02*
D03*
X89468Y27559D02*
D03*
X98032Y53937D02*
D03*
X100787Y36614D02*
D03*
X90945Y41339D02*
D03*
X88976Y20472D02*
D03*
X92126D02*
D03*
X95276D02*
D03*
X101575D02*
D03*
X104724D02*
D03*
X107874D02*
D03*
X122244D02*
D03*
X134843D02*
D03*
X147441D02*
D03*
X125886Y27559D02*
D03*
X134449Y53937D02*
D03*
X137205Y36614D02*
D03*
X127362Y41339D02*
D03*
X125394Y20472D02*
D03*
X128543D02*
D03*
X131693D02*
D03*
X137992D02*
D03*
X141142D02*
D03*
X144291D02*
D03*
X158661D02*
D03*
X171260D02*
D03*
X183858D02*
D03*
X162303Y27559D02*
D03*
X170866Y53937D02*
D03*
X173622Y36614D02*
D03*
X163779Y41339D02*
D03*
X161811Y20472D02*
D03*
X164961D02*
D03*
X168110D02*
D03*
X174409D02*
D03*
X177559D02*
D03*
X180709D02*
D03*
X12992Y77559D02*
D03*
X25591D02*
D03*
X38189D02*
D03*
X16634Y84646D02*
D03*
X25197Y111024D02*
D03*
X27953Y93701D02*
D03*
X18110Y98425D02*
D03*
X16142Y77559D02*
D03*
X19291D02*
D03*
X22441D02*
D03*
X28740D02*
D03*
X31890D02*
D03*
X35039D02*
D03*
X49409D02*
D03*
X62008D02*
D03*
X74606D02*
D03*
X53051Y84646D02*
D03*
X61614Y111024D02*
D03*
X64370Y93701D02*
D03*
X54528Y98425D02*
D03*
X52559Y77559D02*
D03*
X55709D02*
D03*
X58858D02*
D03*
X65158D02*
D03*
X68307D02*
D03*
X71457D02*
D03*
X85827D02*
D03*
X98425D02*
D03*
X111024D02*
D03*
X89468Y84646D02*
D03*
X98032Y111024D02*
D03*
X100787Y93701D02*
D03*
X90945Y98425D02*
D03*
X88976Y77559D02*
D03*
X92126D02*
D03*
X95276D02*
D03*
X101575D02*
D03*
X104724D02*
D03*
X107874D02*
D03*
X122244D02*
D03*
X134843D02*
D03*
X147441D02*
D03*
X125886Y84646D02*
D03*
X134449Y111024D02*
D03*
X137205Y93701D02*
D03*
X127362Y98425D02*
D03*
X125394Y77559D02*
D03*
X128543D02*
D03*
X131693D02*
D03*
X137992D02*
D03*
X141142D02*
D03*
X144291D02*
D03*
X158661D02*
D03*
X171260D02*
D03*
X183858D02*
D03*
X162303Y84646D02*
D03*
X170866Y111024D02*
D03*
X173622Y93701D02*
D03*
X163779Y98425D02*
D03*
X161811Y77559D02*
D03*
X164961D02*
D03*
X168110D02*
D03*
X174409D02*
D03*
X177559D02*
D03*
X180709D02*
D03*
X12992Y134646D02*
D03*
X25591D02*
D03*
X38189D02*
D03*
X16634Y141732D02*
D03*
X25197Y168110D02*
D03*
X27953Y150787D02*
D03*
X18110Y155512D02*
D03*
X16142Y134646D02*
D03*
X19291D02*
D03*
X22441D02*
D03*
X28740D02*
D03*
X31890D02*
D03*
X35039D02*
D03*
X49409D02*
D03*
X62008D02*
D03*
X74606D02*
D03*
X53051Y141732D02*
D03*
X61614Y168110D02*
D03*
X64370Y150787D02*
D03*
X54528Y155512D02*
D03*
X52559Y134646D02*
D03*
X55709D02*
D03*
X58858D02*
D03*
X65158D02*
D03*
X68307D02*
D03*
X71457D02*
D03*
X85827D02*
D03*
X98425D02*
D03*
X111024D02*
D03*
X89468Y141732D02*
D03*
X98032Y168110D02*
D03*
X100787Y150787D02*
D03*
X90945Y155512D02*
D03*
X88976Y134646D02*
D03*
X92126D02*
D03*
X95276D02*
D03*
X101575D02*
D03*
X104724D02*
D03*
X107874D02*
D03*
X122244D02*
D03*
X134843D02*
D03*
X147441D02*
D03*
X125886Y141732D02*
D03*
X134449Y168110D02*
D03*
X137205Y150787D02*
D03*
X127362Y155512D02*
D03*
X125394Y134646D02*
D03*
X128543D02*
D03*
X131693D02*
D03*
X137992D02*
D03*
X141142D02*
D03*
X144291D02*
D03*
X158661D02*
D03*
X171260D02*
D03*
X183858D02*
D03*
X162303Y141732D02*
D03*
X170866Y168110D02*
D03*
X173622Y150787D02*
D03*
X163779Y155512D02*
D03*
X161811Y134646D02*
D03*
X164961D02*
D03*
X168110D02*
D03*
X174409D02*
D03*
X177559D02*
D03*
X180709D02*
D03*
M02*
