G04*
G04 #@! TF.GenerationSoftware,Altium Limited,Altium Designer,21.5.1 (32)*
G04*
G04 Layer_Color=16711935*
%FSLAX25Y25*%
%MOIN*%
G70*
G04*
G04 #@! TF.SameCoordinates,56779449-03F1-48BB-9336-A885ABDA861C*
G04*
G04*
G04 #@! TF.FilePolarity,Negative*
G04*
G01*
G75*
%ADD46R,0.02756X0.04331*%
%ADD47C,0.00800*%
%ADD48O,0.04331X0.03386*%
%ADD49O,0.03386X0.04331*%
D46*
X36220Y15748D02*
D03*
X14173D02*
D03*
X73622D02*
D03*
X51575D02*
D03*
X111024D02*
D03*
X88976D02*
D03*
X148425D02*
D03*
X126378D02*
D03*
X185827D02*
D03*
X163779D02*
D03*
X36220Y75197D02*
D03*
X14173D02*
D03*
X73622D02*
D03*
X51575D02*
D03*
X111024D02*
D03*
X88976D02*
D03*
X148425D02*
D03*
X126378D02*
D03*
X185827D02*
D03*
X163779D02*
D03*
X36220Y134646D02*
D03*
X14173D02*
D03*
X73622D02*
D03*
X51575D02*
D03*
X111024D02*
D03*
X88976D02*
D03*
X148425D02*
D03*
X126378D02*
D03*
X185827D02*
D03*
X163779D02*
D03*
D47*
X7874Y188976D02*
D03*
X188976D02*
D03*
Y7874D02*
D03*
X7874D02*
D03*
D48*
X34095Y58307D02*
D03*
Y53307D02*
D03*
Y48307D02*
D03*
Y43307D02*
D03*
Y33307D02*
D03*
Y28307D02*
D03*
X13150D02*
D03*
Y33307D02*
D03*
Y43307D02*
D03*
Y48307D02*
D03*
Y53307D02*
D03*
Y58307D02*
D03*
X71496D02*
D03*
Y53307D02*
D03*
Y48307D02*
D03*
Y43307D02*
D03*
Y33307D02*
D03*
Y28307D02*
D03*
X50551D02*
D03*
Y33307D02*
D03*
Y43307D02*
D03*
Y48307D02*
D03*
Y53307D02*
D03*
Y58307D02*
D03*
X108898D02*
D03*
Y53307D02*
D03*
Y48307D02*
D03*
Y43307D02*
D03*
Y33307D02*
D03*
Y28307D02*
D03*
X87953D02*
D03*
Y33307D02*
D03*
Y43307D02*
D03*
Y48307D02*
D03*
Y53307D02*
D03*
Y58307D02*
D03*
X146299D02*
D03*
Y53307D02*
D03*
Y48307D02*
D03*
Y43307D02*
D03*
Y33307D02*
D03*
Y28307D02*
D03*
X125354D02*
D03*
Y33307D02*
D03*
Y43307D02*
D03*
Y48307D02*
D03*
Y53307D02*
D03*
Y58307D02*
D03*
X183701D02*
D03*
Y53307D02*
D03*
Y48307D02*
D03*
Y43307D02*
D03*
Y33307D02*
D03*
Y28307D02*
D03*
X162756D02*
D03*
Y33307D02*
D03*
Y43307D02*
D03*
Y48307D02*
D03*
Y53307D02*
D03*
Y58307D02*
D03*
X34095Y117756D02*
D03*
Y112756D02*
D03*
Y107756D02*
D03*
Y102756D02*
D03*
Y92756D02*
D03*
Y87756D02*
D03*
X13150D02*
D03*
Y92756D02*
D03*
Y102756D02*
D03*
Y107756D02*
D03*
Y112756D02*
D03*
Y117756D02*
D03*
X71496D02*
D03*
Y112756D02*
D03*
Y107756D02*
D03*
Y102756D02*
D03*
Y92756D02*
D03*
Y87756D02*
D03*
X50551D02*
D03*
Y92756D02*
D03*
Y102756D02*
D03*
Y107756D02*
D03*
Y112756D02*
D03*
Y117756D02*
D03*
X108898D02*
D03*
Y112756D02*
D03*
Y107756D02*
D03*
Y102756D02*
D03*
Y92756D02*
D03*
Y87756D02*
D03*
X87953D02*
D03*
Y92756D02*
D03*
Y102756D02*
D03*
Y107756D02*
D03*
Y112756D02*
D03*
Y117756D02*
D03*
X146299D02*
D03*
Y112756D02*
D03*
Y107756D02*
D03*
Y102756D02*
D03*
Y92756D02*
D03*
Y87756D02*
D03*
X125354D02*
D03*
Y92756D02*
D03*
Y102756D02*
D03*
Y107756D02*
D03*
Y112756D02*
D03*
Y117756D02*
D03*
X183701D02*
D03*
Y112756D02*
D03*
Y107756D02*
D03*
Y102756D02*
D03*
Y92756D02*
D03*
Y87756D02*
D03*
X162756D02*
D03*
Y92756D02*
D03*
Y102756D02*
D03*
Y107756D02*
D03*
Y112756D02*
D03*
Y117756D02*
D03*
X34095Y177205D02*
D03*
Y172205D02*
D03*
Y167205D02*
D03*
Y162205D02*
D03*
Y152205D02*
D03*
Y147205D02*
D03*
X13150D02*
D03*
Y152205D02*
D03*
Y162205D02*
D03*
Y167205D02*
D03*
Y172205D02*
D03*
Y177205D02*
D03*
X71496D02*
D03*
Y172205D02*
D03*
Y167205D02*
D03*
Y162205D02*
D03*
Y152205D02*
D03*
Y147205D02*
D03*
X50551D02*
D03*
Y152205D02*
D03*
Y162205D02*
D03*
Y167205D02*
D03*
Y172205D02*
D03*
Y177205D02*
D03*
X108898D02*
D03*
Y172205D02*
D03*
Y167205D02*
D03*
Y162205D02*
D03*
Y152205D02*
D03*
Y147205D02*
D03*
X87953D02*
D03*
Y152205D02*
D03*
Y162205D02*
D03*
Y167205D02*
D03*
Y172205D02*
D03*
Y177205D02*
D03*
X146299D02*
D03*
Y172205D02*
D03*
Y167205D02*
D03*
Y162205D02*
D03*
Y152205D02*
D03*
Y147205D02*
D03*
X125354D02*
D03*
Y152205D02*
D03*
Y162205D02*
D03*
Y167205D02*
D03*
Y172205D02*
D03*
Y177205D02*
D03*
X183701D02*
D03*
Y172205D02*
D03*
Y167205D02*
D03*
Y162205D02*
D03*
Y152205D02*
D03*
Y147205D02*
D03*
X162756D02*
D03*
Y152205D02*
D03*
Y162205D02*
D03*
Y167205D02*
D03*
Y172205D02*
D03*
Y177205D02*
D03*
D49*
X18622Y57835D02*
D03*
X23622D02*
D03*
X28622D02*
D03*
X56024D02*
D03*
X61024D02*
D03*
X66024D02*
D03*
X93425D02*
D03*
X98425D02*
D03*
X103425D02*
D03*
X130827D02*
D03*
X135827D02*
D03*
X140827D02*
D03*
X168228D02*
D03*
X173228D02*
D03*
X178228D02*
D03*
X18622Y117283D02*
D03*
X23622D02*
D03*
X28622D02*
D03*
X56024D02*
D03*
X61024D02*
D03*
X66024D02*
D03*
X93425D02*
D03*
X98425D02*
D03*
X103425D02*
D03*
X130827D02*
D03*
X135827D02*
D03*
X140827D02*
D03*
X168228D02*
D03*
X173228D02*
D03*
X178228D02*
D03*
X18622Y176732D02*
D03*
X23622D02*
D03*
X28622D02*
D03*
X56024D02*
D03*
X61024D02*
D03*
X66024D02*
D03*
X93425D02*
D03*
X98425D02*
D03*
X103425D02*
D03*
X130827D02*
D03*
X135827D02*
D03*
X140827D02*
D03*
X168228D02*
D03*
X173228D02*
D03*
X178228D02*
D03*
M02*
