G04*
G04 #@! TF.GenerationSoftware,Altium Limited,Altium Designer,21.5.1 (32)*
G04*
G04 Layer_Color=8421504*
%FSLAX25Y25*%
%MOIN*%
G70*
G04*
G04 #@! TF.SameCoordinates,56779449-03F1-48BB-9336-A885ABDA861C*
G04*
G04*
G04 #@! TF.FilePolarity,Positive*
G04*
G01*
G75*
%ADD16R,0.01654X0.01890*%
%ADD17R,0.01181X0.03150*%
G04:AMPARAMS|DCode=18|XSize=19.68mil|YSize=23.62mil|CornerRadius=1.97mil|HoleSize=0mil|Usage=FLASHONLY|Rotation=270.000|XOffset=0mil|YOffset=0mil|HoleType=Round|Shape=RoundedRectangle|*
%AMROUNDEDRECTD18*
21,1,0.01968,0.01968,0,0,270.0*
21,1,0.01575,0.02362,0,0,270.0*
1,1,0.00394,-0.00984,-0.00787*
1,1,0.00394,-0.00984,0.00787*
1,1,0.00394,0.00984,0.00787*
1,1,0.00394,0.00984,-0.00787*
%
%ADD18ROUNDEDRECTD18*%
G04:AMPARAMS|DCode=19|XSize=19.68mil|YSize=23.62mil|CornerRadius=1.97mil|HoleSize=0mil|Usage=FLASHONLY|Rotation=0.000|XOffset=0mil|YOffset=0mil|HoleType=Round|Shape=RoundedRectangle|*
%AMROUNDEDRECTD19*
21,1,0.01968,0.01968,0,0,0.0*
21,1,0.01575,0.02362,0,0,0.0*
1,1,0.00394,0.00787,-0.00984*
1,1,0.00394,-0.00787,-0.00984*
1,1,0.00394,-0.00787,0.00984*
1,1,0.00394,0.00787,0.00984*
%
%ADD19ROUNDEDRECTD19*%
G04:AMPARAMS|DCode=20|XSize=23.62mil|YSize=23.62mil|CornerRadius=2.36mil|HoleSize=0mil|Usage=FLASHONLY|Rotation=0.000|XOffset=0mil|YOffset=0mil|HoleType=Round|Shape=RoundedRectangle|*
%AMROUNDEDRECTD20*
21,1,0.02362,0.01890,0,0,0.0*
21,1,0.01890,0.02362,0,0,0.0*
1,1,0.00472,0.00945,-0.00945*
1,1,0.00472,-0.00945,-0.00945*
1,1,0.00472,-0.00945,0.00945*
1,1,0.00472,0.00945,0.00945*
%
%ADD20ROUNDEDRECTD20*%
%ADD21R,0.00787X0.00787*%
%ADD22R,0.00394X0.00394*%
G04:AMPARAMS|DCode=23|XSize=16.54mil|YSize=18.9mil|CornerRadius=0mil|HoleSize=0mil|Usage=FLASHONLY|Rotation=225.000|XOffset=0mil|YOffset=0mil|HoleType=Round|Shape=Rectangle|*
%AMROTATEDRECTD23*
4,1,4,-0.00084,0.01253,0.01253,-0.00084,0.00084,-0.01253,-0.01253,0.00084,-0.00084,0.01253,0.0*
%
%ADD23ROTATEDRECTD23*%

G04:AMPARAMS|DCode=24|XSize=11.81mil|YSize=21.65mil|CornerRadius=2.95mil|HoleSize=0mil|Usage=FLASHONLY|Rotation=135.000|XOffset=0mil|YOffset=0mil|HoleType=Round|Shape=RoundedRectangle|*
%AMROUNDEDRECTD24*
21,1,0.01181,0.01575,0,0,135.0*
21,1,0.00591,0.02165,0,0,135.0*
1,1,0.00591,0.00348,0.00766*
1,1,0.00591,0.00766,0.00348*
1,1,0.00591,-0.00348,-0.00766*
1,1,0.00591,-0.00766,-0.00348*
%
%ADD24ROUNDEDRECTD24*%
G04:AMPARAMS|DCode=25|XSize=11.81mil|YSize=19.68mil|CornerRadius=0mil|HoleSize=0mil|Usage=FLASHONLY|Rotation=135.000|XOffset=0mil|YOffset=0mil|HoleType=Round|Shape=Round|*
%AMOVALD25*
21,1,0.00787,0.01181,0.00000,0.00000,225.0*
1,1,0.01181,0.00278,0.00278*
1,1,0.01181,-0.00278,-0.00278*
%
%ADD25OVALD25*%

G04:AMPARAMS|DCode=26|XSize=11.81mil|YSize=19.68mil|CornerRadius=0mil|HoleSize=0mil|Usage=FLASHONLY|Rotation=45.000|XOffset=0mil|YOffset=0mil|HoleType=Round|Shape=Round|*
%AMOVALD26*
21,1,0.00787,0.01181,0.00000,0.00000,135.0*
1,1,0.01181,0.00278,-0.00278*
1,1,0.01181,-0.00278,0.00278*
%
%ADD26OVALD26*%

G04:AMPARAMS|DCode=27|XSize=11.81mil|YSize=21.65mil|CornerRadius=2.95mil|HoleSize=0mil|Usage=FLASHONLY|Rotation=45.000|XOffset=0mil|YOffset=0mil|HoleType=Round|Shape=RoundedRectangle|*
%AMROUNDEDRECTD27*
21,1,0.01181,0.01575,0,0,45.0*
21,1,0.00591,0.02165,0,0,45.0*
1,1,0.00591,0.00766,-0.00348*
1,1,0.00591,0.00348,-0.00766*
1,1,0.00591,-0.00766,0.00348*
1,1,0.00591,-0.00348,0.00766*
%
%ADD27ROUNDEDRECTD27*%
%ADD28R,0.02362X0.03937*%
G36*
X167146Y141260D02*
X167028D01*
X166319Y141969D01*
Y142835D01*
X167146D01*
Y141260D01*
D02*
G37*
G36*
X164587Y141969D02*
X163878Y141260D01*
X163760D01*
Y142835D01*
X164587D01*
Y141969D01*
D02*
G37*
G36*
X129744Y141260D02*
X129626D01*
X128917Y141969D01*
Y142835D01*
X129744D01*
Y141260D01*
D02*
G37*
G36*
X127185Y141969D02*
X126476Y141260D01*
X126358D01*
Y142835D01*
X127185D01*
Y141969D01*
D02*
G37*
G36*
X92343Y141260D02*
X92224D01*
X91516Y141969D01*
Y142835D01*
X92343D01*
Y141260D01*
D02*
G37*
G36*
X89784Y141969D02*
X89075Y141260D01*
X88957D01*
Y142835D01*
X89784D01*
Y141969D01*
D02*
G37*
G36*
X54941Y141260D02*
X54823D01*
X54114Y141969D01*
Y142835D01*
X54941D01*
Y141260D01*
D02*
G37*
G36*
X52382Y141969D02*
X51673Y141260D01*
X51555D01*
Y142835D01*
X52382D01*
Y141969D01*
D02*
G37*
G36*
X17539Y141260D02*
X17421D01*
X16713Y141969D01*
Y142835D01*
X17539D01*
Y141260D01*
D02*
G37*
G36*
X14980Y141969D02*
X14272Y141260D01*
X14154D01*
Y142835D01*
X14980D01*
Y141969D01*
D02*
G37*
G36*
X166706Y140276D02*
X165453Y139023D01*
X164200Y140276D01*
X165453Y141528D01*
X166706Y140276D01*
D02*
G37*
G36*
X129304D02*
X128051Y139023D01*
X126798Y140276D01*
X128051Y141528D01*
X129304Y140276D01*
D02*
G37*
G36*
X91902D02*
X90650Y139023D01*
X89397Y140276D01*
X90650Y141528D01*
X91902Y140276D01*
D02*
G37*
G36*
X54501D02*
X53248Y139023D01*
X51995Y140276D01*
X53248Y141528D01*
X54501Y140276D01*
D02*
G37*
G36*
X17099D02*
X15846Y139023D01*
X14594Y140276D01*
X15846Y141528D01*
X17099Y140276D01*
D02*
G37*
G36*
X167146Y137716D02*
X166319D01*
Y138583D01*
X167028Y139291D01*
X167146D01*
Y137716D01*
D02*
G37*
G36*
X164587Y138583D02*
Y137716D01*
X163760D01*
Y139291D01*
X163878D01*
X164587Y138583D01*
D02*
G37*
G36*
X129744Y137716D02*
X128917D01*
Y138583D01*
X129626Y139291D01*
X129744D01*
Y137716D01*
D02*
G37*
G36*
X127185Y138583D02*
Y137716D01*
X126358D01*
Y139291D01*
X126476D01*
X127185Y138583D01*
D02*
G37*
G36*
X92343Y137716D02*
X91516D01*
Y138583D01*
X92224Y139291D01*
X92343D01*
Y137716D01*
D02*
G37*
G36*
X89784Y138583D02*
Y137716D01*
X88957D01*
Y139291D01*
X89075D01*
X89784Y138583D01*
D02*
G37*
G36*
X54941Y137716D02*
X54114D01*
Y138583D01*
X54823Y139291D01*
X54941D01*
Y137716D01*
D02*
G37*
G36*
X52382Y138583D02*
Y137716D01*
X51555D01*
Y139291D01*
X51673D01*
X52382Y138583D01*
D02*
G37*
G36*
X17539Y137716D02*
X16713D01*
Y138583D01*
X17421Y139291D01*
X17539D01*
Y137716D01*
D02*
G37*
G36*
X14980Y138583D02*
Y137716D01*
X14154D01*
Y139291D01*
X14272D01*
X14980Y138583D01*
D02*
G37*
G36*
X167146Y81811D02*
X167028D01*
X166319Y82520D01*
Y83386D01*
X167146D01*
Y81811D01*
D02*
G37*
G36*
X164587Y82520D02*
X163878Y81811D01*
X163760D01*
Y83386D01*
X164587D01*
Y82520D01*
D02*
G37*
G36*
X129744Y81811D02*
X129626D01*
X128917Y82520D01*
Y83386D01*
X129744D01*
Y81811D01*
D02*
G37*
G36*
X127185Y82520D02*
X126476Y81811D01*
X126358D01*
Y83386D01*
X127185D01*
Y82520D01*
D02*
G37*
G36*
X92343Y81811D02*
X92224D01*
X91516Y82520D01*
Y83386D01*
X92343D01*
Y81811D01*
D02*
G37*
G36*
X89784Y82520D02*
X89075Y81811D01*
X88957D01*
Y83386D01*
X89784D01*
Y82520D01*
D02*
G37*
G36*
X54941Y81811D02*
X54823D01*
X54114Y82520D01*
Y83386D01*
X54941D01*
Y81811D01*
D02*
G37*
G36*
X52382Y82520D02*
X51673Y81811D01*
X51555D01*
Y83386D01*
X52382D01*
Y82520D01*
D02*
G37*
G36*
X17539Y81811D02*
X17421D01*
X16713Y82520D01*
Y83386D01*
X17539D01*
Y81811D01*
D02*
G37*
G36*
X14980Y82520D02*
X14272Y81811D01*
X14154D01*
Y83386D01*
X14980D01*
Y82520D01*
D02*
G37*
G36*
X166706Y80827D02*
X165453Y79574D01*
X164200Y80827D01*
X165453Y82079D01*
X166706Y80827D01*
D02*
G37*
G36*
X129304D02*
X128051Y79574D01*
X126798Y80827D01*
X128051Y82079D01*
X129304Y80827D01*
D02*
G37*
G36*
X91902D02*
X90650Y79574D01*
X89397Y80827D01*
X90650Y82079D01*
X91902Y80827D01*
D02*
G37*
G36*
X54501D02*
X53248Y79574D01*
X51995Y80827D01*
X53248Y82079D01*
X54501Y80827D01*
D02*
G37*
G36*
X17099D02*
X15846Y79574D01*
X14594Y80827D01*
X15846Y82079D01*
X17099Y80827D01*
D02*
G37*
G36*
X167146Y78268D02*
X166319D01*
Y79134D01*
X167028Y79843D01*
X167146D01*
Y78268D01*
D02*
G37*
G36*
X164587Y79134D02*
Y78268D01*
X163760D01*
Y79843D01*
X163878D01*
X164587Y79134D01*
D02*
G37*
G36*
X129744Y78268D02*
X128917D01*
Y79134D01*
X129626Y79843D01*
X129744D01*
Y78268D01*
D02*
G37*
G36*
X127185Y79134D02*
Y78268D01*
X126358D01*
Y79843D01*
X126476D01*
X127185Y79134D01*
D02*
G37*
G36*
X92343Y78268D02*
X91516D01*
Y79134D01*
X92224Y79843D01*
X92343D01*
Y78268D01*
D02*
G37*
G36*
X89784Y79134D02*
Y78268D01*
X88957D01*
Y79843D01*
X89075D01*
X89784Y79134D01*
D02*
G37*
G36*
X54941Y78268D02*
X54114D01*
Y79134D01*
X54823Y79843D01*
X54941D01*
Y78268D01*
D02*
G37*
G36*
X52382Y79134D02*
Y78268D01*
X51555D01*
Y79843D01*
X51673D01*
X52382Y79134D01*
D02*
G37*
G36*
X17539Y78268D02*
X16713D01*
Y79134D01*
X17421Y79843D01*
X17539D01*
Y78268D01*
D02*
G37*
G36*
X14980Y79134D02*
Y78268D01*
X14154D01*
Y79843D01*
X14272D01*
X14980Y79134D01*
D02*
G37*
G36*
X167146Y22362D02*
X167028D01*
X166319Y23071D01*
Y23937D01*
X167146D01*
Y22362D01*
D02*
G37*
G36*
X164587Y23071D02*
X163878Y22362D01*
X163760D01*
Y23937D01*
X164587D01*
Y23071D01*
D02*
G37*
G36*
X129744Y22362D02*
X129626D01*
X128917Y23071D01*
Y23937D01*
X129744D01*
Y22362D01*
D02*
G37*
G36*
X127185Y23071D02*
X126476Y22362D01*
X126358D01*
Y23937D01*
X127185D01*
Y23071D01*
D02*
G37*
G36*
X92343Y22362D02*
X92224D01*
X91516Y23071D01*
Y23937D01*
X92343D01*
Y22362D01*
D02*
G37*
G36*
X89784Y23071D02*
X89075Y22362D01*
X88957D01*
Y23937D01*
X89784D01*
Y23071D01*
D02*
G37*
G36*
X54941Y22362D02*
X54823D01*
X54114Y23071D01*
Y23937D01*
X54941D01*
Y22362D01*
D02*
G37*
G36*
X52382Y23071D02*
X51673Y22362D01*
X51555D01*
Y23937D01*
X52382D01*
Y23071D01*
D02*
G37*
G36*
X17539Y22362D02*
X17421D01*
X16713Y23071D01*
Y23937D01*
X17539D01*
Y22362D01*
D02*
G37*
G36*
X14980Y23071D02*
X14272Y22362D01*
X14154D01*
Y23937D01*
X14980D01*
Y23071D01*
D02*
G37*
G36*
X166706Y21378D02*
X165453Y20125D01*
X164200Y21378D01*
X165453Y22631D01*
X166706Y21378D01*
D02*
G37*
G36*
X129304D02*
X128051Y20125D01*
X126798Y21378D01*
X128051Y22631D01*
X129304Y21378D01*
D02*
G37*
G36*
X91902D02*
X90650Y20125D01*
X89397Y21378D01*
X90650Y22631D01*
X91902Y21378D01*
D02*
G37*
G36*
X54501D02*
X53248Y20125D01*
X51995Y21378D01*
X53248Y22631D01*
X54501Y21378D01*
D02*
G37*
G36*
X17099D02*
X15846Y20125D01*
X14594Y21378D01*
X15846Y22631D01*
X17099Y21378D01*
D02*
G37*
G36*
X167146Y18819D02*
X166319D01*
Y19685D01*
X167028Y20394D01*
X167146D01*
Y18819D01*
D02*
G37*
G36*
X164587Y19685D02*
Y18819D01*
X163760D01*
Y20394D01*
X163878D01*
X164587Y19685D01*
D02*
G37*
G36*
X129744Y18819D02*
X128917D01*
Y19685D01*
X129626Y20394D01*
X129744D01*
Y18819D01*
D02*
G37*
G36*
X127185Y19685D02*
Y18819D01*
X126358D01*
Y20394D01*
X126476D01*
X127185Y19685D01*
D02*
G37*
G36*
X92343Y18819D02*
X91516D01*
Y19685D01*
X92224Y20394D01*
X92343D01*
Y18819D01*
D02*
G37*
G36*
X89784Y19685D02*
Y18819D01*
X88957D01*
Y20394D01*
X89075D01*
X89784Y19685D01*
D02*
G37*
G36*
X54941Y18819D02*
X54114D01*
Y19685D01*
X54823Y20394D01*
X54941D01*
Y18819D01*
D02*
G37*
G36*
X52382Y19685D02*
Y18819D01*
X51555D01*
Y20394D01*
X51673D01*
X52382Y19685D01*
D02*
G37*
G36*
X17539Y18819D02*
X16713D01*
Y19685D01*
X17421Y20394D01*
X17539D01*
Y18819D01*
D02*
G37*
G36*
X14980Y19685D02*
Y18819D01*
X14154D01*
Y20394D01*
X14272D01*
X14980Y19685D01*
D02*
G37*
D16*
X15945Y28130D02*
D03*
Y30728D02*
D03*
X53347Y28130D02*
D03*
Y30728D02*
D03*
X90748Y28130D02*
D03*
Y30728D02*
D03*
X128150Y28130D02*
D03*
Y30728D02*
D03*
X165551Y28130D02*
D03*
Y30728D02*
D03*
X15945Y87579D02*
D03*
Y90177D02*
D03*
X53347Y87579D02*
D03*
Y90177D02*
D03*
X90748Y87579D02*
D03*
Y90177D02*
D03*
X128150Y87579D02*
D03*
Y90177D02*
D03*
X165551Y87579D02*
D03*
Y90177D02*
D03*
X15945Y147028D02*
D03*
Y149626D02*
D03*
X53347Y147028D02*
D03*
Y149626D02*
D03*
X90748Y147028D02*
D03*
Y149626D02*
D03*
X128150Y147028D02*
D03*
Y149626D02*
D03*
X165551Y147028D02*
D03*
Y149626D02*
D03*
D17*
X15256Y63484D02*
D03*
X17224D02*
D03*
X19193D02*
D03*
X21161D02*
D03*
X23130D02*
D03*
X25098D02*
D03*
X27067D02*
D03*
X29035D02*
D03*
X52657D02*
D03*
X54626D02*
D03*
X56594D02*
D03*
X58563D02*
D03*
X60531D02*
D03*
X62500D02*
D03*
X64468D02*
D03*
X66437D02*
D03*
X90059D02*
D03*
X92027D02*
D03*
X93996D02*
D03*
X95964D02*
D03*
X97933D02*
D03*
X99901D02*
D03*
X101870D02*
D03*
X103839D02*
D03*
X127461D02*
D03*
X129429D02*
D03*
X131398D02*
D03*
X133366D02*
D03*
X135335D02*
D03*
X137303D02*
D03*
X139272D02*
D03*
X141240D02*
D03*
X164862D02*
D03*
X166831D02*
D03*
X168799D02*
D03*
X170768D02*
D03*
X172736D02*
D03*
X174705D02*
D03*
X176673D02*
D03*
X178642D02*
D03*
X15256Y122933D02*
D03*
X17224D02*
D03*
X19193D02*
D03*
X21161D02*
D03*
X23130D02*
D03*
X25098D02*
D03*
X27067D02*
D03*
X29035D02*
D03*
X52657D02*
D03*
X54626D02*
D03*
X56594D02*
D03*
X58563D02*
D03*
X60531D02*
D03*
X62500D02*
D03*
X64468D02*
D03*
X66437D02*
D03*
X90059D02*
D03*
X92027D02*
D03*
X93996D02*
D03*
X95964D02*
D03*
X97933D02*
D03*
X99901D02*
D03*
X101870D02*
D03*
X103839D02*
D03*
X127461D02*
D03*
X129429D02*
D03*
X131398D02*
D03*
X133366D02*
D03*
X135335D02*
D03*
X137303D02*
D03*
X139272D02*
D03*
X141240D02*
D03*
X164862D02*
D03*
X166831D02*
D03*
X168799D02*
D03*
X170768D02*
D03*
X172736D02*
D03*
X174705D02*
D03*
X176673D02*
D03*
X178642D02*
D03*
X15256Y182382D02*
D03*
X17224D02*
D03*
X19193D02*
D03*
X21161D02*
D03*
X23130D02*
D03*
X25098D02*
D03*
X27067D02*
D03*
X29035D02*
D03*
X52657D02*
D03*
X54626D02*
D03*
X56594D02*
D03*
X58563D02*
D03*
X60531D02*
D03*
X62500D02*
D03*
X64468D02*
D03*
X66437D02*
D03*
X90059D02*
D03*
X92027D02*
D03*
X93996D02*
D03*
X95964D02*
D03*
X97933D02*
D03*
X99901D02*
D03*
X101870D02*
D03*
X103839D02*
D03*
X127461D02*
D03*
X129429D02*
D03*
X131398D02*
D03*
X133366D02*
D03*
X135335D02*
D03*
X137303D02*
D03*
X139272D02*
D03*
X141240D02*
D03*
X164862D02*
D03*
X166831D02*
D03*
X168799D02*
D03*
X170768D02*
D03*
X172736D02*
D03*
X174705D02*
D03*
X176673D02*
D03*
X178642D02*
D03*
D18*
X19094Y55807D02*
D03*
X23031D02*
D03*
X56496D02*
D03*
X60433D02*
D03*
X93898D02*
D03*
X97835D02*
D03*
X131299D02*
D03*
X135236D02*
D03*
X168701D02*
D03*
X172638D02*
D03*
X19094Y115256D02*
D03*
X23031D02*
D03*
X56496D02*
D03*
X60433D02*
D03*
X93898D02*
D03*
X97835D02*
D03*
X131299D02*
D03*
X135236D02*
D03*
X168701D02*
D03*
X172638D02*
D03*
X19094Y174705D02*
D03*
X23031D02*
D03*
X56496D02*
D03*
X60433D02*
D03*
X93898D02*
D03*
X97835D02*
D03*
X131299D02*
D03*
X135236D02*
D03*
X168701D02*
D03*
X172638D02*
D03*
D19*
X32283Y20866D02*
D03*
Y24803D02*
D03*
X19212Y23858D02*
D03*
Y19921D02*
D03*
X11319Y32874D02*
D03*
Y28937D02*
D03*
X36122Y28839D02*
D03*
Y32776D02*
D03*
X11811Y19685D02*
D03*
Y23622D02*
D03*
X69685Y20866D02*
D03*
Y24803D02*
D03*
X56614Y23858D02*
D03*
Y19921D02*
D03*
X48720Y32874D02*
D03*
Y28937D02*
D03*
X73524Y28839D02*
D03*
Y32776D02*
D03*
X49213Y19685D02*
D03*
Y23622D02*
D03*
X107087Y20866D02*
D03*
Y24803D02*
D03*
X94016Y23858D02*
D03*
Y19921D02*
D03*
X86122Y32874D02*
D03*
Y28937D02*
D03*
X110925Y28839D02*
D03*
Y32776D02*
D03*
X86614Y19685D02*
D03*
Y23622D02*
D03*
X144488Y20866D02*
D03*
Y24803D02*
D03*
X131417Y23858D02*
D03*
Y19921D02*
D03*
X123524Y32874D02*
D03*
Y28937D02*
D03*
X148327Y28839D02*
D03*
Y32776D02*
D03*
X124016Y19685D02*
D03*
Y23622D02*
D03*
X181890Y20866D02*
D03*
Y24803D02*
D03*
X168819Y23858D02*
D03*
Y19921D02*
D03*
X160925Y32874D02*
D03*
Y28937D02*
D03*
X185728Y28839D02*
D03*
Y32776D02*
D03*
X161417Y19685D02*
D03*
Y23622D02*
D03*
X32283Y80315D02*
D03*
Y84252D02*
D03*
X19212Y83307D02*
D03*
Y79370D02*
D03*
X11319Y92323D02*
D03*
Y88386D02*
D03*
X36122Y88287D02*
D03*
Y92224D02*
D03*
X11811Y79134D02*
D03*
Y83071D02*
D03*
X69685Y80315D02*
D03*
Y84252D02*
D03*
X56614Y83307D02*
D03*
Y79370D02*
D03*
X48720Y92323D02*
D03*
Y88386D02*
D03*
X73524Y88287D02*
D03*
Y92224D02*
D03*
X49213Y79134D02*
D03*
Y83071D02*
D03*
X107087Y80315D02*
D03*
Y84252D02*
D03*
X94016Y83307D02*
D03*
Y79370D02*
D03*
X86122Y92323D02*
D03*
Y88386D02*
D03*
X110925Y88287D02*
D03*
Y92224D02*
D03*
X86614Y79134D02*
D03*
Y83071D02*
D03*
X144488Y80315D02*
D03*
Y84252D02*
D03*
X131417Y83307D02*
D03*
Y79370D02*
D03*
X123524Y92323D02*
D03*
Y88386D02*
D03*
X148327Y88287D02*
D03*
Y92224D02*
D03*
X124016Y79134D02*
D03*
Y83071D02*
D03*
X181890Y80315D02*
D03*
Y84252D02*
D03*
X168819Y83307D02*
D03*
Y79370D02*
D03*
X160925Y92323D02*
D03*
Y88386D02*
D03*
X185728Y88287D02*
D03*
Y92224D02*
D03*
X161417Y79134D02*
D03*
Y83071D02*
D03*
X32283Y139764D02*
D03*
Y143701D02*
D03*
X19212Y142755D02*
D03*
Y138819D02*
D03*
X11319Y151772D02*
D03*
Y147835D02*
D03*
X36122Y147736D02*
D03*
Y151673D02*
D03*
X11811Y138583D02*
D03*
Y142520D02*
D03*
X69685Y139764D02*
D03*
Y143701D02*
D03*
X56614Y142755D02*
D03*
Y138819D02*
D03*
X48720Y151772D02*
D03*
Y147835D02*
D03*
X73524Y147736D02*
D03*
Y151673D02*
D03*
X49213Y138583D02*
D03*
Y142520D02*
D03*
X107087Y139764D02*
D03*
Y143701D02*
D03*
X94016Y142755D02*
D03*
Y138819D02*
D03*
X86122Y151772D02*
D03*
Y147835D02*
D03*
X110925Y147736D02*
D03*
Y151673D02*
D03*
X86614Y138583D02*
D03*
Y142520D02*
D03*
X144488Y139764D02*
D03*
Y143701D02*
D03*
X131417Y142755D02*
D03*
Y138819D02*
D03*
X123524Y151772D02*
D03*
Y147835D02*
D03*
X148327Y147736D02*
D03*
Y151673D02*
D03*
X124016Y138583D02*
D03*
Y142520D02*
D03*
X181890Y139764D02*
D03*
Y143701D02*
D03*
X168819Y142755D02*
D03*
Y138819D02*
D03*
X160925Y151772D02*
D03*
Y147835D02*
D03*
X185728Y147736D02*
D03*
Y151673D02*
D03*
X161417Y138583D02*
D03*
Y142520D02*
D03*
D20*
X35728Y24803D02*
D03*
Y20866D02*
D03*
X73130Y24803D02*
D03*
Y20866D02*
D03*
X110531Y24803D02*
D03*
Y20866D02*
D03*
X147933Y24803D02*
D03*
Y20866D02*
D03*
X185335Y24803D02*
D03*
Y20866D02*
D03*
X35728Y84252D02*
D03*
Y80315D02*
D03*
X73130Y84252D02*
D03*
Y80315D02*
D03*
X110531Y84252D02*
D03*
Y80315D02*
D03*
X147933Y84252D02*
D03*
Y80315D02*
D03*
X185335Y84252D02*
D03*
Y80315D02*
D03*
X35728Y143701D02*
D03*
Y139764D02*
D03*
X73130Y143701D02*
D03*
Y139764D02*
D03*
X110531Y143701D02*
D03*
Y139764D02*
D03*
X147933Y143701D02*
D03*
Y139764D02*
D03*
X185335Y143701D02*
D03*
Y139764D02*
D03*
D21*
X15846Y21378D02*
D03*
X53248D02*
D03*
X90650D02*
D03*
X128051D02*
D03*
X165453D02*
D03*
X15846Y80827D02*
D03*
X53248D02*
D03*
X90650D02*
D03*
X128051D02*
D03*
X165453D02*
D03*
X15846Y140276D02*
D03*
X53248D02*
D03*
X90650D02*
D03*
X128051D02*
D03*
X165453D02*
D03*
D22*
X17126Y19685D02*
D03*
X14567D02*
D03*
Y23071D02*
D03*
X17126D02*
D03*
X54528Y19685D02*
D03*
X51968D02*
D03*
Y23071D02*
D03*
X54528D02*
D03*
X91929Y19685D02*
D03*
X89370D02*
D03*
Y23071D02*
D03*
X91929D02*
D03*
X129331Y19685D02*
D03*
X126772D02*
D03*
Y23071D02*
D03*
X129331D02*
D03*
X166732Y19685D02*
D03*
X164173D02*
D03*
Y23071D02*
D03*
X166732D02*
D03*
X17126Y79134D02*
D03*
X14567D02*
D03*
Y82520D02*
D03*
X17126D02*
D03*
X54528Y79134D02*
D03*
X51968D02*
D03*
Y82520D02*
D03*
X54528D02*
D03*
X91929Y79134D02*
D03*
X89370D02*
D03*
Y82520D02*
D03*
X91929D02*
D03*
X129331Y79134D02*
D03*
X126772D02*
D03*
Y82520D02*
D03*
X129331D02*
D03*
X166732Y79134D02*
D03*
X164173D02*
D03*
Y82520D02*
D03*
X166732D02*
D03*
X17126Y138583D02*
D03*
X14567D02*
D03*
Y141969D02*
D03*
X17126D02*
D03*
X54528Y138583D02*
D03*
X51968D02*
D03*
Y141969D02*
D03*
X54528D02*
D03*
X91929Y138583D02*
D03*
X89370D02*
D03*
Y141969D02*
D03*
X91929D02*
D03*
X129331Y138583D02*
D03*
X126772D02*
D03*
Y141969D02*
D03*
X129331D02*
D03*
X166732Y138583D02*
D03*
X164173D02*
D03*
Y141969D02*
D03*
X166732D02*
D03*
D23*
X20833Y27198D02*
D03*
X22671Y25361D02*
D03*
X58235Y27198D02*
D03*
X60072Y25361D02*
D03*
X95636Y27198D02*
D03*
X97474Y25361D02*
D03*
X133038Y27198D02*
D03*
X134875Y25361D02*
D03*
X170440Y27198D02*
D03*
X172277Y25361D02*
D03*
X20833Y86647D02*
D03*
X22671Y84810D02*
D03*
X58235Y86647D02*
D03*
X60072Y84810D02*
D03*
X95636Y86647D02*
D03*
X97474Y84810D02*
D03*
X133038Y86647D02*
D03*
X134875Y84810D02*
D03*
X170440Y86647D02*
D03*
X172277Y84810D02*
D03*
X20833Y146096D02*
D03*
X22671Y144258D02*
D03*
X58235Y146096D02*
D03*
X60072Y144258D02*
D03*
X95636Y146096D02*
D03*
X97474Y144258D02*
D03*
X133038Y146096D02*
D03*
X134875Y144258D02*
D03*
X170440Y146096D02*
D03*
X172277Y144258D02*
D03*
D24*
X30234Y42115D02*
D03*
X31626Y40723D02*
D03*
X27450Y44899D02*
D03*
X28842Y43507D02*
D03*
X26058Y46291D02*
D03*
X21186Y30284D02*
D03*
X19794Y31676D02*
D03*
X15618Y35851D02*
D03*
X17010Y34460D02*
D03*
X18402Y33068D02*
D03*
X67635Y42115D02*
D03*
X69027Y40723D02*
D03*
X64851Y44899D02*
D03*
X66243Y43507D02*
D03*
X63459Y46291D02*
D03*
X58588Y30284D02*
D03*
X57196Y31676D02*
D03*
X53020Y35851D02*
D03*
X54412Y34460D02*
D03*
X55804Y33068D02*
D03*
X105037Y42115D02*
D03*
X106429Y40723D02*
D03*
X102253Y44899D02*
D03*
X103645Y43507D02*
D03*
X100861Y46291D02*
D03*
X95989Y30284D02*
D03*
X94597Y31676D02*
D03*
X90421Y35851D02*
D03*
X91813Y34460D02*
D03*
X93205Y33068D02*
D03*
X142438Y42115D02*
D03*
X143831Y40723D02*
D03*
X139655Y44899D02*
D03*
X141047Y43507D02*
D03*
X138263Y46291D02*
D03*
X133391Y30284D02*
D03*
X131999Y31676D02*
D03*
X127823Y35851D02*
D03*
X129215Y34460D02*
D03*
X130607Y33068D02*
D03*
X179840Y42115D02*
D03*
X181232Y40723D02*
D03*
X177056Y44899D02*
D03*
X178448Y43507D02*
D03*
X175664Y46291D02*
D03*
X170792Y30284D02*
D03*
X169401Y31676D02*
D03*
X165225Y35851D02*
D03*
X166617Y34460D02*
D03*
X168009Y33068D02*
D03*
X30234Y101564D02*
D03*
X31626Y100172D02*
D03*
X27450Y104348D02*
D03*
X28842Y102956D02*
D03*
X26058Y105740D02*
D03*
X21186Y89732D02*
D03*
X19794Y91124D02*
D03*
X15618Y95300D02*
D03*
X17010Y93908D02*
D03*
X18402Y92516D02*
D03*
X67635Y101564D02*
D03*
X69027Y100172D02*
D03*
X64851Y104348D02*
D03*
X66243Y102956D02*
D03*
X63459Y105740D02*
D03*
X58588Y89732D02*
D03*
X57196Y91124D02*
D03*
X53020Y95300D02*
D03*
X54412Y93908D02*
D03*
X55804Y92516D02*
D03*
X105037Y101564D02*
D03*
X106429Y100172D02*
D03*
X102253Y104348D02*
D03*
X103645Y102956D02*
D03*
X100861Y105740D02*
D03*
X95989Y89732D02*
D03*
X94597Y91124D02*
D03*
X90421Y95300D02*
D03*
X91813Y93908D02*
D03*
X93205Y92516D02*
D03*
X142438Y101564D02*
D03*
X143831Y100172D02*
D03*
X139655Y104348D02*
D03*
X141047Y102956D02*
D03*
X138263Y105740D02*
D03*
X133391Y89732D02*
D03*
X131999Y91124D02*
D03*
X127823Y95300D02*
D03*
X129215Y93908D02*
D03*
X130607Y92516D02*
D03*
X179840Y101564D02*
D03*
X181232Y100172D02*
D03*
X177056Y104348D02*
D03*
X178448Y102956D02*
D03*
X175664Y105740D02*
D03*
X170792Y89732D02*
D03*
X169401Y91124D02*
D03*
X165225Y95300D02*
D03*
X166617Y93908D02*
D03*
X168009Y92516D02*
D03*
X30234Y161013D02*
D03*
X31626Y159621D02*
D03*
X27450Y163797D02*
D03*
X28842Y162405D02*
D03*
X26058Y165189D02*
D03*
X21186Y149181D02*
D03*
X19794Y150573D02*
D03*
X15618Y154749D02*
D03*
X17010Y153357D02*
D03*
X18402Y151965D02*
D03*
X67635Y161013D02*
D03*
X69027Y159621D02*
D03*
X64851Y163797D02*
D03*
X66243Y162405D02*
D03*
X63459Y165189D02*
D03*
X58588Y149181D02*
D03*
X57196Y150573D02*
D03*
X53020Y154749D02*
D03*
X54412Y153357D02*
D03*
X55804Y151965D02*
D03*
X105037Y161013D02*
D03*
X106429Y159621D02*
D03*
X102253Y163797D02*
D03*
X103645Y162405D02*
D03*
X100861Y165189D02*
D03*
X95989Y149181D02*
D03*
X94597Y150573D02*
D03*
X90421Y154749D02*
D03*
X91813Y153357D02*
D03*
X93205Y151965D02*
D03*
X142438Y161013D02*
D03*
X143831Y159621D02*
D03*
X139655Y163797D02*
D03*
X141047Y162405D02*
D03*
X138263Y165189D02*
D03*
X133391Y149181D02*
D03*
X131999Y150573D02*
D03*
X127823Y154749D02*
D03*
X129215Y153357D02*
D03*
X130607Y151965D02*
D03*
X179840Y161013D02*
D03*
X181232Y159621D02*
D03*
X177056Y163797D02*
D03*
X178448Y162405D02*
D03*
X175664Y165189D02*
D03*
X170792Y149181D02*
D03*
X169401Y150573D02*
D03*
X165225Y154749D02*
D03*
X166617Y153357D02*
D03*
X168009Y151965D02*
D03*
D25*
X33087Y39401D02*
D03*
X24736Y47753D02*
D03*
X22509Y28822D02*
D03*
X14157Y37174D02*
D03*
X70489Y39401D02*
D03*
X62137Y47753D02*
D03*
X59910Y28822D02*
D03*
X51558Y37174D02*
D03*
X107890Y39401D02*
D03*
X99539Y47753D02*
D03*
X97312Y28822D02*
D03*
X88960Y37174D02*
D03*
X145292Y39401D02*
D03*
X136940Y47753D02*
D03*
X134713Y28822D02*
D03*
X126362Y37174D02*
D03*
X182694Y39401D02*
D03*
X174342Y47753D02*
D03*
X172115Y28822D02*
D03*
X163763Y37174D02*
D03*
X33087Y98850D02*
D03*
X24736Y107201D02*
D03*
X22509Y88271D02*
D03*
X14157Y96623D02*
D03*
X70489Y98850D02*
D03*
X62137Y107201D02*
D03*
X59910Y88271D02*
D03*
X51558Y96623D02*
D03*
X107890Y98850D02*
D03*
X99539Y107201D02*
D03*
X97312Y88271D02*
D03*
X88960Y96623D02*
D03*
X145292Y98850D02*
D03*
X136940Y107201D02*
D03*
X134713Y88271D02*
D03*
X126362Y96623D02*
D03*
X182694Y98850D02*
D03*
X174342Y107201D02*
D03*
X172115Y88271D02*
D03*
X163763Y96623D02*
D03*
X33087Y158299D02*
D03*
X24736Y166650D02*
D03*
X22509Y147720D02*
D03*
X14157Y156071D02*
D03*
X70489Y158299D02*
D03*
X62137Y166650D02*
D03*
X59910Y147720D02*
D03*
X51558Y156071D02*
D03*
X107890Y158299D02*
D03*
X99539Y166650D02*
D03*
X97312Y147720D02*
D03*
X88960Y156071D02*
D03*
X145292Y158299D02*
D03*
X136940Y166650D02*
D03*
X134713Y147720D02*
D03*
X126362Y156071D02*
D03*
X182694Y158299D02*
D03*
X174342Y166650D02*
D03*
X172115Y147720D02*
D03*
X163763Y156071D02*
D03*
D26*
X33087Y37174D02*
D03*
X24736Y28822D02*
D03*
X22509Y47753D02*
D03*
X14157Y39401D02*
D03*
X70489Y37174D02*
D03*
X62137Y28822D02*
D03*
X59910Y47753D02*
D03*
X51558Y39401D02*
D03*
X107890Y37174D02*
D03*
X99539Y28822D02*
D03*
X97312Y47753D02*
D03*
X88960Y39401D02*
D03*
X145292Y37174D02*
D03*
X136940Y28822D02*
D03*
X134713Y47753D02*
D03*
X126362Y39401D02*
D03*
X182694Y37174D02*
D03*
X174342Y28822D02*
D03*
X172115Y47753D02*
D03*
X163763Y39401D02*
D03*
X33087Y96623D02*
D03*
X24736Y88271D02*
D03*
X22509Y107201D02*
D03*
X14157Y98850D02*
D03*
X70489Y96623D02*
D03*
X62137Y88271D02*
D03*
X59910Y107201D02*
D03*
X51558Y98850D02*
D03*
X107890Y96623D02*
D03*
X99539Y88271D02*
D03*
X97312Y107201D02*
D03*
X88960Y98850D02*
D03*
X145292Y96623D02*
D03*
X136940Y88271D02*
D03*
X134713Y107201D02*
D03*
X126362Y98850D02*
D03*
X182694Y96623D02*
D03*
X174342Y88271D02*
D03*
X172115Y107201D02*
D03*
X163763Y98850D02*
D03*
X33087Y156071D02*
D03*
X24736Y147720D02*
D03*
X22509Y166650D02*
D03*
X14157Y158299D02*
D03*
X70489Y156071D02*
D03*
X62137Y147720D02*
D03*
X59910Y166650D02*
D03*
X51558Y158299D02*
D03*
X107890Y156071D02*
D03*
X99539Y147720D02*
D03*
X97312Y166650D02*
D03*
X88960Y158299D02*
D03*
X145292Y156071D02*
D03*
X136940Y147720D02*
D03*
X134713Y166650D02*
D03*
X126362Y158299D02*
D03*
X182694Y156071D02*
D03*
X174342Y147720D02*
D03*
X172115Y166650D02*
D03*
X163763Y158299D02*
D03*
D27*
X31626Y35851D02*
D03*
X30234Y34460D02*
D03*
X28842Y33068D02*
D03*
X27450Y31676D02*
D03*
X26058Y30284D02*
D03*
X21186Y46291D02*
D03*
X19794Y44899D02*
D03*
X18402Y43507D02*
D03*
X17010Y42115D02*
D03*
X15618Y40723D02*
D03*
X69027Y35851D02*
D03*
X67635Y34460D02*
D03*
X66243Y33068D02*
D03*
X64851Y31676D02*
D03*
X63459Y30284D02*
D03*
X58588Y46291D02*
D03*
X57196Y44899D02*
D03*
X55804Y43507D02*
D03*
X54412Y42115D02*
D03*
X53020Y40723D02*
D03*
X106429Y35851D02*
D03*
X105037Y34460D02*
D03*
X103645Y33068D02*
D03*
X102253Y31676D02*
D03*
X100861Y30284D02*
D03*
X95989Y46291D02*
D03*
X94597Y44899D02*
D03*
X93205Y43507D02*
D03*
X91813Y42115D02*
D03*
X90421Y40723D02*
D03*
X143831Y35851D02*
D03*
X142438Y34460D02*
D03*
X141047Y33068D02*
D03*
X139655Y31676D02*
D03*
X138263Y30284D02*
D03*
X133391Y46291D02*
D03*
X131999Y44899D02*
D03*
X130607Y43507D02*
D03*
X129215Y42115D02*
D03*
X127823Y40723D02*
D03*
X181232Y35851D02*
D03*
X179840Y34460D02*
D03*
X178448Y33068D02*
D03*
X177056Y31676D02*
D03*
X175664Y30284D02*
D03*
X170792Y46291D02*
D03*
X169401Y44899D02*
D03*
X168009Y43507D02*
D03*
X166617Y42115D02*
D03*
X165225Y40723D02*
D03*
X31626Y95300D02*
D03*
X30234Y93908D02*
D03*
X28842Y92516D02*
D03*
X27450Y91124D02*
D03*
X26058Y89732D02*
D03*
X21186Y105740D02*
D03*
X19794Y104348D02*
D03*
X18402Y102956D02*
D03*
X17010Y101564D02*
D03*
X15618Y100172D02*
D03*
X69027Y95300D02*
D03*
X67635Y93908D02*
D03*
X66243Y92516D02*
D03*
X64851Y91124D02*
D03*
X63459Y89732D02*
D03*
X58588Y105740D02*
D03*
X57196Y104348D02*
D03*
X55804Y102956D02*
D03*
X54412Y101564D02*
D03*
X53020Y100172D02*
D03*
X106429Y95300D02*
D03*
X105037Y93908D02*
D03*
X103645Y92516D02*
D03*
X102253Y91124D02*
D03*
X100861Y89732D02*
D03*
X95989Y105740D02*
D03*
X94597Y104348D02*
D03*
X93205Y102956D02*
D03*
X91813Y101564D02*
D03*
X90421Y100172D02*
D03*
X143831Y95300D02*
D03*
X142438Y93908D02*
D03*
X141047Y92516D02*
D03*
X139655Y91124D02*
D03*
X138263Y89732D02*
D03*
X133391Y105740D02*
D03*
X131999Y104348D02*
D03*
X130607Y102956D02*
D03*
X129215Y101564D02*
D03*
X127823Y100172D02*
D03*
X181232Y95300D02*
D03*
X179840Y93908D02*
D03*
X178448Y92516D02*
D03*
X177056Y91124D02*
D03*
X175664Y89732D02*
D03*
X170792Y105740D02*
D03*
X169401Y104348D02*
D03*
X168009Y102956D02*
D03*
X166617Y101564D02*
D03*
X165225Y100172D02*
D03*
X31626Y154749D02*
D03*
X30234Y153357D02*
D03*
X28842Y151965D02*
D03*
X27450Y150573D02*
D03*
X26058Y149181D02*
D03*
X21186Y165189D02*
D03*
X19794Y163797D02*
D03*
X18402Y162405D02*
D03*
X17010Y161013D02*
D03*
X15618Y159621D02*
D03*
X69027Y154749D02*
D03*
X67635Y153357D02*
D03*
X66243Y151965D02*
D03*
X64851Y150573D02*
D03*
X63459Y149181D02*
D03*
X58588Y165189D02*
D03*
X57196Y163797D02*
D03*
X55804Y162405D02*
D03*
X54412Y161013D02*
D03*
X53020Y159621D02*
D03*
X106429Y154749D02*
D03*
X105037Y153357D02*
D03*
X103645Y151965D02*
D03*
X102253Y150573D02*
D03*
X100861Y149181D02*
D03*
X95989Y165189D02*
D03*
X94597Y163797D02*
D03*
X93205Y162405D02*
D03*
X91813Y161013D02*
D03*
X90421Y159621D02*
D03*
X143831Y154749D02*
D03*
X142438Y153357D02*
D03*
X141047Y151965D02*
D03*
X139655Y150573D02*
D03*
X138263Y149181D02*
D03*
X133391Y165189D02*
D03*
X131999Y163797D02*
D03*
X130607Y162405D02*
D03*
X129215Y161013D02*
D03*
X127823Y159621D02*
D03*
X181232Y154749D02*
D03*
X179840Y153357D02*
D03*
X178448Y151965D02*
D03*
X177056Y150573D02*
D03*
X175664Y149181D02*
D03*
X170792Y165189D02*
D03*
X169401Y163797D02*
D03*
X168009Y162405D02*
D03*
X166617Y161013D02*
D03*
X165225Y159621D02*
D03*
D28*
X36220Y15748D02*
D03*
X14173D02*
D03*
X23622D02*
D03*
X33071D02*
D03*
X17323D02*
D03*
X29921D02*
D03*
X26772D02*
D03*
X20472D02*
D03*
X11024D02*
D03*
X73622D02*
D03*
X51575D02*
D03*
X61024D02*
D03*
X70473D02*
D03*
X54724D02*
D03*
X67323D02*
D03*
X64173D02*
D03*
X57874D02*
D03*
X48425D02*
D03*
X111024D02*
D03*
X88976D02*
D03*
X98425D02*
D03*
X107874D02*
D03*
X92126D02*
D03*
X104724D02*
D03*
X101575D02*
D03*
X95276D02*
D03*
X85827D02*
D03*
X148425D02*
D03*
X126378D02*
D03*
X135827D02*
D03*
X145276D02*
D03*
X129528D02*
D03*
X142126D02*
D03*
X138976D02*
D03*
X132677D02*
D03*
X123228D02*
D03*
X185827D02*
D03*
X163779D02*
D03*
X173228D02*
D03*
X182677D02*
D03*
X166929D02*
D03*
X179528D02*
D03*
X176378D02*
D03*
X170079D02*
D03*
X160630D02*
D03*
X36220Y75197D02*
D03*
X14173D02*
D03*
X23622D02*
D03*
X33071D02*
D03*
X17323D02*
D03*
X29921D02*
D03*
X26772D02*
D03*
X20472D02*
D03*
X11024D02*
D03*
X73622D02*
D03*
X51575D02*
D03*
X61024D02*
D03*
X70473D02*
D03*
X54724D02*
D03*
X67323D02*
D03*
X64173D02*
D03*
X57874D02*
D03*
X48425D02*
D03*
X111024D02*
D03*
X88976D02*
D03*
X98425D02*
D03*
X107874D02*
D03*
X92126D02*
D03*
X104724D02*
D03*
X101575D02*
D03*
X95276D02*
D03*
X85827D02*
D03*
X148425D02*
D03*
X126378D02*
D03*
X135827D02*
D03*
X145276D02*
D03*
X129528D02*
D03*
X142126D02*
D03*
X138976D02*
D03*
X132677D02*
D03*
X123228D02*
D03*
X185827D02*
D03*
X163779D02*
D03*
X173228D02*
D03*
X182677D02*
D03*
X166929D02*
D03*
X179528D02*
D03*
X176378D02*
D03*
X170079D02*
D03*
X160630D02*
D03*
X36220Y134646D02*
D03*
X14173D02*
D03*
X23622D02*
D03*
X33071D02*
D03*
X17323D02*
D03*
X29921D02*
D03*
X26772D02*
D03*
X20472D02*
D03*
X11024D02*
D03*
X73622D02*
D03*
X51575D02*
D03*
X61024D02*
D03*
X70473D02*
D03*
X54724D02*
D03*
X67323D02*
D03*
X64173D02*
D03*
X57874D02*
D03*
X48425D02*
D03*
X111024D02*
D03*
X88976D02*
D03*
X98425D02*
D03*
X107874D02*
D03*
X92126D02*
D03*
X104724D02*
D03*
X101575D02*
D03*
X95276D02*
D03*
X85827D02*
D03*
X148425D02*
D03*
X126378D02*
D03*
X135827D02*
D03*
X145276D02*
D03*
X129528D02*
D03*
X142126D02*
D03*
X138976D02*
D03*
X132677D02*
D03*
X123228D02*
D03*
X185827D02*
D03*
X163779D02*
D03*
X173228D02*
D03*
X182677D02*
D03*
X166929D02*
D03*
X179528D02*
D03*
X176378D02*
D03*
X170079D02*
D03*
X160630D02*
D03*
M02*
