M48
;Layer_Color=9474304
;FILE_FORMAT=2:5
INCH,LZ
;TYPE=PLATED
T1F00S00C0.00787
T2F00S00C0.07874
;TYPE=NON_PLATED
T3F00S00C0.02362
%
T01
X0122244Y0020472
X0125394
X0128543
X0131693
X0134843
X0137992
X0141142
X0144291
X0147441
X0158661
X0161811
X0164961
X016811
X017126
X0174409
X0177559
X0180709
X0183858
X0173622Y0036614
X0163779Y0041339
X0162303Y0027559
X0137205Y0036614
X0127362Y0041339
X0125886Y0027559
X0134449Y0053937
X0134843Y0077559
X0137992
X0141142
X0144291
X0147441
X0158661
X0161811
X0164961
X016811
X017126
X0174409
X0177559
X0180709
X0183858
X0173622Y0093701
X0163779Y0098425
X0162303Y0084646
X0137205Y0093701
X0127362Y0098425
X0125886Y0084646
X0125394Y0077559
X0128543
X0131693
X0122244
X0134449Y0111024
X0170866
Y0053937
X0098032
X0090945Y0041339
X0100787Y0036614
X0101575Y0020472
X0098425
X0095276
X0092126
X0088976
X0085827
X0089468Y0027559
X0074606Y0020472
X0071457
X0068307
X0065158
X0062008
X0058858
X0055709
X0052559
X0049409
X0053051Y0027559
X0054528Y0041339
X006437Y0036614
X0061614Y0053937
X0062008Y0077559
X0065158
X0068307
X0071457
X0074606
X0085827
X0088976
X0092126
X0095276
X0098425
X0101575
X0104724
X0107874
X0111024
X0100787Y0093701
X0090945Y0098425
X0089468Y0084646
X006437Y0093701
X0054528Y0098425
X0053051Y0084646
X0052559Y0077559
X0055709
X0058858
X0049409
X0038189
X0035039
X003189
X002874
X0025591
X0022441
X0019291
X0016142
X0012992
X0016634Y0084646
X001811Y0098425
X0027953Y0093701
X0025197Y0111024
X0061614
X0098032
X0104724Y0020472
X0107874
X0111024
X0038189
X0035039
X003189
X002874
X0025591
X0022441
X0019291
X0016142
X0012992
X0016634Y0027559
X001811Y0041339
X0027953Y0036614
X0025197Y0053937
X0025591Y0134646
X002874
X003189
X0035039
X0038189
X0049409
X0052559
X0055709
X0058858
X0062008
X0065158
X0068307
X0071457
X0074606
X0085827
X0088976
X0092126
X0095276
X0098425
X0101575
X0104724
X0107874
X0111024
X0100787Y0150787
X0090945Y0155512
X0089468Y0141732
X006437Y0150787
X0054528Y0155512
X0053051Y0141732
X0027953Y0150787
X001811Y0155512
X0016634Y0141732
X0016142Y0134646
X0019291
X0022441
X0012992
X0025197Y016811
X0061614
X0098032
X0134449
X0127362Y0155512
X0137205Y0150787
X0137992Y0134646
X0134843
X0131693
X0128543
X0125394
X0122244
X0125886Y0141732
X0141142Y0134646
X0144291
X0147441
X0158661
X0161811
X0164961
X016811
X017126
X0174409
X0177559
X0180709
X0183858
X0173622Y0150787
X0163779Y0155512
X0162303Y0141732
X0170866Y016811
T02
X0188976Y0007874
X0007874
Y0188976
X0188976
T03
X0124843Y0032244
Y0037244
Y0047244
Y0052244
Y0057244
Y0062244
X0129842
X0134843
X0139842
X0144843
Y0057244
Y0052244
Y0047244
Y0037244
Y0032244
X016126
Y0037244
Y0047244
Y0052244
Y0057244
Y0062244
X016626
X017126
X017626
X018126
Y0057244
Y0052244
Y0047244
Y0037244
Y0032244
Y0089331
Y0094331
Y0104331
Y0109331
Y0114331
X016126
Y0109331
Y0104331
Y0094331
Y0089331
X0144843
Y0094331
Y0104331
Y0109331
Y0114331
X0124843
Y0109331
Y0104331
Y0094331
Y0089331
X0108425
Y0094331
Y0104331
Y0109331
Y0114331
X0088425
Y0109331
Y0104331
Y0094331
Y0089331
X0072008
Y0094331
Y0104331
Y0109331
Y0114331
X0052008
Y0109331
Y0104331
Y0094331
Y0089331
X0035591
Y0094331
Y0104331
Y0109331
Y0114331
X001559
Y0109331
Y0104331
Y0094331
Y0089331
Y0062244
X0020591
X0025591
X0030591
X0035591
Y0057244
Y0052244
Y0047244
Y0037244
Y0032244
X0052008
Y0037244
Y0047244
Y0052244
Y0057244
Y0062244
X0057008
X0062008
X0067008
X0072008
Y0057244
Y0052244
Y0047244
Y0037244
Y0032244
X0088425
Y0037244
Y0047244
Y0052244
Y0057244
Y0062244
X0093425
X0098425
X0103425
X0108425
Y0057244
Y0052244
Y0047244
Y0037244
Y0032244
X001559
Y0037244
Y0047244
Y0052244
Y0057244
Y0119331
X0020591
X0025591
X0030591
X0035591
X0052008
X0057008
X0062008
X0067008
X0072008
X0088425
X0093425
X0098425
X0103425
X0108425
Y0146417
Y0151417
Y0161417
Y0166417
Y0171417
Y0176417
X0103425
X0098425
X0093425
X0088425
Y0171417
Y0166417
Y0161417
Y0151417
Y0146417
X0072008
Y0151417
Y0161417
Y0166417
Y0171417
Y0176417
X0067008
X0062008
X0057008
X0052008
Y0171417
Y0166417
Y0161417
Y0151417
Y0146417
X0035591
Y0151417
Y0161417
Y0166417
Y0171417
Y0176417
X0030591
X0025591
X0020591
X001559
Y0171417
Y0166417
Y0161417
Y0151417
Y0146417
X0124843
Y0151417
Y0161417
Y0166417
Y0171417
Y0176417
X0129842
X0134843
X0139842
X0144843
Y0171417
Y0166417
Y0161417
Y0151417
Y0146417
X016126
Y0151417
Y0161417
Y0166417
Y0171417
Y0176417
X016626
X017126
X017626
X018126
Y0171417
Y0166417
Y0161417
Y0151417
Y0146417
Y0119331
X017626
X017126
X016626
X016126
X0144843
X0139842
X0134843
X0129842
X0124843
M30
