M48
;Layer_Color=9474304
;FILE_FORMAT=2:5
INCH,LZ
;TYPE=PLATED
T1F00S00C0.00787
T2F00S00C0.01968
T3F00S00C0.07874
%
T01
X0123228Y0016535
X012646Y0016907
X013002Y0017379
X0131417Y0019921
X0134124Y0019097
X0134151Y002146
X0134455Y0025191
X013292Y0027138
X013577Y0031028
X0137303Y0032874
X0138942Y0034576
X0134102Y0033422
X013189Y0034252
X0129686Y003775
X0128559Y003989
X0131299Y0039567
X0134843Y004252
X0137106Y0043209
X0135865Y0045253
X0135433Y0054134
X0137894Y005375
X0131201Y0054331
X0131398Y0061379
X0133327Y0059915
X0135335Y0061379
X0142028Y0063189
X0126772Y0062992
X012646Y0076356
X0123228Y0075984
X013002Y0076827
X0131417Y007937
X0134124Y0078546
X0134151Y0080908
X0134455Y008464
X013292Y0086587
X013577Y0090477
X0137303Y0092323
X0138942Y0094024
X0134102Y0092871
X013189Y0093701
X0129686Y0097198
X0128559Y0099339
X0131299Y0099016
X0134843Y0101969
X0137106Y0102657
X0135865Y0104702
X0135433Y0113583
X0137894Y0113199
X0131201Y0113779
X0123961Y009993
X0124016Y0083071
X0141043Y0086734
X0140791Y0089208
X0144488Y0084252
Y0080315
X0148425Y0075984
X0138583Y0076772
X016063Y0075984
X0163862Y0076356
X0167421Y0076827
X0168819Y007937
X0171525Y0078546
X0171553Y0080908
X0171856Y008464
X0170321Y0086587
X0173172Y0090477
X0174705Y0092323
X0176343Y0094024
X0171503Y0092871
X0169291Y0093701
X0167088Y0097198
X0165961Y0099339
X0168701Y0099016
X0172244Y0101969
X0174508Y0102657
X0173267Y0104702
X0172835Y0113583
X0175295Y0113199
X0168602Y0113779
X0161362Y009993
X0161417Y0083071
X0178444Y0086734
X0178193Y0089208
X018189Y0084252
Y0080315
X0185827Y0075984
X0175984Y0076772
X0179429Y0063189
X0172736Y0061379
X0170728Y0059915
X0168799Y0061379
X0164173Y0062992
X0168602Y0054331
X0172835Y0054134
X0175295Y005375
X0173267Y0045253
X0174508Y0043209
X0172244Y004252
X0168701Y0039567
X0165961Y003989
X0167088Y003775
X0169291Y0034252
X0171503Y0033422
X0174705Y0032874
X0176343Y0034576
X0178193Y0029759
X0178444Y0027285
X018189Y0024803
Y0020866
X0185827Y0016535
X0175984Y0017323
X0171525Y0019097
X0171553Y002146
X0171856Y0025191
X0170321Y0027138
X0173172Y0031028
X0168819Y0019921
X0167421Y0017379
X0163862Y0016907
X016063Y0016535
X0161417Y0023622
X0161362Y0040481
X0140791Y0029759
X0141043Y0027285
X0144488Y0024803
Y0020866
X0148425Y0016535
X0138583Y0017323
X0124016Y0023622
X0123961Y0040481
X0099705Y0043209
X0097441Y004252
X0098464Y0045253
X0098032Y0054134
X0100492Y005375
X0093799Y0054331
X0093996Y0061379
X0095925Y0059915
X0097933Y0061379
X0104626Y0063189
X008937Y0062992
X0089059Y0076356
X0085827Y0075984
X0092618Y0076827
X0094016Y007937
X0096722Y0078546
X009675Y0080908
X0097053Y008464
X0095518Y0086587
X0098369Y0090477
X0099902Y0092323
X010154Y0094024
X00967Y0092871
X0094488Y0093701
X0092285Y0097198
X0091158Y0099339
X0093898Y0099016
X0097441Y0101969
X0099705Y0102657
X0098464Y0104702
X0098032Y0113583
X0100492Y0113199
X0093799Y0113779
X0086559Y009993
X0086614Y0083071
X0069685Y0084252
Y0080315
X0073622Y0075984
X0063779Y0076772
X005932Y0078546
X0059348Y0080908
X0059652Y008464
X0058117Y0086587
X0060967Y0090477
X00625Y0092323
X0064139Y0094024
X0059298Y0092871
X0057087Y0093701
X0054883Y0097198
X0053756Y0099339
X0056496Y0099016
X0060039Y0101969
X0062303Y0102657
X0061062Y0104702
X006063Y0113583
X006309Y0113199
X0056398Y0113779
X0049158Y009993
X0049213Y0083071
X0048425Y0075984
X0051657Y0076356
X0055216Y0076827
X0056614Y007937
X0066239Y0086734
X0065988Y0089208
X0067224Y0063189
X0060531Y0061379
X0058524Y0059915
X0056594Y0061379
X0051968Y0062992
X0056398Y0054331
X006063Y0054134
X006309Y005375
X0061062Y0045253
X0062303Y0043209
X0060039Y004252
X0056496Y0039567
X0053756Y003989
X0054883Y003775
X0057087Y0034252
X0059298Y0033422
X00625Y0032874
X0064139Y0034576
X0065988Y0029759
X0066239Y0027285
X0069685Y0024803
Y0020866
X0073622Y0016535
X0063779Y0017323
X005932Y0019097
X0059348Y002146
X0059652Y0025191
X0058117Y0027138
X0060967Y0031028
X0056614Y0019921
X0055216Y0017379
X0051657Y0016907
X0048425Y0016535
X0049213Y0023622
X0049158Y0040481
X0024902Y0043209
X0022638Y004252
X0023661Y0045253
X0023228Y0054134
X0025689Y005375
X0018996Y0054331
X0019193Y0061379
X0021122Y0059915
X002313Y0061379
X0029823Y0063189
X0014567Y0062992
X0014256Y0076356
X0011024Y0075984
X0017815Y0076827
X0019212Y007937
X0021919Y0078546
X0021946Y0080908
X002225Y008464
X0020715Y0086587
X0023566Y0090477
X0025098Y0092323
X0026737Y0094024
X0021897Y0092871
X0019685Y0093701
X0017482Y0097198
X0016354Y0099339
X0019094Y0099016
X0022638Y0101969
X0024902Y0102657
X0023661Y0104702
X0023228Y0113583
X0025689Y0113199
X0018996Y0113779
X0011756Y009993
X0011811Y0083071
X0028838Y0086734
X0028586Y0089208
X0032283Y0084252
Y0080315
X003622Y0075984
X0026378Y0076772
X0026737Y0034576
X0025098Y0032874
X0023566Y0031028
X0021897Y0033422
X0019685Y0034252
X0017482Y003775
X0016354Y003989
X0019094Y0039567
X0011756Y0040481
X0011811Y0023622
X0011024Y0016535
X0014256Y0016907
X0017815Y0017379
X0019212Y0019921
X0021919Y0019097
X0021946Y002146
X002225Y0025191
X0020715Y0027138
X0028838Y0027285
X0028586Y0029759
X0032283Y0024803
Y0020866
X003622Y0016535
X0026378Y0017323
X0085827Y0016535
X0089059Y0016907
X0092618Y0017379
X0094016Y0019921
X0096722Y0019097
X009675Y002146
X0097053Y0025191
X0095518Y0027138
X0098369Y0031028
X0099902Y0032874
X010154Y0034576
X00967Y0033422
X0094488Y0034252
X0092285Y003775
X0091158Y003989
X0093898Y0039567
X0086559Y0040481
X0086614Y0023622
X0103641Y0027285
X010339Y0029759
X0107087Y0024803
Y0020866
X0111024Y0016535
X0101181Y0017323
Y0076772
X0107087Y0080315
Y0084252
X0103641Y0086734
X010339Y0089208
X0111024Y0075984
X0104626Y0122638
X0097933Y0120828
X0095925Y0119364
X0093996Y0120828
X008937Y0122441
X0089059Y0135805
X0085827Y0135433
X0092618Y0136276
X0094016Y0138819
X0096722Y0137995
X009675Y0140357
X0097053Y0144088
X0095518Y0146035
X0098369Y0149926
X0099902Y0151772
X010154Y0153473
X00967Y015232
X0094488Y015315
X0092285Y0156647
X0091158Y0158788
X0093898Y0158465
X0097441Y0161417
X0099705Y0162106
X0098464Y0164151
X0098032Y0173031
X0100492Y0172647
X0093799Y0173228
X0093996Y0180277
X0095925Y0178813
X0097933Y0180277
X0104626Y0182087
X008937Y018189
X0067224Y0182087
X0060531Y0180277
X0058524Y0178813
X0056594Y0180277
X0051968Y018189
X0056398Y0173228
X006063Y0173031
X006309Y0172647
X0061062Y0164151
X0062303Y0162106
X0060039Y0161417
X0056496Y0158465
X0053756Y0158788
X0054883Y0156647
X0057087Y015315
X0059298Y015232
X00625Y0151772
X0064139Y0153473
X0065988Y0148657
X0066239Y0146183
X0069685Y0143701
Y0139764
X0073622Y0135433
X0063779Y0136221
X005932Y0137995
X0059348Y0140357
X0059652Y0144088
X0058117Y0146035
X0060967Y0149926
X0056614Y0138819
X0055216Y0136276
X0051657Y0135805
X0048425Y0135433
X0049213Y014252
X0049158Y0159379
X0024902Y0162106
X0022638Y0161417
X0023661Y0164151
X0023228Y0173031
X0025689Y0172647
X0018996Y0173228
X0019193Y0180277
X0021122Y0178813
X002313Y0180277
X0029823Y0182087
X0014567Y018189
X0016354Y0158788
X0019094Y0158465
X0017482Y0156647
X0019685Y015315
X0021897Y015232
X0025098Y0151772
X0026737Y0153473
X0028586Y0148657
X0028838Y0146183
X0032283Y0143701
Y0139764
X003622Y0135433
X0026378Y0136221
X0021919Y0137995
X0021946Y0140357
X002225Y0144088
X0020715Y0146035
X0023566Y0149926
X0019212Y0138819
X0017815Y0136276
X0014256Y0135805
X0011024Y0135433
X0011811Y014252
X0011756Y0159379
X0014567Y0122441
X0019193Y0120828
X0021122Y0119364
X002313Y0120828
X0029823Y0122638
X0051968Y0122441
X0056594Y0120828
X0058524Y0119364
X0060531Y0120828
X0067224Y0122638
X0086614Y014252
X0086559Y0159379
X010339Y0148657
X0103641Y0146183
X0107087Y0143701
Y0139764
X0111024Y0135433
X0101181Y0136221
X0123228Y0135433
X012646Y0135805
X013002Y0136276
X0131417Y0138819
X0134124Y0137995
X0134151Y0140357
X0134455Y0144088
X013292Y0146035
X013577Y0149926
X0137303Y0151772
X0138942Y0153473
X0134102Y015232
X013189Y015315
X0129686Y0156647
X0128559Y0158788
X0131299Y0158465
X0134843Y0161417
X0137106Y0162106
X0135865Y0164151
X0135433Y0173031
X0137894Y0172647
X0131201Y0173228
X0131398Y0180277
X0133327Y0178813
X0135335Y0180277
X0142028Y0182087
X0126772Y018189
X0123961Y0159379
X0124016Y014252
X0141043Y0146183
X0140791Y0148657
X0144488Y0143701
Y0139764
X0148425Y0135433
X0138583Y0136221
X0142028Y0122638
X0135335Y0120828
X0133327Y0119364
X0131398Y0120828
X0126772Y0122441
X0164173
X0168799Y0120828
X0170728Y0119364
X0172736Y0120828
X0179429Y0122638
X0175984Y0136221
X0171525Y0137995
X0171553Y0140357
X0171856Y0144088
X0170321Y0146035
X0173172Y0149926
X0174705Y0151772
X0176343Y0153473
X0171503Y015232
X0169291Y015315
X0167088Y0156647
X0165961Y0158788
X0168701Y0158465
X0172244Y0161417
X0174508Y0162106
X0173267Y0164151
X0172835Y0173031
X0175295Y0172647
X0168602Y0173228
X0168799Y0180277
X0170728Y0178813
X0172736Y0180277
X0179429Y0182087
X0164173Y018189
X0161362Y0159379
X0161417Y014252
X016063Y0135433
X0163862Y0135805
X0167421Y0136276
X0168819Y0138819
X018189Y0139764
Y0143701
X0178444Y0146183
X0178193Y0148657
X0185827Y0135433
T02
X0125827Y0028307
Y0033307
Y0043307
Y0048307
Y0053307
Y0058307
X0130827
X0135827
X0140827
X0145827
Y0053307
Y0048307
Y0043307
Y0033307
Y0028307
X0163228
Y0033307
Y0043307
Y0048307
Y0053307
Y0058307
X0168228
X0173228
X0178228
X0183228
Y0053307
Y0048307
Y0043307
Y0033307
Y0028307
Y0087756
Y0092756
Y0102756
Y0107756
Y0112756
X0163228
Y0107756
Y0102756
Y0092756
Y0087756
X0145827
Y0092756
Y0102756
Y0107756
Y0112756
X0125827
Y0107756
Y0102756
Y0092756
Y0087756
X0108425
Y0092756
Y0102756
Y0107756
Y0112756
X0088425
Y0107756
Y0102756
Y0092756
Y0087756
X0071024
Y0092756
Y0102756
Y0107756
Y0112756
X0051024
Y0107756
Y0102756
Y0092756
Y0087756
X0033622
Y0092756
Y0102756
Y0107756
Y0112756
X0013622
Y0107756
Y0102756
Y0092756
Y0087756
Y0058307
Y0053307
Y0048307
Y0043307
Y0033307
Y0028307
X0033622
Y0033307
Y0043307
Y0048307
Y0053307
Y0058307
X0028622
X0023622
X0018622
X0051024
Y0053307
Y0048307
Y0043307
Y0033307
Y0028307
X0071024
Y0033307
Y0043307
Y0048307
Y0053307
Y0058307
X0066024
X0061024
X0056024
X0088425
Y0053307
Y0048307
Y0043307
Y0033307
Y0028307
X0108425
Y0033307
Y0043307
Y0048307
Y0053307
Y0058307
X0103425
X0098425
X0093425
Y0117756
X0098425
X0103425
X0108425
X0088425
X0071024
X0066024
X0061024
X0056024
X0051024
X0033622
X0028622
X0023622
X0018622
X0013622
Y0147205
Y0152205
Y0162205
Y0167205
Y0172205
Y0177205
X0018622
X0023622
X0028622
X0033622
Y0172205
Y0167205
Y0162205
Y0152205
Y0147205
X0051024
Y0152205
Y0162205
Y0167205
Y0172205
Y0177205
X0056024
X0061024
X0066024
X0071024
Y0172205
Y0167205
Y0162205
Y0152205
Y0147205
X0088425
Y0152205
Y0162205
Y0167205
Y0172205
Y0177205
X0093425
X0098425
X0103425
X0108425
Y0172205
Y0167205
Y0162205
Y0152205
Y0147205
X0125827
Y0152205
Y0162205
Y0167205
Y0172205
Y0177205
X0130827
X0135827
X0140827
X0145827
Y0172205
Y0167205
Y0162205
Y0152205
Y0147205
X0163228
Y0152205
Y0162205
Y0167205
Y0172205
Y0177205
X0168228
X0173228
X0178228
X0183228
Y0172205
Y0167205
Y0162205
Y0152205
Y0147205
Y0117756
X0178228
X0173228
X0168228
X0163228
X0145827
X0140827
X0135827
X0130827
X0125827
T03
X0188976Y0007874
X0007874
Y0188976
X0188976
M30
