G04*
G04 #@! TF.GenerationSoftware,Altium Limited,Altium Designer,21.5.1 (32)*
G04*
G04 Layer_Color=8388736*
%FSLAX25Y25*%
%MOIN*%
G70*
G04*
G04 #@! TF.SameCoordinates,71E6ED38-6368-4ADE-B46C-8FBAD5B099F3*
G04*
G04*
G04 #@! TF.FilePolarity,Negative*
G04*
G01*
G75*
G04:AMPARAMS|DCode=23|XSize=43.31mil|YSize=39.37mil|CornerRadius=6.4mil|HoleSize=0mil|Usage=FLASHONLY|Rotation=270.000|XOffset=0mil|YOffset=0mil|HoleType=Round|Shape=RoundedRectangle|*
%AMROUNDEDRECTD23*
21,1,0.04331,0.02657,0,0,270.0*
21,1,0.03051,0.03937,0,0,270.0*
1,1,0.01280,-0.01329,-0.01526*
1,1,0.01280,-0.01329,0.01526*
1,1,0.01280,0.01329,0.01526*
1,1,0.01280,0.01329,-0.01526*
%
%ADD23ROUNDEDRECTD23*%
G04:AMPARAMS|DCode=24|XSize=43.31mil|YSize=39.37mil|CornerRadius=6.4mil|HoleSize=0mil|Usage=FLASHONLY|Rotation=180.000|XOffset=0mil|YOffset=0mil|HoleType=Round|Shape=RoundedRectangle|*
%AMROUNDEDRECTD24*
21,1,0.04331,0.02657,0,0,180.0*
21,1,0.03051,0.03937,0,0,180.0*
1,1,0.01280,-0.01526,0.01329*
1,1,0.01280,0.01526,0.01329*
1,1,0.01280,0.01526,-0.01329*
1,1,0.01280,-0.01526,-0.01329*
%
%ADD24ROUNDEDRECTD24*%
%ADD25R,0.02756X0.04331*%
G04:AMPARAMS|DCode=26|XSize=35.43mil|YSize=35.43mil|CornerRadius=5.91mil|HoleSize=0mil|Usage=FLASHONLY|Rotation=180.000|XOffset=0mil|YOffset=0mil|HoleType=Round|Shape=RoundedRectangle|*
%AMROUNDEDRECTD26*
21,1,0.03543,0.02362,0,0,180.0*
21,1,0.02362,0.03543,0,0,180.0*
1,1,0.01181,-0.01181,0.01181*
1,1,0.01181,0.01181,0.01181*
1,1,0.01181,0.01181,-0.01181*
1,1,0.01181,-0.01181,-0.01181*
%
%ADD26ROUNDEDRECTD26*%
G04:AMPARAMS|DCode=27|XSize=23.62mil|YSize=27.56mil|CornerRadius=3.94mil|HoleSize=0mil|Usage=FLASHONLY|Rotation=180.000|XOffset=0mil|YOffset=0mil|HoleType=Round|Shape=RoundedRectangle|*
%AMROUNDEDRECTD27*
21,1,0.02362,0.01968,0,0,180.0*
21,1,0.01575,0.02756,0,0,180.0*
1,1,0.00787,-0.00787,0.00984*
1,1,0.00787,0.00787,0.00984*
1,1,0.00787,0.00787,-0.00984*
1,1,0.00787,-0.00787,-0.00984*
%
%ADD27ROUNDEDRECTD27*%
G04:AMPARAMS|DCode=28|XSize=23.62mil|YSize=27.56mil|CornerRadius=3.94mil|HoleSize=0mil|Usage=FLASHONLY|Rotation=90.000|XOffset=0mil|YOffset=0mil|HoleType=Round|Shape=RoundedRectangle|*
%AMROUNDEDRECTD28*
21,1,0.02362,0.01968,0,0,90.0*
21,1,0.01575,0.02756,0,0,90.0*
1,1,0.00787,0.00984,0.00787*
1,1,0.00787,0.00984,-0.00787*
1,1,0.00787,-0.00984,-0.00787*
1,1,0.00787,-0.00984,0.00787*
%
%ADD28ROUNDEDRECTD28*%
%ADD29C,0.00800*%
%ADD30C,0.04331*%
D23*
X14764Y27559D02*
D03*
X21457D02*
D03*
X27756Y53543D02*
D03*
X21063D02*
D03*
X16339Y42126D02*
D03*
X23031D02*
D03*
X51181Y27559D02*
D03*
X57874D02*
D03*
X64173Y53543D02*
D03*
X57480D02*
D03*
X52756Y42126D02*
D03*
X59449D02*
D03*
X87598Y27559D02*
D03*
X94291D02*
D03*
X100591Y53543D02*
D03*
X93898D02*
D03*
X89173Y42126D02*
D03*
X95866D02*
D03*
X124016Y27559D02*
D03*
X130709D02*
D03*
X137008Y53543D02*
D03*
X130315D02*
D03*
X125591Y42126D02*
D03*
X132283D02*
D03*
X160433Y27559D02*
D03*
X167126D02*
D03*
X173425Y53543D02*
D03*
X166732D02*
D03*
X162008Y42126D02*
D03*
X168701D02*
D03*
X14764Y84646D02*
D03*
X21457D02*
D03*
X27756Y110630D02*
D03*
X21063D02*
D03*
X16339Y99213D02*
D03*
X23031D02*
D03*
X51181Y84646D02*
D03*
X57874D02*
D03*
X64173Y110630D02*
D03*
X57480D02*
D03*
X52756Y99213D02*
D03*
X59449D02*
D03*
X87598Y84646D02*
D03*
X94291D02*
D03*
X100591Y110630D02*
D03*
X93898D02*
D03*
X89173Y99213D02*
D03*
X95866D02*
D03*
X124016Y84646D02*
D03*
X130709D02*
D03*
X137008Y110630D02*
D03*
X130315D02*
D03*
X125591Y99213D02*
D03*
X132283D02*
D03*
X160433Y84646D02*
D03*
X167126D02*
D03*
X173425Y110630D02*
D03*
X166732D02*
D03*
X162008Y99213D02*
D03*
X168701D02*
D03*
X14764Y141732D02*
D03*
X21457D02*
D03*
X27756Y167717D02*
D03*
X21063D02*
D03*
X16339Y156299D02*
D03*
X23031D02*
D03*
X51181Y141732D02*
D03*
X57874D02*
D03*
X64173Y167717D02*
D03*
X57480D02*
D03*
X52756Y156299D02*
D03*
X59449D02*
D03*
X87598Y141732D02*
D03*
X94291D02*
D03*
X100591Y167717D02*
D03*
X93898D02*
D03*
X89173Y156299D02*
D03*
X95866D02*
D03*
X124016Y141732D02*
D03*
X130709D02*
D03*
X137008Y167717D02*
D03*
X130315D02*
D03*
X125591Y156299D02*
D03*
X132283D02*
D03*
X160433Y141732D02*
D03*
X167126D02*
D03*
X173425Y167717D02*
D03*
X166732D02*
D03*
X162008Y156299D02*
D03*
X168701D02*
D03*
D24*
X27559Y38386D02*
D03*
Y31693D02*
D03*
X63976Y38386D02*
D03*
Y31693D02*
D03*
X100394Y38386D02*
D03*
Y31693D02*
D03*
X136811Y38386D02*
D03*
Y31693D02*
D03*
X173228Y38386D02*
D03*
Y31693D02*
D03*
X27559Y95473D02*
D03*
Y88779D02*
D03*
X63976Y95473D02*
D03*
Y88779D02*
D03*
X100394Y95473D02*
D03*
Y88779D02*
D03*
X136811Y95473D02*
D03*
Y88779D02*
D03*
X173228Y95473D02*
D03*
Y88779D02*
D03*
X27559Y152559D02*
D03*
Y145866D02*
D03*
X63976Y152559D02*
D03*
Y145866D02*
D03*
X100394Y152559D02*
D03*
Y145866D02*
D03*
X136811Y152559D02*
D03*
Y145866D02*
D03*
X173228Y152559D02*
D03*
Y145866D02*
D03*
D25*
X25591Y19685D02*
D03*
X16142D02*
D03*
X38189D02*
D03*
X35039D02*
D03*
X19291D02*
D03*
X31890D02*
D03*
X28740D02*
D03*
X22441D02*
D03*
X12992D02*
D03*
X62008D02*
D03*
X52559D02*
D03*
X74606D02*
D03*
X71457D02*
D03*
X55709D02*
D03*
X68307D02*
D03*
X65158D02*
D03*
X58858D02*
D03*
X49409D02*
D03*
X98425D02*
D03*
X88976D02*
D03*
X111024D02*
D03*
X107874D02*
D03*
X92126D02*
D03*
X104724D02*
D03*
X101575D02*
D03*
X95276D02*
D03*
X85827D02*
D03*
X134843D02*
D03*
X125394D02*
D03*
X147441D02*
D03*
X144291D02*
D03*
X128543D02*
D03*
X141142D02*
D03*
X137992D02*
D03*
X131693D02*
D03*
X122244D02*
D03*
X171260D02*
D03*
X161811D02*
D03*
X183858D02*
D03*
X180709D02*
D03*
X164961D02*
D03*
X177559D02*
D03*
X174409D02*
D03*
X168110D02*
D03*
X158661D02*
D03*
X25591Y76772D02*
D03*
X16142D02*
D03*
X38189D02*
D03*
X35039D02*
D03*
X19291D02*
D03*
X31890D02*
D03*
X28740D02*
D03*
X22441D02*
D03*
X12992D02*
D03*
X62008D02*
D03*
X52559D02*
D03*
X74606D02*
D03*
X71457D02*
D03*
X55709D02*
D03*
X68307D02*
D03*
X65158D02*
D03*
X58858D02*
D03*
X49409D02*
D03*
X98425D02*
D03*
X88976D02*
D03*
X111024D02*
D03*
X107874D02*
D03*
X92126D02*
D03*
X104724D02*
D03*
X101575D02*
D03*
X95276D02*
D03*
X85827D02*
D03*
X134843D02*
D03*
X125394D02*
D03*
X147441D02*
D03*
X144291D02*
D03*
X128543D02*
D03*
X141142D02*
D03*
X137992D02*
D03*
X131693D02*
D03*
X122244D02*
D03*
X171260D02*
D03*
X161811D02*
D03*
X183858D02*
D03*
X180709D02*
D03*
X164961D02*
D03*
X177559D02*
D03*
X174409D02*
D03*
X168110D02*
D03*
X158661D02*
D03*
X25591Y133858D02*
D03*
X16142D02*
D03*
X38189D02*
D03*
X35039D02*
D03*
X19291D02*
D03*
X31890D02*
D03*
X28740D02*
D03*
X22441D02*
D03*
X12992D02*
D03*
X62008D02*
D03*
X52559D02*
D03*
X74606D02*
D03*
X71457D02*
D03*
X55709D02*
D03*
X68307D02*
D03*
X65158D02*
D03*
X58858D02*
D03*
X49409D02*
D03*
X98425D02*
D03*
X88976D02*
D03*
X111024D02*
D03*
X107874D02*
D03*
X92126D02*
D03*
X104724D02*
D03*
X101575D02*
D03*
X95276D02*
D03*
X85827D02*
D03*
X134843D02*
D03*
X125394D02*
D03*
X147441D02*
D03*
X144291D02*
D03*
X128543D02*
D03*
X141142D02*
D03*
X137992D02*
D03*
X131693D02*
D03*
X122244D02*
D03*
X171260D02*
D03*
X161811D02*
D03*
X183858D02*
D03*
X180709D02*
D03*
X164961D02*
D03*
X177559D02*
D03*
X174409D02*
D03*
X168110D02*
D03*
X158661D02*
D03*
D26*
X25394Y27165D02*
D03*
X31299D02*
D03*
X61811D02*
D03*
X67716D02*
D03*
X98228D02*
D03*
X104134D02*
D03*
X134646D02*
D03*
X140551D02*
D03*
X171063D02*
D03*
X176969D02*
D03*
X25394Y84252D02*
D03*
X31299D02*
D03*
X61811D02*
D03*
X67716D02*
D03*
X98228D02*
D03*
X104134D02*
D03*
X134646D02*
D03*
X140551D02*
D03*
X171063D02*
D03*
X176969D02*
D03*
X25394Y141339D02*
D03*
X31299D02*
D03*
X61811D02*
D03*
X67716D02*
D03*
X98228D02*
D03*
X104134D02*
D03*
X134646D02*
D03*
X140551D02*
D03*
X171063D02*
D03*
X176969D02*
D03*
D27*
X31496Y36220D02*
D03*
Y32283D02*
D03*
X19291D02*
D03*
Y36220D02*
D03*
X67913D02*
D03*
Y32283D02*
D03*
X55709D02*
D03*
Y36220D02*
D03*
X104331D02*
D03*
Y32283D02*
D03*
X92126D02*
D03*
Y36220D02*
D03*
X140748D02*
D03*
Y32283D02*
D03*
X128543D02*
D03*
Y36220D02*
D03*
X177165D02*
D03*
Y32283D02*
D03*
X164961D02*
D03*
Y36220D02*
D03*
X31496Y93307D02*
D03*
Y89370D02*
D03*
X19291D02*
D03*
Y93307D02*
D03*
X67913D02*
D03*
Y89370D02*
D03*
X55709D02*
D03*
Y93307D02*
D03*
X104331D02*
D03*
Y89370D02*
D03*
X92126D02*
D03*
Y93307D02*
D03*
X140748D02*
D03*
Y89370D02*
D03*
X128543D02*
D03*
Y93307D02*
D03*
X177165D02*
D03*
Y89370D02*
D03*
X164961D02*
D03*
Y93307D02*
D03*
X31496Y150394D02*
D03*
Y146457D02*
D03*
X19291D02*
D03*
Y150394D02*
D03*
X67913D02*
D03*
Y146457D02*
D03*
X55709D02*
D03*
Y150394D02*
D03*
X104331D02*
D03*
Y146457D02*
D03*
X92126D02*
D03*
Y150394D02*
D03*
X140748D02*
D03*
Y146457D02*
D03*
X128543D02*
D03*
Y150394D02*
D03*
X177165D02*
D03*
Y146457D02*
D03*
X164961D02*
D03*
Y150394D02*
D03*
D28*
X24803Y57480D02*
D03*
X20866D02*
D03*
X61221D02*
D03*
X57284D02*
D03*
X97638D02*
D03*
X93701D02*
D03*
X134055D02*
D03*
X130118D02*
D03*
X170473D02*
D03*
X166535D02*
D03*
X24803Y114567D02*
D03*
X20866D02*
D03*
X61221D02*
D03*
X57284D02*
D03*
X97638D02*
D03*
X93701D02*
D03*
X134055D02*
D03*
X130118D02*
D03*
X170473D02*
D03*
X166535D02*
D03*
X24803Y171654D02*
D03*
X20866D02*
D03*
X61221D02*
D03*
X57284D02*
D03*
X97638D02*
D03*
X93701D02*
D03*
X134055D02*
D03*
X130118D02*
D03*
X170473D02*
D03*
X166535D02*
D03*
D29*
X7874Y188976D02*
D03*
X188976D02*
D03*
Y7874D02*
D03*
X7874D02*
D03*
D30*
X15590Y62244D02*
D03*
X30591D02*
D03*
X25591D02*
D03*
X20591D02*
D03*
X15590Y57244D02*
D03*
Y52244D02*
D03*
Y47244D02*
D03*
Y37244D02*
D03*
Y32244D02*
D03*
X35591D02*
D03*
Y37244D02*
D03*
Y47244D02*
D03*
Y52244D02*
D03*
Y57244D02*
D03*
Y62244D02*
D03*
X52008D02*
D03*
X67008D02*
D03*
X62008D02*
D03*
X57008D02*
D03*
X52008Y57244D02*
D03*
Y52244D02*
D03*
Y47244D02*
D03*
Y37244D02*
D03*
Y32244D02*
D03*
X72008D02*
D03*
Y37244D02*
D03*
Y47244D02*
D03*
Y52244D02*
D03*
Y57244D02*
D03*
Y62244D02*
D03*
X88425D02*
D03*
X103425D02*
D03*
X98425D02*
D03*
X93425D02*
D03*
X88425Y57244D02*
D03*
Y52244D02*
D03*
Y47244D02*
D03*
Y37244D02*
D03*
Y32244D02*
D03*
X108425D02*
D03*
Y37244D02*
D03*
Y47244D02*
D03*
Y52244D02*
D03*
Y57244D02*
D03*
Y62244D02*
D03*
X124843D02*
D03*
X139842D02*
D03*
X134843D02*
D03*
X129842D02*
D03*
X124843Y57244D02*
D03*
Y52244D02*
D03*
Y47244D02*
D03*
Y37244D02*
D03*
Y32244D02*
D03*
X144843D02*
D03*
Y37244D02*
D03*
Y47244D02*
D03*
Y52244D02*
D03*
Y57244D02*
D03*
Y62244D02*
D03*
X161260D02*
D03*
X176260D02*
D03*
X171260D02*
D03*
X166260D02*
D03*
X161260Y57244D02*
D03*
Y52244D02*
D03*
Y47244D02*
D03*
Y37244D02*
D03*
Y32244D02*
D03*
X181260D02*
D03*
Y37244D02*
D03*
Y47244D02*
D03*
Y52244D02*
D03*
Y57244D02*
D03*
Y62244D02*
D03*
X15590Y119331D02*
D03*
X30591D02*
D03*
X25591D02*
D03*
X20591D02*
D03*
X15590Y114331D02*
D03*
Y109331D02*
D03*
Y104331D02*
D03*
Y94331D02*
D03*
Y89331D02*
D03*
X35591D02*
D03*
Y94331D02*
D03*
Y104331D02*
D03*
Y109331D02*
D03*
Y114331D02*
D03*
Y119331D02*
D03*
X52008D02*
D03*
X67008D02*
D03*
X62008D02*
D03*
X57008D02*
D03*
X52008Y114331D02*
D03*
Y109331D02*
D03*
Y104331D02*
D03*
Y94331D02*
D03*
Y89331D02*
D03*
X72008D02*
D03*
Y94331D02*
D03*
Y104331D02*
D03*
Y109331D02*
D03*
Y114331D02*
D03*
Y119331D02*
D03*
X88425D02*
D03*
X103425D02*
D03*
X98425D02*
D03*
X93425D02*
D03*
X88425Y114331D02*
D03*
Y109331D02*
D03*
Y104331D02*
D03*
Y94331D02*
D03*
Y89331D02*
D03*
X108425D02*
D03*
Y94331D02*
D03*
Y104331D02*
D03*
Y109331D02*
D03*
Y114331D02*
D03*
Y119331D02*
D03*
X124843D02*
D03*
X139842D02*
D03*
X134843D02*
D03*
X129842D02*
D03*
X124843Y114331D02*
D03*
Y109331D02*
D03*
Y104331D02*
D03*
Y94331D02*
D03*
Y89331D02*
D03*
X144843D02*
D03*
Y94331D02*
D03*
Y104331D02*
D03*
Y109331D02*
D03*
Y114331D02*
D03*
Y119331D02*
D03*
X161260D02*
D03*
X176260D02*
D03*
X171260D02*
D03*
X166260D02*
D03*
X161260Y114331D02*
D03*
Y109331D02*
D03*
Y104331D02*
D03*
Y94331D02*
D03*
Y89331D02*
D03*
X181260D02*
D03*
Y94331D02*
D03*
Y104331D02*
D03*
Y109331D02*
D03*
Y114331D02*
D03*
Y119331D02*
D03*
X15590Y176417D02*
D03*
X30591D02*
D03*
X25591D02*
D03*
X20591D02*
D03*
X15590Y171417D02*
D03*
Y166417D02*
D03*
Y161417D02*
D03*
Y151417D02*
D03*
Y146417D02*
D03*
X35591D02*
D03*
Y151417D02*
D03*
Y161417D02*
D03*
Y166417D02*
D03*
Y171417D02*
D03*
Y176417D02*
D03*
X52008D02*
D03*
X67008D02*
D03*
X62008D02*
D03*
X57008D02*
D03*
X52008Y171417D02*
D03*
Y166417D02*
D03*
Y161417D02*
D03*
Y151417D02*
D03*
Y146417D02*
D03*
X72008D02*
D03*
Y151417D02*
D03*
Y161417D02*
D03*
Y166417D02*
D03*
Y171417D02*
D03*
Y176417D02*
D03*
X88425D02*
D03*
X103425D02*
D03*
X98425D02*
D03*
X93425D02*
D03*
X88425Y171417D02*
D03*
Y166417D02*
D03*
Y161417D02*
D03*
Y151417D02*
D03*
Y146417D02*
D03*
X108425D02*
D03*
Y151417D02*
D03*
Y161417D02*
D03*
Y166417D02*
D03*
Y171417D02*
D03*
Y176417D02*
D03*
X124843D02*
D03*
X139842D02*
D03*
X134843D02*
D03*
X129842D02*
D03*
X124843Y171417D02*
D03*
Y166417D02*
D03*
Y161417D02*
D03*
Y151417D02*
D03*
Y146417D02*
D03*
X144843D02*
D03*
Y151417D02*
D03*
Y161417D02*
D03*
Y166417D02*
D03*
Y171417D02*
D03*
Y176417D02*
D03*
X161260D02*
D03*
X176260D02*
D03*
X171260D02*
D03*
X166260D02*
D03*
X161260Y171417D02*
D03*
Y166417D02*
D03*
Y161417D02*
D03*
Y151417D02*
D03*
Y146417D02*
D03*
X181260D02*
D03*
Y151417D02*
D03*
Y161417D02*
D03*
Y166417D02*
D03*
Y171417D02*
D03*
Y176417D02*
D03*
M02*
